%TF.GenerationSoftware,KiCad,Pcbnew,9.0.8*%
%TF.CreationDate,2026-03-20T01:35:43+00:00*%
%TF.ProjectId,E-throttle,452d7468-726f-4747-946c-652e6b696361,rev?*%
%TF.SameCoordinates,Original*%
%TF.FileFunction,Drillmap*%
%TF.FilePolarity,Positive*%
%FSLAX45Y45*%
G04 Gerber Fmt 4.5, Leading zero omitted, Abs format (unit mm)*
G04 Created by KiCad (PCBNEW 9.0.8) date 2026-03-20 01:35:43*
%MOMM*%
%LPD*%
G01*
G04 APERTURE LIST*
%ADD10C,0.050000*%
%ADD11C,0.100000*%
%ADD12C,0.200000*%
%ADD13C,0.285000*%
G04 APERTURE END LIST*
D10*
X15472000Y-3859000D02*
G75*
G02*
X15980000Y-3351000I508000J0D01*
G01*
X24964000Y-3351000D02*
G75*
G02*
X25472000Y-3859000I0J-508000D01*
G01*
X15980000Y-13351000D02*
G75*
G02*
X15472000Y-12843000I0J508000D01*
G01*
X25472000Y-12843000D02*
X25472000Y-3859000D01*
X24964000Y-3351000D02*
X15980000Y-3351000D01*
X25472000Y-12843000D02*
G75*
G02*
X24964000Y-13351000I-508000J0D01*
G01*
X24964000Y-13351000D02*
X15980000Y-13351000D01*
X15472000Y-12843000D02*
X15472000Y-3859000D01*
D11*
X19065000Y-8396000D02*
G75*
G02*
X18765000Y-8396000I-150000J0D01*
G01*
X18765000Y-8396000D02*
G75*
G02*
X19065000Y-8396000I150000J0D01*
G01*
X19065000Y-12996000D02*
G75*
G02*
X18765000Y-12996000I-150000J0D01*
G01*
X18765000Y-12996000D02*
G75*
G02*
X19065000Y-12996000I150000J0D01*
G01*
X21365000Y-8396000D02*
G75*
G02*
X21065000Y-8396000I-150000J0D01*
G01*
X21065000Y-8396000D02*
G75*
G02*
X21365000Y-8396000I150000J0D01*
G01*
X21365000Y-12996000D02*
G75*
G02*
X21065000Y-12996000I-150000J0D01*
G01*
X21065000Y-12996000D02*
G75*
G02*
X21365000Y-12996000I150000J0D01*
G01*
D12*
D13*
X18179500Y-4189500D02*
X18464500Y-4474500D01*
X18464500Y-4189500D02*
X18179500Y-4474500D01*
X22279500Y-4189500D02*
X22564500Y-4474500D01*
X22564500Y-4189500D02*
X22279500Y-4474500D01*
D12*
X15730277Y-13664984D02*
X15730277Y-13464984D01*
X15730277Y-13464984D02*
X15777896Y-13464984D01*
X15777896Y-13464984D02*
X15806467Y-13474508D01*
X15806467Y-13474508D02*
X15825515Y-13493555D01*
X15825515Y-13493555D02*
X15835039Y-13512603D01*
X15835039Y-13512603D02*
X15844562Y-13550698D01*
X15844562Y-13550698D02*
X15844562Y-13579269D01*
X15844562Y-13579269D02*
X15835039Y-13617365D01*
X15835039Y-13617365D02*
X15825515Y-13636412D01*
X15825515Y-13636412D02*
X15806467Y-13655460D01*
X15806467Y-13655460D02*
X15777896Y-13664984D01*
X15777896Y-13664984D02*
X15730277Y-13664984D01*
X15930277Y-13664984D02*
X15930277Y-13531650D01*
X15930277Y-13569746D02*
X15939801Y-13550698D01*
X15939801Y-13550698D02*
X15949324Y-13541174D01*
X15949324Y-13541174D02*
X15968372Y-13531650D01*
X15968372Y-13531650D02*
X15987420Y-13531650D01*
X16054086Y-13664984D02*
X16054086Y-13531650D01*
X16054086Y-13464984D02*
X16044562Y-13474508D01*
X16044562Y-13474508D02*
X16054086Y-13484031D01*
X16054086Y-13484031D02*
X16063610Y-13474508D01*
X16063610Y-13474508D02*
X16054086Y-13464984D01*
X16054086Y-13464984D02*
X16054086Y-13484031D01*
X16177896Y-13664984D02*
X16158848Y-13655460D01*
X16158848Y-13655460D02*
X16149324Y-13636412D01*
X16149324Y-13636412D02*
X16149324Y-13464984D01*
X16282658Y-13664984D02*
X16263610Y-13655460D01*
X16263610Y-13655460D02*
X16254086Y-13636412D01*
X16254086Y-13636412D02*
X16254086Y-13464984D01*
X16511229Y-13664984D02*
X16511229Y-13464984D01*
X16511229Y-13464984D02*
X16577896Y-13607841D01*
X16577896Y-13607841D02*
X16644562Y-13464984D01*
X16644562Y-13464984D02*
X16644562Y-13664984D01*
X16825515Y-13664984D02*
X16825515Y-13560222D01*
X16825515Y-13560222D02*
X16815991Y-13541174D01*
X16815991Y-13541174D02*
X16796944Y-13531650D01*
X16796944Y-13531650D02*
X16758848Y-13531650D01*
X16758848Y-13531650D02*
X16739801Y-13541174D01*
X16825515Y-13655460D02*
X16806467Y-13664984D01*
X16806467Y-13664984D02*
X16758848Y-13664984D01*
X16758848Y-13664984D02*
X16739801Y-13655460D01*
X16739801Y-13655460D02*
X16730277Y-13636412D01*
X16730277Y-13636412D02*
X16730277Y-13617365D01*
X16730277Y-13617365D02*
X16739801Y-13598317D01*
X16739801Y-13598317D02*
X16758848Y-13588793D01*
X16758848Y-13588793D02*
X16806467Y-13588793D01*
X16806467Y-13588793D02*
X16825515Y-13579269D01*
X16920753Y-13531650D02*
X16920753Y-13731650D01*
X16920753Y-13541174D02*
X16939801Y-13531650D01*
X16939801Y-13531650D02*
X16977896Y-13531650D01*
X16977896Y-13531650D02*
X16996944Y-13541174D01*
X16996944Y-13541174D02*
X17006467Y-13550698D01*
X17006467Y-13550698D02*
X17015991Y-13569746D01*
X17015991Y-13569746D02*
X17015991Y-13626888D01*
X17015991Y-13626888D02*
X17006467Y-13645936D01*
X17006467Y-13645936D02*
X16996944Y-13655460D01*
X16996944Y-13655460D02*
X16977896Y-13664984D01*
X16977896Y-13664984D02*
X16939801Y-13664984D01*
X16939801Y-13664984D02*
X16920753Y-13655460D01*
X17101705Y-13645936D02*
X17111229Y-13655460D01*
X17111229Y-13655460D02*
X17101705Y-13664984D01*
X17101705Y-13664984D02*
X17092182Y-13655460D01*
X17092182Y-13655460D02*
X17101705Y-13645936D01*
X17101705Y-13645936D02*
X17101705Y-13664984D01*
X17101705Y-13541174D02*
X17111229Y-13550698D01*
X17111229Y-13550698D02*
X17101705Y-13560222D01*
X17101705Y-13560222D02*
X17092182Y-13550698D01*
X17092182Y-13550698D02*
X17101705Y-13541174D01*
X17101705Y-13541174D02*
X17101705Y-13560222D01*
X15269500Y-13893500D02*
X15469500Y-14093500D01*
X15469500Y-13893500D02*
X15269500Y-14093500D01*
X15720753Y-13904031D02*
X15730277Y-13894508D01*
X15730277Y-13894508D02*
X15749324Y-13884984D01*
X15749324Y-13884984D02*
X15796943Y-13884984D01*
X15796943Y-13884984D02*
X15815991Y-13894508D01*
X15815991Y-13894508D02*
X15825515Y-13904031D01*
X15825515Y-13904031D02*
X15835039Y-13923079D01*
X15835039Y-13923079D02*
X15835039Y-13942127D01*
X15835039Y-13942127D02*
X15825515Y-13970698D01*
X15825515Y-13970698D02*
X15711229Y-14084984D01*
X15711229Y-14084984D02*
X15835039Y-14084984D01*
X15920753Y-14065936D02*
X15930277Y-14075460D01*
X15930277Y-14075460D02*
X15920753Y-14084984D01*
X15920753Y-14084984D02*
X15911229Y-14075460D01*
X15911229Y-14075460D02*
X15920753Y-14065936D01*
X15920753Y-14065936D02*
X15920753Y-14084984D01*
X16044562Y-13970698D02*
X16025515Y-13961174D01*
X16025515Y-13961174D02*
X16015991Y-13951650D01*
X16015991Y-13951650D02*
X16006467Y-13932603D01*
X16006467Y-13932603D02*
X16006467Y-13923079D01*
X16006467Y-13923079D02*
X16015991Y-13904031D01*
X16015991Y-13904031D02*
X16025515Y-13894508D01*
X16025515Y-13894508D02*
X16044562Y-13884984D01*
X16044562Y-13884984D02*
X16082658Y-13884984D01*
X16082658Y-13884984D02*
X16101705Y-13894508D01*
X16101705Y-13894508D02*
X16111229Y-13904031D01*
X16111229Y-13904031D02*
X16120753Y-13923079D01*
X16120753Y-13923079D02*
X16120753Y-13932603D01*
X16120753Y-13932603D02*
X16111229Y-13951650D01*
X16111229Y-13951650D02*
X16101705Y-13961174D01*
X16101705Y-13961174D02*
X16082658Y-13970698D01*
X16082658Y-13970698D02*
X16044562Y-13970698D01*
X16044562Y-13970698D02*
X16025515Y-13980222D01*
X16025515Y-13980222D02*
X16015991Y-13989746D01*
X16015991Y-13989746D02*
X16006467Y-14008793D01*
X16006467Y-14008793D02*
X16006467Y-14046888D01*
X16006467Y-14046888D02*
X16015991Y-14065936D01*
X16015991Y-14065936D02*
X16025515Y-14075460D01*
X16025515Y-14075460D02*
X16044562Y-14084984D01*
X16044562Y-14084984D02*
X16082658Y-14084984D01*
X16082658Y-14084984D02*
X16101705Y-14075460D01*
X16101705Y-14075460D02*
X16111229Y-14065936D01*
X16111229Y-14065936D02*
X16120753Y-14046888D01*
X16120753Y-14046888D02*
X16120753Y-14008793D01*
X16120753Y-14008793D02*
X16111229Y-13989746D01*
X16111229Y-13989746D02*
X16101705Y-13980222D01*
X16101705Y-13980222D02*
X16082658Y-13970698D01*
X16301705Y-13884984D02*
X16206467Y-13884984D01*
X16206467Y-13884984D02*
X16196943Y-13980222D01*
X16196943Y-13980222D02*
X16206467Y-13970698D01*
X16206467Y-13970698D02*
X16225515Y-13961174D01*
X16225515Y-13961174D02*
X16273134Y-13961174D01*
X16273134Y-13961174D02*
X16292182Y-13970698D01*
X16292182Y-13970698D02*
X16301705Y-13980222D01*
X16301705Y-13980222D02*
X16311229Y-13999269D01*
X16311229Y-13999269D02*
X16311229Y-14046888D01*
X16311229Y-14046888D02*
X16301705Y-14065936D01*
X16301705Y-14065936D02*
X16292182Y-14075460D01*
X16292182Y-14075460D02*
X16273134Y-14084984D01*
X16273134Y-14084984D02*
X16225515Y-14084984D01*
X16225515Y-14084984D02*
X16206467Y-14075460D01*
X16206467Y-14075460D02*
X16196943Y-14065936D01*
X16435039Y-13884984D02*
X16454086Y-13884984D01*
X16454086Y-13884984D02*
X16473134Y-13894508D01*
X16473134Y-13894508D02*
X16482658Y-13904031D01*
X16482658Y-13904031D02*
X16492182Y-13923079D01*
X16492182Y-13923079D02*
X16501705Y-13961174D01*
X16501705Y-13961174D02*
X16501705Y-14008793D01*
X16501705Y-14008793D02*
X16492182Y-14046888D01*
X16492182Y-14046888D02*
X16482658Y-14065936D01*
X16482658Y-14065936D02*
X16473134Y-14075460D01*
X16473134Y-14075460D02*
X16454086Y-14084984D01*
X16454086Y-14084984D02*
X16435039Y-14084984D01*
X16435039Y-14084984D02*
X16415991Y-14075460D01*
X16415991Y-14075460D02*
X16406467Y-14065936D01*
X16406467Y-14065936D02*
X16396943Y-14046888D01*
X16396943Y-14046888D02*
X16387420Y-14008793D01*
X16387420Y-14008793D02*
X16387420Y-13961174D01*
X16387420Y-13961174D02*
X16396943Y-13923079D01*
X16396943Y-13923079D02*
X16406467Y-13904031D01*
X16406467Y-13904031D02*
X16415991Y-13894508D01*
X16415991Y-13894508D02*
X16435039Y-13884984D01*
X16587420Y-14084984D02*
X16587420Y-13951650D01*
X16587420Y-13970698D02*
X16596943Y-13961174D01*
X16596943Y-13961174D02*
X16615991Y-13951650D01*
X16615991Y-13951650D02*
X16644563Y-13951650D01*
X16644563Y-13951650D02*
X16663610Y-13961174D01*
X16663610Y-13961174D02*
X16673134Y-13980222D01*
X16673134Y-13980222D02*
X16673134Y-14084984D01*
X16673134Y-13980222D02*
X16682658Y-13961174D01*
X16682658Y-13961174D02*
X16701705Y-13951650D01*
X16701705Y-13951650D02*
X16730277Y-13951650D01*
X16730277Y-13951650D02*
X16749324Y-13961174D01*
X16749324Y-13961174D02*
X16758848Y-13980222D01*
X16758848Y-13980222D02*
X16758848Y-14084984D01*
X16854086Y-14084984D02*
X16854086Y-13951650D01*
X16854086Y-13970698D02*
X16863610Y-13961174D01*
X16863610Y-13961174D02*
X16882658Y-13951650D01*
X16882658Y-13951650D02*
X16911229Y-13951650D01*
X16911229Y-13951650D02*
X16930277Y-13961174D01*
X16930277Y-13961174D02*
X16939801Y-13980222D01*
X16939801Y-13980222D02*
X16939801Y-14084984D01*
X16939801Y-13980222D02*
X16949325Y-13961174D01*
X16949325Y-13961174D02*
X16968372Y-13951650D01*
X16968372Y-13951650D02*
X16996944Y-13951650D01*
X16996944Y-13951650D02*
X17015991Y-13961174D01*
X17015991Y-13961174D02*
X17025515Y-13980222D01*
X17025515Y-13980222D02*
X17025515Y-14084984D01*
X17415991Y-13875460D02*
X17244563Y-14132603D01*
X17673134Y-13884984D02*
X17692182Y-13884984D01*
X17692182Y-13884984D02*
X17711229Y-13894508D01*
X17711229Y-13894508D02*
X17720753Y-13904031D01*
X17720753Y-13904031D02*
X17730277Y-13923079D01*
X17730277Y-13923079D02*
X17739801Y-13961174D01*
X17739801Y-13961174D02*
X17739801Y-14008793D01*
X17739801Y-14008793D02*
X17730277Y-14046888D01*
X17730277Y-14046888D02*
X17720753Y-14065936D01*
X17720753Y-14065936D02*
X17711229Y-14075460D01*
X17711229Y-14075460D02*
X17692182Y-14084984D01*
X17692182Y-14084984D02*
X17673134Y-14084984D01*
X17673134Y-14084984D02*
X17654087Y-14075460D01*
X17654087Y-14075460D02*
X17644563Y-14065936D01*
X17644563Y-14065936D02*
X17635039Y-14046888D01*
X17635039Y-14046888D02*
X17625515Y-14008793D01*
X17625515Y-14008793D02*
X17625515Y-13961174D01*
X17625515Y-13961174D02*
X17635039Y-13923079D01*
X17635039Y-13923079D02*
X17644563Y-13904031D01*
X17644563Y-13904031D02*
X17654087Y-13894508D01*
X17654087Y-13894508D02*
X17673134Y-13884984D01*
X17825515Y-14065936D02*
X17835039Y-14075460D01*
X17835039Y-14075460D02*
X17825515Y-14084984D01*
X17825515Y-14084984D02*
X17815991Y-14075460D01*
X17815991Y-14075460D02*
X17825515Y-14065936D01*
X17825515Y-14065936D02*
X17825515Y-14084984D01*
X18025515Y-14084984D02*
X17911229Y-14084984D01*
X17968372Y-14084984D02*
X17968372Y-13884984D01*
X17968372Y-13884984D02*
X17949325Y-13913555D01*
X17949325Y-13913555D02*
X17930277Y-13932603D01*
X17930277Y-13932603D02*
X17911229Y-13942127D01*
X18215991Y-14084984D02*
X18101706Y-14084984D01*
X18158848Y-14084984D02*
X18158848Y-13884984D01*
X18158848Y-13884984D02*
X18139801Y-13913555D01*
X18139801Y-13913555D02*
X18120753Y-13932603D01*
X18120753Y-13932603D02*
X18101706Y-13942127D01*
X18292182Y-13904031D02*
X18301706Y-13894508D01*
X18301706Y-13894508D02*
X18320753Y-13884984D01*
X18320753Y-13884984D02*
X18368372Y-13884984D01*
X18368372Y-13884984D02*
X18387420Y-13894508D01*
X18387420Y-13894508D02*
X18396944Y-13904031D01*
X18396944Y-13904031D02*
X18406468Y-13923079D01*
X18406468Y-13923079D02*
X18406468Y-13942127D01*
X18406468Y-13942127D02*
X18396944Y-13970698D01*
X18396944Y-13970698D02*
X18282658Y-14084984D01*
X18282658Y-14084984D02*
X18406468Y-14084984D01*
X18482658Y-13904031D02*
X18492182Y-13894508D01*
X18492182Y-13894508D02*
X18511229Y-13884984D01*
X18511229Y-13884984D02*
X18558849Y-13884984D01*
X18558849Y-13884984D02*
X18577896Y-13894508D01*
X18577896Y-13894508D02*
X18587420Y-13904031D01*
X18587420Y-13904031D02*
X18596944Y-13923079D01*
X18596944Y-13923079D02*
X18596944Y-13942127D01*
X18596944Y-13942127D02*
X18587420Y-13970698D01*
X18587420Y-13970698D02*
X18473134Y-14084984D01*
X18473134Y-14084984D02*
X18596944Y-14084984D01*
X18673134Y-13884984D02*
X18673134Y-13923079D01*
X18749325Y-13884984D02*
X18749325Y-13923079D01*
X19044563Y-14161174D02*
X19035039Y-14151650D01*
X19035039Y-14151650D02*
X19015991Y-14123079D01*
X19015991Y-14123079D02*
X19006468Y-14104031D01*
X19006468Y-14104031D02*
X18996944Y-14075460D01*
X18996944Y-14075460D02*
X18987420Y-14027841D01*
X18987420Y-14027841D02*
X18987420Y-13989746D01*
X18987420Y-13989746D02*
X18996944Y-13942127D01*
X18996944Y-13942127D02*
X19006468Y-13913555D01*
X19006468Y-13913555D02*
X19015991Y-13894508D01*
X19015991Y-13894508D02*
X19035039Y-13865936D01*
X19035039Y-13865936D02*
X19044563Y-13856412D01*
X19111230Y-13904031D02*
X19120753Y-13894508D01*
X19120753Y-13894508D02*
X19139801Y-13884984D01*
X19139801Y-13884984D02*
X19187420Y-13884984D01*
X19187420Y-13884984D02*
X19206468Y-13894508D01*
X19206468Y-13894508D02*
X19215991Y-13904031D01*
X19215991Y-13904031D02*
X19225515Y-13923079D01*
X19225515Y-13923079D02*
X19225515Y-13942127D01*
X19225515Y-13942127D02*
X19215991Y-13970698D01*
X19215991Y-13970698D02*
X19101706Y-14084984D01*
X19101706Y-14084984D02*
X19225515Y-14084984D01*
X19463611Y-14084984D02*
X19463611Y-13884984D01*
X19549325Y-14084984D02*
X19549325Y-13980222D01*
X19549325Y-13980222D02*
X19539801Y-13961174D01*
X19539801Y-13961174D02*
X19520753Y-13951650D01*
X19520753Y-13951650D02*
X19492182Y-13951650D01*
X19492182Y-13951650D02*
X19473134Y-13961174D01*
X19473134Y-13961174D02*
X19463611Y-13970698D01*
X19673134Y-14084984D02*
X19654087Y-14075460D01*
X19654087Y-14075460D02*
X19644563Y-14065936D01*
X19644563Y-14065936D02*
X19635039Y-14046888D01*
X19635039Y-14046888D02*
X19635039Y-13989746D01*
X19635039Y-13989746D02*
X19644563Y-13970698D01*
X19644563Y-13970698D02*
X19654087Y-13961174D01*
X19654087Y-13961174D02*
X19673134Y-13951650D01*
X19673134Y-13951650D02*
X19701706Y-13951650D01*
X19701706Y-13951650D02*
X19720753Y-13961174D01*
X19720753Y-13961174D02*
X19730277Y-13970698D01*
X19730277Y-13970698D02*
X19739801Y-13989746D01*
X19739801Y-13989746D02*
X19739801Y-14046888D01*
X19739801Y-14046888D02*
X19730277Y-14065936D01*
X19730277Y-14065936D02*
X19720753Y-14075460D01*
X19720753Y-14075460D02*
X19701706Y-14084984D01*
X19701706Y-14084984D02*
X19673134Y-14084984D01*
X19854087Y-14084984D02*
X19835039Y-14075460D01*
X19835039Y-14075460D02*
X19825515Y-14056412D01*
X19825515Y-14056412D02*
X19825515Y-13884984D01*
X20006468Y-14075460D02*
X19987420Y-14084984D01*
X19987420Y-14084984D02*
X19949325Y-14084984D01*
X19949325Y-14084984D02*
X19930277Y-14075460D01*
X19930277Y-14075460D02*
X19920753Y-14056412D01*
X19920753Y-14056412D02*
X19920753Y-13980222D01*
X19920753Y-13980222D02*
X19930277Y-13961174D01*
X19930277Y-13961174D02*
X19949325Y-13951650D01*
X19949325Y-13951650D02*
X19987420Y-13951650D01*
X19987420Y-13951650D02*
X20006468Y-13961174D01*
X20006468Y-13961174D02*
X20015992Y-13980222D01*
X20015992Y-13980222D02*
X20015992Y-13999269D01*
X20015992Y-13999269D02*
X19920753Y-14018317D01*
X20092182Y-14075460D02*
X20111230Y-14084984D01*
X20111230Y-14084984D02*
X20149325Y-14084984D01*
X20149325Y-14084984D02*
X20168373Y-14075460D01*
X20168373Y-14075460D02*
X20177896Y-14056412D01*
X20177896Y-14056412D02*
X20177896Y-14046888D01*
X20177896Y-14046888D02*
X20168373Y-14027841D01*
X20168373Y-14027841D02*
X20149325Y-14018317D01*
X20149325Y-14018317D02*
X20120753Y-14018317D01*
X20120753Y-14018317D02*
X20101706Y-14008793D01*
X20101706Y-14008793D02*
X20092182Y-13989746D01*
X20092182Y-13989746D02*
X20092182Y-13980222D01*
X20092182Y-13980222D02*
X20101706Y-13961174D01*
X20101706Y-13961174D02*
X20120753Y-13951650D01*
X20120753Y-13951650D02*
X20149325Y-13951650D01*
X20149325Y-13951650D02*
X20168373Y-13961174D01*
X20244563Y-14161174D02*
X20254087Y-14151650D01*
X20254087Y-14151650D02*
X20273134Y-14123079D01*
X20273134Y-14123079D02*
X20282658Y-14104031D01*
X20282658Y-14104031D02*
X20292182Y-14075460D01*
X20292182Y-14075460D02*
X20301706Y-14027841D01*
X20301706Y-14027841D02*
X20301706Y-13989746D01*
X20301706Y-13989746D02*
X20292182Y-13942127D01*
X20292182Y-13942127D02*
X20282658Y-13913555D01*
X20282658Y-13913555D02*
X20273134Y-13894508D01*
X20273134Y-13894508D02*
X20254087Y-13865936D01*
X20254087Y-13865936D02*
X20244563Y-13856412D01*
X20606468Y-14161174D02*
X20596944Y-14151650D01*
X20596944Y-14151650D02*
X20577896Y-14123079D01*
X20577896Y-14123079D02*
X20568373Y-14104031D01*
X20568373Y-14104031D02*
X20558849Y-14075460D01*
X20558849Y-14075460D02*
X20549325Y-14027841D01*
X20549325Y-14027841D02*
X20549325Y-13989746D01*
X20549325Y-13989746D02*
X20558849Y-13942127D01*
X20558849Y-13942127D02*
X20568373Y-13913555D01*
X20568373Y-13913555D02*
X20577896Y-13894508D01*
X20577896Y-13894508D02*
X20596944Y-13865936D01*
X20596944Y-13865936D02*
X20606468Y-13856412D01*
X20682658Y-13951650D02*
X20682658Y-14084984D01*
X20682658Y-13970698D02*
X20692182Y-13961174D01*
X20692182Y-13961174D02*
X20711230Y-13951650D01*
X20711230Y-13951650D02*
X20739801Y-13951650D01*
X20739801Y-13951650D02*
X20758849Y-13961174D01*
X20758849Y-13961174D02*
X20768373Y-13980222D01*
X20768373Y-13980222D02*
X20768373Y-14084984D01*
X20892182Y-14084984D02*
X20873134Y-14075460D01*
X20873134Y-14075460D02*
X20863611Y-14065936D01*
X20863611Y-14065936D02*
X20854087Y-14046888D01*
X20854087Y-14046888D02*
X20854087Y-13989746D01*
X20854087Y-13989746D02*
X20863611Y-13970698D01*
X20863611Y-13970698D02*
X20873134Y-13961174D01*
X20873134Y-13961174D02*
X20892182Y-13951650D01*
X20892182Y-13951650D02*
X20920754Y-13951650D01*
X20920754Y-13951650D02*
X20939801Y-13961174D01*
X20939801Y-13961174D02*
X20949325Y-13970698D01*
X20949325Y-13970698D02*
X20958849Y-13989746D01*
X20958849Y-13989746D02*
X20958849Y-14046888D01*
X20958849Y-14046888D02*
X20949325Y-14065936D01*
X20949325Y-14065936D02*
X20939801Y-14075460D01*
X20939801Y-14075460D02*
X20920754Y-14084984D01*
X20920754Y-14084984D02*
X20892182Y-14084984D01*
X21015992Y-13951650D02*
X21092182Y-13951650D01*
X21044563Y-13884984D02*
X21044563Y-14056412D01*
X21044563Y-14056412D02*
X21054087Y-14075460D01*
X21054087Y-14075460D02*
X21073134Y-14084984D01*
X21073134Y-14084984D02*
X21092182Y-14084984D01*
X21311230Y-13951650D02*
X21311230Y-14151650D01*
X21311230Y-13961174D02*
X21330277Y-13951650D01*
X21330277Y-13951650D02*
X21368373Y-13951650D01*
X21368373Y-13951650D02*
X21387420Y-13961174D01*
X21387420Y-13961174D02*
X21396944Y-13970698D01*
X21396944Y-13970698D02*
X21406468Y-13989746D01*
X21406468Y-13989746D02*
X21406468Y-14046888D01*
X21406468Y-14046888D02*
X21396944Y-14065936D01*
X21396944Y-14065936D02*
X21387420Y-14075460D01*
X21387420Y-14075460D02*
X21368373Y-14084984D01*
X21368373Y-14084984D02*
X21330277Y-14084984D01*
X21330277Y-14084984D02*
X21311230Y-14075460D01*
X21520754Y-14084984D02*
X21501706Y-14075460D01*
X21501706Y-14075460D02*
X21492182Y-14056412D01*
X21492182Y-14056412D02*
X21492182Y-13884984D01*
X21682658Y-14084984D02*
X21682658Y-13980222D01*
X21682658Y-13980222D02*
X21673135Y-13961174D01*
X21673135Y-13961174D02*
X21654087Y-13951650D01*
X21654087Y-13951650D02*
X21615992Y-13951650D01*
X21615992Y-13951650D02*
X21596944Y-13961174D01*
X21682658Y-14075460D02*
X21663611Y-14084984D01*
X21663611Y-14084984D02*
X21615992Y-14084984D01*
X21615992Y-14084984D02*
X21596944Y-14075460D01*
X21596944Y-14075460D02*
X21587420Y-14056412D01*
X21587420Y-14056412D02*
X21587420Y-14037365D01*
X21587420Y-14037365D02*
X21596944Y-14018317D01*
X21596944Y-14018317D02*
X21615992Y-14008793D01*
X21615992Y-14008793D02*
X21663611Y-14008793D01*
X21663611Y-14008793D02*
X21682658Y-13999269D01*
X21749325Y-13951650D02*
X21825515Y-13951650D01*
X21777896Y-13884984D02*
X21777896Y-14056412D01*
X21777896Y-14056412D02*
X21787420Y-14075460D01*
X21787420Y-14075460D02*
X21806468Y-14084984D01*
X21806468Y-14084984D02*
X21825515Y-14084984D01*
X21968373Y-14075460D02*
X21949325Y-14084984D01*
X21949325Y-14084984D02*
X21911230Y-14084984D01*
X21911230Y-14084984D02*
X21892182Y-14075460D01*
X21892182Y-14075460D02*
X21882658Y-14056412D01*
X21882658Y-14056412D02*
X21882658Y-13980222D01*
X21882658Y-13980222D02*
X21892182Y-13961174D01*
X21892182Y-13961174D02*
X21911230Y-13951650D01*
X21911230Y-13951650D02*
X21949325Y-13951650D01*
X21949325Y-13951650D02*
X21968373Y-13961174D01*
X21968373Y-13961174D02*
X21977896Y-13980222D01*
X21977896Y-13980222D02*
X21977896Y-13999269D01*
X21977896Y-13999269D02*
X21882658Y-14018317D01*
X22149325Y-14084984D02*
X22149325Y-13884984D01*
X22149325Y-14075460D02*
X22130277Y-14084984D01*
X22130277Y-14084984D02*
X22092182Y-14084984D01*
X22092182Y-14084984D02*
X22073135Y-14075460D01*
X22073135Y-14075460D02*
X22063611Y-14065936D01*
X22063611Y-14065936D02*
X22054087Y-14046888D01*
X22054087Y-14046888D02*
X22054087Y-13989746D01*
X22054087Y-13989746D02*
X22063611Y-13970698D01*
X22063611Y-13970698D02*
X22073135Y-13961174D01*
X22073135Y-13961174D02*
X22092182Y-13951650D01*
X22092182Y-13951650D02*
X22130277Y-13951650D01*
X22130277Y-13951650D02*
X22149325Y-13961174D01*
X22225516Y-14161174D02*
X22235039Y-14151650D01*
X22235039Y-14151650D02*
X22254087Y-14123079D01*
X22254087Y-14123079D02*
X22263611Y-14104031D01*
X22263611Y-14104031D02*
X22273135Y-14075460D01*
X22273135Y-14075460D02*
X22282658Y-14027841D01*
X22282658Y-14027841D02*
X22282658Y-13989746D01*
X22282658Y-13989746D02*
X22273135Y-13942127D01*
X22273135Y-13942127D02*
X22263611Y-13913555D01*
X22263611Y-13913555D02*
X22254087Y-13894508D01*
X22254087Y-13894508D02*
X22235039Y-13865936D01*
X22235039Y-13865936D02*
X22225516Y-13856412D01*
M02*
