%TF.GenerationSoftware,KiCad,Pcbnew,9.0.8*%
%TF.CreationDate,2026-03-20T01:35:43+00:00*%
%TF.ProjectId,E-throttle,452d7468-726f-4747-946c-652e6b696361,rev?*%
%TF.SameCoordinates,Original*%
%TF.FileFunction,Drillmap*%
%TF.FilePolarity,Positive*%
%FSLAX45Y45*%
G04 Gerber Fmt 4.5, Leading zero omitted, Abs format (unit mm)*
G04 Created by KiCad (PCBNEW 9.0.8) date 2026-03-20 01:35:43*
%MOMM*%
%LPD*%
G01*
G04 APERTURE LIST*
%ADD10C,0.050000*%
%ADD11C,0.100000*%
%ADD12C,0.200000*%
%ADD13C,0.130000*%
%ADD14C,0.175000*%
%ADD15C,0.320000*%
G04 APERTURE END LIST*
D10*
X15472000Y-3859000D02*
G75*
G02*
X15980000Y-3351000I508000J0D01*
G01*
X24964000Y-3351000D02*
G75*
G02*
X25472000Y-3859000I0J-508000D01*
G01*
X15980000Y-13351000D02*
G75*
G02*
X15472000Y-12843000I0J508000D01*
G01*
X25472000Y-12843000D02*
X25472000Y-3859000D01*
X24964000Y-3351000D02*
X15980000Y-3351000D01*
X25472000Y-12843000D02*
G75*
G02*
X24964000Y-13351000I-508000J0D01*
G01*
X24964000Y-13351000D02*
X15980000Y-13351000D01*
X15472000Y-12843000D02*
X15472000Y-3859000D01*
D11*
X19065000Y-8396000D02*
G75*
G02*
X18765000Y-8396000I-150000J0D01*
G01*
X18765000Y-8396000D02*
G75*
G02*
X19065000Y-8396000I150000J0D01*
G01*
X19065000Y-12996000D02*
G75*
G02*
X18765000Y-12996000I-150000J0D01*
G01*
X18765000Y-12996000D02*
G75*
G02*
X19065000Y-12996000I150000J0D01*
G01*
X21365000Y-8396000D02*
G75*
G02*
X21065000Y-8396000I-150000J0D01*
G01*
X21065000Y-8396000D02*
G75*
G02*
X21365000Y-8396000I150000J0D01*
G01*
X21365000Y-12996000D02*
G75*
G02*
X21065000Y-12996000I-150000J0D01*
G01*
X21065000Y-12996000D02*
G75*
G02*
X21365000Y-12996000I150000J0D01*
G01*
D12*
D11*
X15757000Y-8517000D02*
X15787000Y-8547000D01*
X15787000Y-8517000D02*
X15757000Y-8547000D01*
X15807000Y-8717000D02*
X15837000Y-8747000D01*
X15837000Y-8717000D02*
X15807000Y-8747000D01*
X15957000Y-7967000D02*
X15987000Y-7997000D01*
X15987000Y-7967000D02*
X15957000Y-7997000D01*
X15957000Y-10367000D02*
X15987000Y-10397000D01*
X15987000Y-10367000D02*
X15957000Y-10397000D01*
X16057000Y-6067000D02*
X16087000Y-6097000D01*
X16087000Y-6067000D02*
X16057000Y-6097000D01*
X16257000Y-6267000D02*
X16287000Y-6297000D01*
X16287000Y-6267000D02*
X16257000Y-6297000D01*
X16357000Y-8517000D02*
X16387000Y-8547000D01*
X16387000Y-8517000D02*
X16357000Y-8547000D01*
X16357000Y-9317000D02*
X16387000Y-9347000D01*
X16387000Y-9317000D02*
X16357000Y-9347000D01*
X16557000Y-7467000D02*
X16587000Y-7497000D01*
X16587000Y-7467000D02*
X16557000Y-7497000D01*
X16702000Y-7862000D02*
X16732000Y-7892000D01*
X16732000Y-7862000D02*
X16702000Y-7892000D01*
X16757000Y-8717000D02*
X16787000Y-8747000D01*
X16787000Y-8717000D02*
X16757000Y-8747000D01*
X16757000Y-11367000D02*
X16787000Y-11397000D01*
X16787000Y-11367000D02*
X16757000Y-11397000D01*
X16807000Y-10367000D02*
X16837000Y-10397000D01*
X16837000Y-10367000D02*
X16807000Y-10397000D01*
X16907000Y-12167000D02*
X16937000Y-12197000D01*
X16937000Y-12167000D02*
X16907000Y-12197000D01*
X16957000Y-6067000D02*
X16987000Y-6097000D01*
X16987000Y-6067000D02*
X16957000Y-6097000D01*
X16957000Y-6317000D02*
X16987000Y-6347000D01*
X16987000Y-6317000D02*
X16957000Y-6347000D01*
X17057000Y-5717000D02*
X17087000Y-5747000D01*
X17087000Y-5717000D02*
X17057000Y-5747000D01*
X17107000Y-11317000D02*
X17137000Y-11347000D01*
X17137000Y-11317000D02*
X17107000Y-11347000D01*
X17157000Y-5067000D02*
X17187000Y-5097000D01*
X17187000Y-5067000D02*
X17157000Y-5097000D01*
X17157000Y-10817000D02*
X17187000Y-10847000D01*
X17187000Y-10817000D02*
X17157000Y-10847000D01*
X17207000Y-10567000D02*
X17237000Y-10597000D01*
X17237000Y-10567000D02*
X17207000Y-10597000D01*
X17257000Y-9417000D02*
X17287000Y-9447000D01*
X17287000Y-9417000D02*
X17257000Y-9447000D01*
X17307000Y-9214500D02*
X17337000Y-9244500D01*
X17337000Y-9214500D02*
X17307000Y-9244500D01*
X17307000Y-11367000D02*
X17337000Y-11397000D01*
X17337000Y-11367000D02*
X17307000Y-11397000D01*
X17457000Y-12167000D02*
X17487000Y-12197000D01*
X17487000Y-12167000D02*
X17457000Y-12197000D01*
X17507000Y-6467000D02*
X17537000Y-6497000D01*
X17537000Y-6467000D02*
X17507000Y-6497000D01*
X17557000Y-9567000D02*
X17587000Y-9597000D01*
X17587000Y-9567000D02*
X17557000Y-9597000D01*
X17607000Y-9117000D02*
X17637000Y-9147000D01*
X17637000Y-9117000D02*
X17607000Y-9147000D01*
X17957000Y-8467000D02*
X17987000Y-8497000D01*
X17987000Y-8467000D02*
X17957000Y-8497000D01*
X18076900Y-4136900D02*
X18106900Y-4166900D01*
X18106900Y-4136900D02*
X18076900Y-4166900D01*
X18157000Y-8617000D02*
X18187000Y-8647000D01*
X18187000Y-8617000D02*
X18157000Y-8647000D01*
X18357000Y-9067000D02*
X18387000Y-9097000D01*
X18387000Y-9067000D02*
X18357000Y-9097000D01*
X18357000Y-9067000D02*
X18387000Y-9097000D01*
X18387000Y-9067000D02*
X18357000Y-9097000D01*
X18457000Y-12467000D02*
X18487000Y-12497000D01*
X18487000Y-12467000D02*
X18457000Y-12497000D01*
X18557000Y-12317000D02*
X18587000Y-12347000D01*
X18587000Y-12317000D02*
X18557000Y-12347000D01*
X19007000Y-5717000D02*
X19037000Y-5747000D01*
X19037000Y-5717000D02*
X19007000Y-5747000D01*
X19057000Y-6117000D02*
X19087000Y-6147000D01*
X19087000Y-6117000D02*
X19057000Y-6147000D01*
X19107000Y-6817000D02*
X19137000Y-6847000D01*
X19137000Y-6817000D02*
X19107000Y-6847000D01*
X19157000Y-6917000D02*
X19187000Y-6947000D01*
X19187000Y-6917000D02*
X19157000Y-6947000D01*
X19157000Y-7067000D02*
X19187000Y-7097000D01*
X19187000Y-7067000D02*
X19157000Y-7097000D01*
X19157000Y-8767000D02*
X19187000Y-8797000D01*
X19187000Y-8767000D02*
X19157000Y-8797000D01*
X19356181Y-9566181D02*
X19386181Y-9596181D01*
X19386181Y-9566181D02*
X19356181Y-9596181D01*
X19357000Y-9312181D02*
X19387000Y-9342181D01*
X19387000Y-9312181D02*
X19357000Y-9342181D01*
X19407000Y-4567000D02*
X19437000Y-4597000D01*
X19437000Y-4567000D02*
X19407000Y-4597000D01*
X19457000Y-7957864D02*
X19487000Y-7987864D01*
X19487000Y-7957864D02*
X19457000Y-7987864D01*
X19457000Y-8417000D02*
X19487000Y-8447000D01*
X19487000Y-8417000D02*
X19457000Y-8447000D01*
X19557000Y-5517000D02*
X19587000Y-5547000D01*
X19587000Y-5517000D02*
X19557000Y-5547000D01*
X19757000Y-5517000D02*
X19787000Y-5547000D01*
X19787000Y-5517000D02*
X19757000Y-5547000D01*
X19957000Y-5517000D02*
X19987000Y-5547000D01*
X19987000Y-5517000D02*
X19957000Y-5547000D01*
X20057000Y-6017000D02*
X20087000Y-6047000D01*
X20087000Y-6017000D02*
X20057000Y-6047000D01*
X20057000Y-7117000D02*
X20087000Y-7147000D01*
X20087000Y-7117000D02*
X20057000Y-7147000D01*
X20057000Y-8017000D02*
X20087000Y-8047000D01*
X20087000Y-8017000D02*
X20057000Y-8047000D01*
X20157000Y-5367000D02*
X20187000Y-5397000D01*
X20187000Y-5367000D02*
X20157000Y-5397000D01*
X20257000Y-9928981D02*
X20287000Y-9958981D01*
X20287000Y-9928981D02*
X20257000Y-9958981D01*
X20257000Y-10182981D02*
X20287000Y-10212981D01*
X20287000Y-10182981D02*
X20257000Y-10212981D01*
X20257000Y-10436981D02*
X20287000Y-10466981D01*
X20287000Y-10436981D02*
X20257000Y-10466981D01*
X20407000Y-9767000D02*
X20437000Y-9797000D01*
X20437000Y-9767000D02*
X20407000Y-9797000D01*
X20507000Y-7967000D02*
X20537000Y-7997000D01*
X20537000Y-7967000D02*
X20507000Y-7997000D01*
X20537981Y-8797981D02*
X20567981Y-8827981D01*
X20567981Y-8797981D02*
X20537981Y-8827981D01*
X20707000Y-5817000D02*
X20737000Y-5847000D01*
X20737000Y-5817000D02*
X20707000Y-5847000D01*
X21007000Y-5317000D02*
X21037000Y-5347000D01*
X21037000Y-5317000D02*
X21007000Y-5347000D01*
X21257000Y-5217000D02*
X21287000Y-5247000D01*
X21287000Y-5217000D02*
X21257000Y-5247000D01*
X21307000Y-5617000D02*
X21337000Y-5647000D01*
X21337000Y-5617000D02*
X21307000Y-5647000D01*
X21457000Y-6317000D02*
X21487000Y-6347000D01*
X21487000Y-6317000D02*
X21457000Y-6347000D01*
X21507000Y-5567000D02*
X21537000Y-5597000D01*
X21537000Y-5567000D02*
X21507000Y-5597000D01*
X21507000Y-6667000D02*
X21537000Y-6697000D01*
X21537000Y-6667000D02*
X21507000Y-6697000D01*
X21557000Y-6767000D02*
X21587000Y-6797000D01*
X21587000Y-6767000D02*
X21557000Y-6797000D01*
X21557000Y-7617000D02*
X21587000Y-7647000D01*
X21587000Y-7617000D02*
X21557000Y-7647000D01*
X21607000Y-7217000D02*
X21637000Y-7247000D01*
X21637000Y-7217000D02*
X21607000Y-7247000D01*
X21707000Y-13167000D02*
X21737000Y-13197000D01*
X21737000Y-13167000D02*
X21707000Y-13197000D01*
X21807000Y-5317000D02*
X21837000Y-5347000D01*
X21837000Y-5317000D02*
X21807000Y-5347000D01*
X21857000Y-5617000D02*
X21887000Y-5647000D01*
X21887000Y-5617000D02*
X21857000Y-5647000D01*
X21907000Y-7017000D02*
X21937000Y-7047000D01*
X21937000Y-7017000D02*
X21907000Y-7047000D01*
X22007000Y-5417000D02*
X22037000Y-5447000D01*
X22037000Y-5417000D02*
X22007000Y-5447000D01*
X22007000Y-7167000D02*
X22037000Y-7197000D01*
X22037000Y-7167000D02*
X22007000Y-7197000D01*
X22017000Y-6667000D02*
X22047000Y-6697000D01*
X22047000Y-6667000D02*
X22017000Y-6697000D01*
X22107000Y-7367000D02*
X22137000Y-7397000D01*
X22137000Y-7367000D02*
X22107000Y-7397000D01*
X22207000Y-9917000D02*
X22237000Y-9947000D01*
X22237000Y-9917000D02*
X22207000Y-9947000D01*
X22461783Y-12612217D02*
X22491783Y-12642217D01*
X22491783Y-12612217D02*
X22461783Y-12642217D01*
X22557000Y-10367000D02*
X22587000Y-10397000D01*
X22587000Y-10367000D02*
X22557000Y-10397000D01*
X22707000Y-7917000D02*
X22737000Y-7947000D01*
X22737000Y-7917000D02*
X22707000Y-7947000D01*
X22707000Y-10517000D02*
X22737000Y-10547000D01*
X22737000Y-10517000D02*
X22707000Y-10547000D01*
X22907000Y-7617000D02*
X22937000Y-7647000D01*
X22937000Y-7617000D02*
X22907000Y-7647000D01*
X23007000Y-6667000D02*
X23037000Y-6697000D01*
X23037000Y-6667000D02*
X23007000Y-6697000D01*
X23007000Y-9117000D02*
X23037000Y-9147000D01*
X23037000Y-9117000D02*
X23007000Y-9147000D01*
X23157000Y-11467000D02*
X23187000Y-11497000D01*
X23187000Y-11467000D02*
X23157000Y-11497000D01*
X23173555Y-7667000D02*
X23203555Y-7697000D01*
X23203555Y-7667000D02*
X23173555Y-7697000D01*
X23207000Y-12467000D02*
X23237000Y-12497000D01*
X23237000Y-12467000D02*
X23207000Y-12497000D01*
X23257000Y-6367000D02*
X23287000Y-6397000D01*
X23287000Y-6367000D02*
X23257000Y-6397000D01*
X23357000Y-12667000D02*
X23387000Y-12697000D01*
X23387000Y-12667000D02*
X23357000Y-12697000D01*
X23357000Y-12817000D02*
X23387000Y-12847000D01*
X23387000Y-12817000D02*
X23357000Y-12847000D01*
X23357000Y-13017000D02*
X23387000Y-13047000D01*
X23387000Y-13017000D02*
X23357000Y-13047000D01*
X23407000Y-4617000D02*
X23437000Y-4647000D01*
X23437000Y-4617000D02*
X23407000Y-4647000D01*
X23407000Y-9517000D02*
X23437000Y-9547000D01*
X23437000Y-9517000D02*
X23407000Y-9547000D01*
X23507000Y-6317000D02*
X23537000Y-6347000D01*
X23537000Y-6317000D02*
X23507000Y-6347000D01*
X23507000Y-8867000D02*
X23537000Y-8897000D01*
X23537000Y-8867000D02*
X23507000Y-8897000D01*
X23607000Y-6867000D02*
X23637000Y-6897000D01*
X23637000Y-6867000D02*
X23607000Y-6897000D01*
X23607000Y-9617000D02*
X23637000Y-9647000D01*
X23637000Y-9617000D02*
X23607000Y-9647000D01*
X23657000Y-12517000D02*
X23687000Y-12547000D01*
X23687000Y-12517000D02*
X23657000Y-12547000D01*
X23830000Y-12117000D02*
X23860000Y-12147000D01*
X23860000Y-12117000D02*
X23830000Y-12147000D01*
X24007000Y-7367000D02*
X24037000Y-7397000D01*
X24037000Y-7367000D02*
X24007000Y-7397000D01*
X24057000Y-4567000D02*
X24087000Y-4597000D01*
X24087000Y-4567000D02*
X24057000Y-4597000D01*
X24157000Y-6867000D02*
X24187000Y-6897000D01*
X24187000Y-6867000D02*
X24157000Y-6897000D01*
X15765000Y-12843000D02*
G75*
G02*
X15715000Y-12843000I-25000J0D01*
G01*
X15715000Y-12843000D02*
G75*
G02*
X15765000Y-12843000I25000J0D01*
G01*
X15817000Y-3882000D02*
G75*
G02*
X15767000Y-3882000I-25000J0D01*
G01*
X15767000Y-3882000D02*
G75*
G02*
X15817000Y-3882000I25000J0D01*
G01*
X15835294Y-12673294D02*
G75*
G02*
X15785294Y-12673294I-25000J0D01*
G01*
X15785294Y-12673294D02*
G75*
G02*
X15835294Y-12673294I25000J0D01*
G01*
X15835294Y-13012706D02*
G75*
G02*
X15785294Y-13012706I-25000J0D01*
G01*
X15785294Y-13012706D02*
G75*
G02*
X15835294Y-13012706I25000J0D01*
G01*
X15887294Y-3712294D02*
G75*
G02*
X15837294Y-3712294I-25000J0D01*
G01*
X15837294Y-3712294D02*
G75*
G02*
X15887294Y-3712294I25000J0D01*
G01*
X15887294Y-4051706D02*
G75*
G02*
X15837294Y-4051706I-25000J0D01*
G01*
X15837294Y-4051706D02*
G75*
G02*
X15887294Y-4051706I25000J0D01*
G01*
X16005000Y-12603000D02*
G75*
G02*
X15955000Y-12603000I-25000J0D01*
G01*
X15955000Y-12603000D02*
G75*
G02*
X16005000Y-12603000I25000J0D01*
G01*
X16005000Y-13083000D02*
G75*
G02*
X15955000Y-13083000I-25000J0D01*
G01*
X15955000Y-13083000D02*
G75*
G02*
X16005000Y-13083000I25000J0D01*
G01*
X16057000Y-3642000D02*
G75*
G02*
X16007000Y-3642000I-25000J0D01*
G01*
X16007000Y-3642000D02*
G75*
G02*
X16057000Y-3642000I25000J0D01*
G01*
X16057000Y-4122000D02*
G75*
G02*
X16007000Y-4122000I-25000J0D01*
G01*
X16007000Y-4122000D02*
G75*
G02*
X16057000Y-4122000I25000J0D01*
G01*
X16174706Y-12673294D02*
G75*
G02*
X16124706Y-12673294I-25000J0D01*
G01*
X16124706Y-12673294D02*
G75*
G02*
X16174706Y-12673294I25000J0D01*
G01*
X16174706Y-13012706D02*
G75*
G02*
X16124706Y-13012706I-25000J0D01*
G01*
X16124706Y-13012706D02*
G75*
G02*
X16174706Y-13012706I25000J0D01*
G01*
X16226706Y-3712294D02*
G75*
G02*
X16176706Y-3712294I-25000J0D01*
G01*
X16176706Y-3712294D02*
G75*
G02*
X16226706Y-3712294I25000J0D01*
G01*
X16226706Y-4051706D02*
G75*
G02*
X16176706Y-4051706I-25000J0D01*
G01*
X16176706Y-4051706D02*
G75*
G02*
X16226706Y-4051706I25000J0D01*
G01*
X16245000Y-12843000D02*
G75*
G02*
X16195000Y-12843000I-25000J0D01*
G01*
X16195000Y-12843000D02*
G75*
G02*
X16245000Y-12843000I25000J0D01*
G01*
X16297000Y-3882000D02*
G75*
G02*
X16247000Y-3882000I-25000J0D01*
G01*
X16247000Y-3882000D02*
G75*
G02*
X16297000Y-3882000I25000J0D01*
G01*
X24717000Y-12843000D02*
G75*
G02*
X24667000Y-12843000I-25000J0D01*
G01*
X24667000Y-12843000D02*
G75*
G02*
X24717000Y-12843000I25000J0D01*
G01*
X24749000Y-3859000D02*
G75*
G02*
X24699000Y-3859000I-25000J0D01*
G01*
X24699000Y-3859000D02*
G75*
G02*
X24749000Y-3859000I25000J0D01*
G01*
X24787294Y-12673294D02*
G75*
G02*
X24737294Y-12673294I-25000J0D01*
G01*
X24737294Y-12673294D02*
G75*
G02*
X24787294Y-12673294I25000J0D01*
G01*
X24787294Y-13012706D02*
G75*
G02*
X24737294Y-13012706I-25000J0D01*
G01*
X24737294Y-13012706D02*
G75*
G02*
X24787294Y-13012706I25000J0D01*
G01*
X24819294Y-3689294D02*
G75*
G02*
X24769294Y-3689294I-25000J0D01*
G01*
X24769294Y-3689294D02*
G75*
G02*
X24819294Y-3689294I25000J0D01*
G01*
X24819294Y-4028706D02*
G75*
G02*
X24769294Y-4028706I-25000J0D01*
G01*
X24769294Y-4028706D02*
G75*
G02*
X24819294Y-4028706I25000J0D01*
G01*
X24957000Y-12603000D02*
G75*
G02*
X24907000Y-12603000I-25000J0D01*
G01*
X24907000Y-12603000D02*
G75*
G02*
X24957000Y-12603000I25000J0D01*
G01*
X24957000Y-13083000D02*
G75*
G02*
X24907000Y-13083000I-25000J0D01*
G01*
X24907000Y-13083000D02*
G75*
G02*
X24957000Y-13083000I25000J0D01*
G01*
X24989000Y-3619000D02*
G75*
G02*
X24939000Y-3619000I-25000J0D01*
G01*
X24939000Y-3619000D02*
G75*
G02*
X24989000Y-3619000I25000J0D01*
G01*
X24989000Y-4099000D02*
G75*
G02*
X24939000Y-4099000I-25000J0D01*
G01*
X24939000Y-4099000D02*
G75*
G02*
X24989000Y-4099000I25000J0D01*
G01*
X25126706Y-12673294D02*
G75*
G02*
X25076706Y-12673294I-25000J0D01*
G01*
X25076706Y-12673294D02*
G75*
G02*
X25126706Y-12673294I25000J0D01*
G01*
X25126706Y-13012706D02*
G75*
G02*
X25076706Y-13012706I-25000J0D01*
G01*
X25076706Y-13012706D02*
G75*
G02*
X25126706Y-13012706I25000J0D01*
G01*
X25158706Y-3689294D02*
G75*
G02*
X25108706Y-3689294I-25000J0D01*
G01*
X25108706Y-3689294D02*
G75*
G02*
X25158706Y-3689294I25000J0D01*
G01*
X25158706Y-4028706D02*
G75*
G02*
X25108706Y-4028706I-25000J0D01*
G01*
X25108706Y-4028706D02*
G75*
G02*
X25158706Y-4028706I25000J0D01*
G01*
X25197000Y-12843000D02*
G75*
G02*
X25147000Y-12843000I-25000J0D01*
G01*
X25147000Y-12843000D02*
G75*
G02*
X25197000Y-12843000I25000J0D01*
G01*
X25229000Y-3859000D02*
G75*
G02*
X25179000Y-3859000I-25000J0D01*
G01*
X25179000Y-3859000D02*
G75*
G02*
X25229000Y-3859000I25000J0D01*
G01*
X18172000Y-9802000D02*
X18172000Y-9862000D01*
X18142000Y-9832000D02*
X18202000Y-9832000D01*
X18172000Y-9952000D02*
X18172000Y-10012000D01*
X18142000Y-9982000D02*
X18202000Y-9982000D01*
X18172000Y-10352000D02*
X18172000Y-10412000D01*
X18142000Y-10382000D02*
X18202000Y-10382000D01*
X18172000Y-10502000D02*
X18172000Y-10562000D01*
X18142000Y-10532000D02*
X18202000Y-10532000D01*
X18172000Y-10927000D02*
X18172000Y-10987000D01*
X18142000Y-10957000D02*
X18202000Y-10957000D01*
X18172000Y-11077000D02*
X18172000Y-11137000D01*
X18142000Y-11107000D02*
X18202000Y-11107000D01*
X18172000Y-11502000D02*
X18172000Y-11562000D01*
X18142000Y-11532000D02*
X18202000Y-11532000D01*
X18172000Y-11652000D02*
X18172000Y-11712000D01*
X18142000Y-11682000D02*
X18202000Y-11682000D01*
X18807531Y-8956266D02*
X18807531Y-8899697D01*
X18750962Y-8899697D01*
X18750962Y-8956266D01*
X18807531Y-8956266D01*
X18807531Y-9210266D02*
X18807531Y-9153697D01*
X18750962Y-9153697D01*
X18750962Y-9210266D01*
X18807531Y-9210266D01*
X18807531Y-9464266D02*
X18807531Y-9407697D01*
X18750962Y-9407697D01*
X18750962Y-9464266D01*
X18807531Y-9464266D01*
X18807531Y-9718266D02*
X18807531Y-9661697D01*
X18750962Y-9661697D01*
X18750962Y-9718266D01*
X18807531Y-9718266D01*
X18807531Y-9972266D02*
X18807531Y-9915697D01*
X18750962Y-9915697D01*
X18750962Y-9972266D01*
X18807531Y-9972266D01*
X18807531Y-10226266D02*
X18807531Y-10169697D01*
X18750962Y-10169697D01*
X18750962Y-10226266D01*
X18807531Y-10226266D01*
X18807531Y-10480266D02*
X18807531Y-10423697D01*
X18750962Y-10423697D01*
X18750962Y-10480266D01*
X18807531Y-10480266D01*
X18807531Y-10734266D02*
X18807531Y-10677697D01*
X18750962Y-10677697D01*
X18750962Y-10734266D01*
X18807531Y-10734266D01*
X18807531Y-10988266D02*
X18807531Y-10931697D01*
X18750962Y-10931697D01*
X18750962Y-10988266D01*
X18807531Y-10988266D01*
X18807531Y-11242266D02*
X18807531Y-11185697D01*
X18750962Y-11185697D01*
X18750962Y-11242266D01*
X18807531Y-11242266D01*
X18807531Y-11496266D02*
X18807531Y-11439697D01*
X18750962Y-11439697D01*
X18750962Y-11496266D01*
X18807531Y-11496266D01*
X18807531Y-11750266D02*
X18807531Y-11693697D01*
X18750962Y-11693697D01*
X18750962Y-11750266D01*
X18807531Y-11750266D01*
X18807531Y-12004266D02*
X18807531Y-11947697D01*
X18750962Y-11947697D01*
X18750962Y-12004266D01*
X18807531Y-12004266D01*
X18807531Y-12258266D02*
X18807531Y-12201697D01*
X18750962Y-12201697D01*
X18750962Y-12258266D01*
X18807531Y-12258266D01*
X18807531Y-12512266D02*
X18807531Y-12455697D01*
X18750962Y-12455697D01*
X18750962Y-12512266D01*
X18807531Y-12512266D01*
X21347531Y-8956266D02*
X21347531Y-8899697D01*
X21290962Y-8899697D01*
X21290962Y-8956266D01*
X21347531Y-8956266D01*
X21347531Y-9210266D02*
X21347531Y-9153697D01*
X21290962Y-9153697D01*
X21290962Y-9210266D01*
X21347531Y-9210266D01*
X21347531Y-9464266D02*
X21347531Y-9407697D01*
X21290962Y-9407697D01*
X21290962Y-9464266D01*
X21347531Y-9464266D01*
X21347531Y-9718266D02*
X21347531Y-9661697D01*
X21290962Y-9661697D01*
X21290962Y-9718266D01*
X21347531Y-9718266D01*
X21347531Y-9972266D02*
X21347531Y-9915697D01*
X21290962Y-9915697D01*
X21290962Y-9972266D01*
X21347531Y-9972266D01*
X21347531Y-10226266D02*
X21347531Y-10169697D01*
X21290962Y-10169697D01*
X21290962Y-10226266D01*
X21347531Y-10226266D01*
X21347531Y-10480266D02*
X21347531Y-10423697D01*
X21290962Y-10423697D01*
X21290962Y-10480266D01*
X21347531Y-10480266D01*
X21347531Y-10734266D02*
X21347531Y-10677697D01*
X21290962Y-10677697D01*
X21290962Y-10734266D01*
X21347531Y-10734266D01*
X21347531Y-10988266D02*
X21347531Y-10931697D01*
X21290962Y-10931697D01*
X21290962Y-10988266D01*
X21347531Y-10988266D01*
X21347531Y-11242266D02*
X21347531Y-11185697D01*
X21290962Y-11185697D01*
X21290962Y-11242266D01*
X21347531Y-11242266D01*
X21347531Y-11496266D02*
X21347531Y-11439697D01*
X21290962Y-11439697D01*
X21290962Y-11496266D01*
X21347531Y-11496266D01*
X21347531Y-11750266D02*
X21347531Y-11693697D01*
X21290962Y-11693697D01*
X21290962Y-11750266D01*
X21347531Y-11750266D01*
X21347531Y-12004266D02*
X21347531Y-11947697D01*
X21290962Y-11947697D01*
X21290962Y-12004266D01*
X21347531Y-12004266D01*
X21347531Y-12258266D02*
X21347531Y-12201697D01*
X21290962Y-12201697D01*
X21290962Y-12258266D01*
X21347531Y-12258266D01*
X21347531Y-12512266D02*
X21347531Y-12455697D01*
X21290962Y-12455697D01*
X21290962Y-12512266D01*
X21347531Y-12512266D01*
X24122000Y-3673000D02*
X24167000Y-3628000D01*
X24122000Y-3583000D01*
X24077000Y-3628000D01*
X24122000Y-3673000D01*
X24122000Y-3927000D02*
X24167000Y-3882000D01*
X24122000Y-3837000D01*
X24077000Y-3882000D01*
X24122000Y-3927000D01*
X24972000Y-4649500D02*
X25017000Y-4604500D01*
X24972000Y-4559500D01*
X24927000Y-4604500D01*
X24972000Y-4649500D01*
X24972000Y-4903500D02*
X25017000Y-4858500D01*
X24972000Y-4813500D01*
X24927000Y-4858500D01*
X24972000Y-4903500D01*
X18720650Y-4930650D02*
X18820650Y-5030650D01*
X18820650Y-4930650D02*
X18720650Y-5030650D01*
X18820650Y-4980650D02*
G75*
G02*
X18720650Y-4980650I-50000J0D01*
G01*
X18720650Y-4980650D02*
G75*
G02*
X18820650Y-4980650I50000J0D01*
G01*
X21022000Y-7932000D02*
X21122000Y-8032000D01*
X21122000Y-7932000D02*
X21022000Y-8032000D01*
X21122000Y-7982000D02*
G75*
G02*
X21022000Y-7982000I-50000J0D01*
G01*
X21022000Y-7982000D02*
G75*
G02*
X21122000Y-7982000I50000J0D01*
G01*
X21622000Y-8082000D02*
X21722000Y-8182000D01*
X21722000Y-8082000D02*
X21622000Y-8182000D01*
X21722000Y-8132000D02*
G75*
G02*
X21622000Y-8132000I-50000J0D01*
G01*
X21622000Y-8132000D02*
G75*
G02*
X21722000Y-8132000I50000J0D01*
G01*
X21872000Y-8082000D02*
X21972000Y-8182000D01*
X21972000Y-8082000D02*
X21872000Y-8182000D01*
X21972000Y-8132000D02*
G75*
G02*
X21872000Y-8132000I-50000J0D01*
G01*
X21872000Y-8132000D02*
G75*
G02*
X21972000Y-8132000I50000J0D01*
G01*
X22072000Y-4682000D02*
X22172000Y-4782000D01*
X22172000Y-4682000D02*
X22072000Y-4782000D01*
X22172000Y-4732000D02*
G75*
G02*
X22072000Y-4732000I-50000J0D01*
G01*
X22072000Y-4732000D02*
G75*
G02*
X22172000Y-4732000I50000J0D01*
G01*
X22122000Y-8082000D02*
X22222000Y-8182000D01*
X22222000Y-8082000D02*
X22122000Y-8182000D01*
X22222000Y-8132000D02*
G75*
G02*
X22122000Y-8132000I-50000J0D01*
G01*
X22122000Y-8132000D02*
G75*
G02*
X22222000Y-8132000I50000J0D01*
G01*
X22622000Y-4732000D02*
X22722000Y-4832000D01*
X22722000Y-4732000D02*
X22622000Y-4832000D01*
X22722000Y-4782000D02*
G75*
G02*
X22622000Y-4782000I-50000J0D01*
G01*
X22622000Y-4782000D02*
G75*
G02*
X22722000Y-4782000I50000J0D01*
G01*
X22822000Y-4832000D02*
X22922000Y-4932000D01*
X22922000Y-4832000D02*
X22822000Y-4932000D01*
X22922000Y-4882000D02*
G75*
G02*
X22822000Y-4882000I-50000J0D01*
G01*
X22822000Y-4882000D02*
G75*
G02*
X22922000Y-4882000I50000J0D01*
G01*
X18093250Y-7052750D02*
X18193250Y-7152750D01*
X18193250Y-7052750D02*
X18093250Y-7152750D01*
X18143250Y-7052750D02*
X18143250Y-7152750D01*
X18093250Y-7102750D02*
X18193250Y-7102750D01*
X18347250Y-7052750D02*
X18447250Y-7152750D01*
X18447250Y-7052750D02*
X18347250Y-7152750D01*
X18397250Y-7052750D02*
X18397250Y-7152750D01*
X18347250Y-7102750D02*
X18447250Y-7102750D01*
X18601250Y-7052750D02*
X18701250Y-7152750D01*
X18701250Y-7052750D02*
X18601250Y-7152750D01*
X18651250Y-7052750D02*
X18651250Y-7152750D01*
X18601250Y-7102750D02*
X18701250Y-7102750D01*
X18729246Y-8877981D02*
X18829246Y-8977981D01*
X18829246Y-8877981D02*
X18729246Y-8977981D01*
X18779246Y-8877981D02*
X18779246Y-8977981D01*
X18729246Y-8927981D02*
X18829246Y-8927981D01*
X18729246Y-9131981D02*
X18829246Y-9231981D01*
X18829246Y-9131981D02*
X18729246Y-9231981D01*
X18779246Y-9131981D02*
X18779246Y-9231981D01*
X18729246Y-9181981D02*
X18829246Y-9181981D01*
X18729246Y-9385981D02*
X18829246Y-9485981D01*
X18829246Y-9385981D02*
X18729246Y-9485981D01*
X18779246Y-9385981D02*
X18779246Y-9485981D01*
X18729246Y-9435981D02*
X18829246Y-9435981D01*
X18729246Y-9639981D02*
X18829246Y-9739981D01*
X18829246Y-9639981D02*
X18729246Y-9739981D01*
X18779246Y-9639981D02*
X18779246Y-9739981D01*
X18729246Y-9689981D02*
X18829246Y-9689981D01*
X18729246Y-9893981D02*
X18829246Y-9993981D01*
X18829246Y-9893981D02*
X18729246Y-9993981D01*
X18779246Y-9893981D02*
X18779246Y-9993981D01*
X18729246Y-9943981D02*
X18829246Y-9943981D01*
X18729246Y-10147981D02*
X18829246Y-10247981D01*
X18829246Y-10147981D02*
X18729246Y-10247981D01*
X18779246Y-10147981D02*
X18779246Y-10247981D01*
X18729246Y-10197981D02*
X18829246Y-10197981D01*
X18729246Y-10401981D02*
X18829246Y-10501981D01*
X18829246Y-10401981D02*
X18729246Y-10501981D01*
X18779246Y-10401981D02*
X18779246Y-10501981D01*
X18729246Y-10451981D02*
X18829246Y-10451981D01*
X18729246Y-10655981D02*
X18829246Y-10755981D01*
X18829246Y-10655981D02*
X18729246Y-10755981D01*
X18779246Y-10655981D02*
X18779246Y-10755981D01*
X18729246Y-10705981D02*
X18829246Y-10705981D01*
X18729246Y-10909981D02*
X18829246Y-11009981D01*
X18829246Y-10909981D02*
X18729246Y-11009981D01*
X18779246Y-10909981D02*
X18779246Y-11009981D01*
X18729246Y-10959981D02*
X18829246Y-10959981D01*
X18729246Y-11163981D02*
X18829246Y-11263981D01*
X18829246Y-11163981D02*
X18729246Y-11263981D01*
X18779246Y-11163981D02*
X18779246Y-11263981D01*
X18729246Y-11213981D02*
X18829246Y-11213981D01*
X18729246Y-11417981D02*
X18829246Y-11517981D01*
X18829246Y-11417981D02*
X18729246Y-11517981D01*
X18779246Y-11417981D02*
X18779246Y-11517981D01*
X18729246Y-11467981D02*
X18829246Y-11467981D01*
X18729246Y-11671981D02*
X18829246Y-11771981D01*
X18829246Y-11671981D02*
X18729246Y-11771981D01*
X18779246Y-11671981D02*
X18779246Y-11771981D01*
X18729246Y-11721981D02*
X18829246Y-11721981D01*
X18729246Y-11925981D02*
X18829246Y-12025981D01*
X18829246Y-11925981D02*
X18729246Y-12025981D01*
X18779246Y-11925981D02*
X18779246Y-12025981D01*
X18729246Y-11975981D02*
X18829246Y-11975981D01*
X18729246Y-12179981D02*
X18829246Y-12279981D01*
X18829246Y-12179981D02*
X18729246Y-12279981D01*
X18779246Y-12179981D02*
X18779246Y-12279981D01*
X18729246Y-12229981D02*
X18829246Y-12229981D01*
X18729246Y-12433981D02*
X18829246Y-12533981D01*
X18829246Y-12433981D02*
X18729246Y-12533981D01*
X18779246Y-12433981D02*
X18779246Y-12533981D01*
X18729246Y-12483981D02*
X18829246Y-12483981D01*
X21269246Y-8877981D02*
X21369246Y-8977981D01*
X21369246Y-8877981D02*
X21269246Y-8977981D01*
X21319246Y-8877981D02*
X21319246Y-8977981D01*
X21269246Y-8927981D02*
X21369246Y-8927981D01*
X21269246Y-9131981D02*
X21369246Y-9231981D01*
X21369246Y-9131981D02*
X21269246Y-9231981D01*
X21319246Y-9131981D02*
X21319246Y-9231981D01*
X21269246Y-9181981D02*
X21369246Y-9181981D01*
X21269246Y-9385981D02*
X21369246Y-9485981D01*
X21369246Y-9385981D02*
X21269246Y-9485981D01*
X21319246Y-9385981D02*
X21319246Y-9485981D01*
X21269246Y-9435981D02*
X21369246Y-9435981D01*
X21269246Y-9639981D02*
X21369246Y-9739981D01*
X21369246Y-9639981D02*
X21269246Y-9739981D01*
X21319246Y-9639981D02*
X21319246Y-9739981D01*
X21269246Y-9689981D02*
X21369246Y-9689981D01*
X21269246Y-9893981D02*
X21369246Y-9993981D01*
X21369246Y-9893981D02*
X21269246Y-9993981D01*
X21319246Y-9893981D02*
X21319246Y-9993981D01*
X21269246Y-9943981D02*
X21369246Y-9943981D01*
X21269246Y-10147981D02*
X21369246Y-10247981D01*
X21369246Y-10147981D02*
X21269246Y-10247981D01*
X21319246Y-10147981D02*
X21319246Y-10247981D01*
X21269246Y-10197981D02*
X21369246Y-10197981D01*
X21269246Y-10401981D02*
X21369246Y-10501981D01*
X21369246Y-10401981D02*
X21269246Y-10501981D01*
X21319246Y-10401981D02*
X21319246Y-10501981D01*
X21269246Y-10451981D02*
X21369246Y-10451981D01*
X21269246Y-10655981D02*
X21369246Y-10755981D01*
X21369246Y-10655981D02*
X21269246Y-10755981D01*
X21319246Y-10655981D02*
X21319246Y-10755981D01*
X21269246Y-10705981D02*
X21369246Y-10705981D01*
X21269246Y-10909981D02*
X21369246Y-11009981D01*
X21369246Y-10909981D02*
X21269246Y-11009981D01*
X21319246Y-10909981D02*
X21319246Y-11009981D01*
X21269246Y-10959981D02*
X21369246Y-10959981D01*
X21269246Y-11163981D02*
X21369246Y-11263981D01*
X21369246Y-11163981D02*
X21269246Y-11263981D01*
X21319246Y-11163981D02*
X21319246Y-11263981D01*
X21269246Y-11213981D02*
X21369246Y-11213981D01*
X21269246Y-11417981D02*
X21369246Y-11517981D01*
X21369246Y-11417981D02*
X21269246Y-11517981D01*
X21319246Y-11417981D02*
X21319246Y-11517981D01*
X21269246Y-11467981D02*
X21369246Y-11467981D01*
X21269246Y-11671981D02*
X21369246Y-11771981D01*
X21369246Y-11671981D02*
X21269246Y-11771981D01*
X21319246Y-11671981D02*
X21319246Y-11771981D01*
X21269246Y-11721981D02*
X21369246Y-11721981D01*
X21269246Y-11925981D02*
X21369246Y-12025981D01*
X21369246Y-11925981D02*
X21269246Y-12025981D01*
X21319246Y-11925981D02*
X21319246Y-12025981D01*
X21269246Y-11975981D02*
X21369246Y-11975981D01*
X21269246Y-12179981D02*
X21369246Y-12279981D01*
X21369246Y-12179981D02*
X21269246Y-12279981D01*
X21319246Y-12179981D02*
X21319246Y-12279981D01*
X21269246Y-12229981D02*
X21369246Y-12229981D01*
X21269246Y-12433981D02*
X21369246Y-12533981D01*
X21369246Y-12433981D02*
X21269246Y-12533981D01*
X21319246Y-12433981D02*
X21319246Y-12533981D01*
X21269246Y-12483981D02*
X21369246Y-12483981D01*
X22410000Y-8140000D02*
X22510000Y-8240000D01*
X22510000Y-8140000D02*
X22410000Y-8240000D01*
X22460000Y-8140000D02*
X22460000Y-8240000D01*
X22410000Y-8190000D02*
X22510000Y-8190000D01*
X22410000Y-11696000D02*
X22510000Y-11796000D01*
X22510000Y-11696000D02*
X22410000Y-11796000D01*
X22460000Y-11696000D02*
X22460000Y-11796000D01*
X22410000Y-11746000D02*
X22510000Y-11746000D01*
X22664000Y-8140000D02*
X22764000Y-8240000D01*
X22764000Y-8140000D02*
X22664000Y-8240000D01*
X22714000Y-8140000D02*
X22714000Y-8240000D01*
X22664000Y-8190000D02*
X22764000Y-8190000D01*
X22664000Y-11696000D02*
X22764000Y-11796000D01*
X22764000Y-11696000D02*
X22664000Y-11796000D01*
X22714000Y-11696000D02*
X22714000Y-11796000D01*
X22664000Y-11746000D02*
X22764000Y-11746000D01*
X22918000Y-8140000D02*
X23018000Y-8240000D01*
X23018000Y-8140000D02*
X22918000Y-8240000D01*
X22968000Y-8140000D02*
X22968000Y-8240000D01*
X22918000Y-8190000D02*
X23018000Y-8190000D01*
X22918000Y-11696000D02*
X23018000Y-11796000D01*
X23018000Y-11696000D02*
X22918000Y-11796000D01*
X22968000Y-11696000D02*
X22968000Y-11796000D01*
X22918000Y-11746000D02*
X23018000Y-11746000D01*
X23172000Y-8140000D02*
X23272000Y-8240000D01*
X23272000Y-8140000D02*
X23172000Y-8240000D01*
X23222000Y-8140000D02*
X23222000Y-8240000D01*
X23172000Y-8190000D02*
X23272000Y-8190000D01*
X23172000Y-11696000D02*
X23272000Y-11796000D01*
X23272000Y-11696000D02*
X23172000Y-11796000D01*
X23222000Y-11696000D02*
X23222000Y-11796000D01*
X23172000Y-11746000D02*
X23272000Y-11746000D01*
X23426000Y-8140000D02*
X23526000Y-8240000D01*
X23526000Y-8140000D02*
X23426000Y-8240000D01*
X23476000Y-8140000D02*
X23476000Y-8240000D01*
X23426000Y-8190000D02*
X23526000Y-8190000D01*
X23426000Y-11696000D02*
X23526000Y-11796000D01*
X23526000Y-11696000D02*
X23426000Y-11796000D01*
X23476000Y-11696000D02*
X23476000Y-11796000D01*
X23426000Y-11746000D02*
X23526000Y-11746000D01*
X23680000Y-8140000D02*
X23780000Y-8240000D01*
X23780000Y-8140000D02*
X23680000Y-8240000D01*
X23730000Y-8140000D02*
X23730000Y-8240000D01*
X23680000Y-8190000D02*
X23780000Y-8190000D01*
X23680000Y-11696000D02*
X23780000Y-11796000D01*
X23780000Y-11696000D02*
X23680000Y-11796000D01*
X23730000Y-11696000D02*
X23730000Y-11796000D01*
X23680000Y-11746000D02*
X23780000Y-11746000D01*
X23934000Y-8140000D02*
X24034000Y-8240000D01*
X24034000Y-8140000D02*
X23934000Y-8240000D01*
X23984000Y-8140000D02*
X23984000Y-8240000D01*
X23934000Y-8190000D02*
X24034000Y-8190000D01*
X23934000Y-11696000D02*
X24034000Y-11796000D01*
X24034000Y-11696000D02*
X23934000Y-11796000D01*
X23984000Y-11696000D02*
X23984000Y-11796000D01*
X23934000Y-11746000D02*
X24034000Y-11746000D01*
X24188000Y-8140000D02*
X24288000Y-8240000D01*
X24288000Y-8140000D02*
X24188000Y-8240000D01*
X24238000Y-8140000D02*
X24238000Y-8240000D01*
X24188000Y-8190000D02*
X24288000Y-8190000D01*
X24188000Y-11696000D02*
X24288000Y-11796000D01*
X24288000Y-11696000D02*
X24188000Y-11796000D01*
X24238000Y-11696000D02*
X24238000Y-11796000D01*
X24188000Y-11746000D02*
X24288000Y-11746000D01*
X24442000Y-8140000D02*
X24542000Y-8240000D01*
X24542000Y-8140000D02*
X24442000Y-8240000D01*
X24492000Y-8140000D02*
X24492000Y-8240000D01*
X24442000Y-8190000D02*
X24542000Y-8190000D01*
X24442000Y-11696000D02*
X24542000Y-11796000D01*
X24542000Y-11696000D02*
X24442000Y-11796000D01*
X24492000Y-11696000D02*
X24492000Y-11796000D01*
X24442000Y-11746000D02*
X24542000Y-11746000D01*
X24696000Y-8140000D02*
X24796000Y-8240000D01*
X24796000Y-8140000D02*
X24696000Y-8240000D01*
X24746000Y-8140000D02*
X24746000Y-8240000D01*
X24696000Y-8190000D02*
X24796000Y-8190000D01*
X24696000Y-11696000D02*
X24796000Y-11796000D01*
X24796000Y-11696000D02*
X24696000Y-11796000D01*
X24746000Y-11696000D02*
X24746000Y-11796000D01*
X24696000Y-11746000D02*
X24796000Y-11746000D01*
X24950000Y-8140000D02*
X25050000Y-8240000D01*
X25050000Y-8140000D02*
X24950000Y-8240000D01*
X25000000Y-8140000D02*
X25000000Y-8240000D01*
X24950000Y-8190000D02*
X25050000Y-8190000D01*
X24950000Y-11696000D02*
X25050000Y-11796000D01*
X25050000Y-11696000D02*
X24950000Y-11796000D01*
X25000000Y-11696000D02*
X25000000Y-11796000D01*
X24950000Y-11746000D02*
X25050000Y-11746000D01*
D13*
X15957000Y-7067000D02*
X16087000Y-7197000D01*
X16087000Y-7067000D02*
X15957000Y-7197000D01*
X16067962Y-7177962D02*
X16067962Y-7086038D01*
X15976038Y-7086038D01*
X15976038Y-7177962D01*
X16067962Y-7177962D01*
X15957000Y-7717000D02*
X16087000Y-7847000D01*
X16087000Y-7717000D02*
X15957000Y-7847000D01*
X16067962Y-7827962D02*
X16067962Y-7736038D01*
X15976038Y-7736038D01*
X15976038Y-7827962D01*
X16067962Y-7827962D01*
D14*
X18884500Y-3894500D02*
X19059500Y-4069500D01*
X19059500Y-3894500D02*
X18884500Y-4069500D01*
X18972000Y-4069500D02*
X19059500Y-3982000D01*
X18972000Y-3894500D01*
X18884500Y-3982000D01*
X18972000Y-4069500D01*
X18884500Y-4694500D02*
X19059500Y-4869500D01*
X19059500Y-4694500D02*
X18884500Y-4869500D01*
X18972000Y-4869500D02*
X19059500Y-4782000D01*
X18972000Y-4694500D01*
X18884500Y-4782000D01*
X18972000Y-4869500D01*
X19084500Y-4294500D02*
X19259500Y-4469500D01*
X19259500Y-4294500D02*
X19084500Y-4469500D01*
X19172000Y-4469500D02*
X19259500Y-4382000D01*
X19172000Y-4294500D01*
X19084500Y-4382000D01*
X19172000Y-4469500D01*
X19284500Y-3894500D02*
X19459500Y-4069500D01*
X19459500Y-3894500D02*
X19284500Y-4069500D01*
X19372000Y-4069500D02*
X19459500Y-3982000D01*
X19372000Y-3894500D01*
X19284500Y-3982000D01*
X19372000Y-4069500D01*
X19284500Y-4694500D02*
X19459500Y-4869500D01*
X19459500Y-4694500D02*
X19284500Y-4869500D01*
X19372000Y-4869500D02*
X19459500Y-4782000D01*
X19372000Y-4694500D01*
X19284500Y-4782000D01*
X19372000Y-4869500D01*
X19484500Y-4294500D02*
X19659500Y-4469500D01*
X19659500Y-4294500D02*
X19484500Y-4469500D01*
X19572000Y-4469500D02*
X19659500Y-4382000D01*
X19572000Y-4294500D01*
X19484500Y-4382000D01*
X19572000Y-4469500D01*
X19684500Y-3894500D02*
X19859500Y-4069500D01*
X19859500Y-3894500D02*
X19684500Y-4069500D01*
X19772000Y-4069500D02*
X19859500Y-3982000D01*
X19772000Y-3894500D01*
X19684500Y-3982000D01*
X19772000Y-4069500D01*
X19684500Y-4694500D02*
X19859500Y-4869500D01*
X19859500Y-4694500D02*
X19684500Y-4869500D01*
X19772000Y-4869500D02*
X19859500Y-4782000D01*
X19772000Y-4694500D01*
X19684500Y-4782000D01*
X19772000Y-4869500D01*
X19884500Y-4294500D02*
X20059500Y-4469500D01*
X20059500Y-4294500D02*
X19884500Y-4469500D01*
X19972000Y-4469500D02*
X20059500Y-4382000D01*
X19972000Y-4294500D01*
X19884500Y-4382000D01*
X19972000Y-4469500D01*
X20084500Y-3894500D02*
X20259500Y-4069500D01*
X20259500Y-3894500D02*
X20084500Y-4069500D01*
X20172000Y-4069500D02*
X20259500Y-3982000D01*
X20172000Y-3894500D01*
X20084500Y-3982000D01*
X20172000Y-4069500D01*
X20084500Y-4694500D02*
X20259500Y-4869500D01*
X20259500Y-4694500D02*
X20084500Y-4869500D01*
X20172000Y-4869500D02*
X20259500Y-4782000D01*
X20172000Y-4694500D01*
X20084500Y-4782000D01*
X20172000Y-4869500D01*
X20284500Y-4294500D02*
X20459500Y-4469500D01*
X20459500Y-4294500D02*
X20284500Y-4469500D01*
X20372000Y-4469500D02*
X20459500Y-4382000D01*
X20372000Y-4294500D01*
X20284500Y-4382000D01*
X20372000Y-4469500D01*
X20484500Y-3894500D02*
X20659500Y-4069500D01*
X20659500Y-3894500D02*
X20484500Y-4069500D01*
X20572000Y-4069500D02*
X20659500Y-3982000D01*
X20572000Y-3894500D01*
X20484500Y-3982000D01*
X20572000Y-4069500D01*
X20484500Y-4694500D02*
X20659500Y-4869500D01*
X20659500Y-4694500D02*
X20484500Y-4869500D01*
X20572000Y-4869500D02*
X20659500Y-4782000D01*
X20572000Y-4694500D01*
X20484500Y-4782000D01*
X20572000Y-4869500D01*
X20684500Y-4294500D02*
X20859500Y-4469500D01*
X20859500Y-4294500D02*
X20684500Y-4469500D01*
X20772000Y-4469500D02*
X20859500Y-4382000D01*
X20772000Y-4294500D01*
X20684500Y-4382000D01*
X20772000Y-4469500D01*
X20884500Y-3894500D02*
X21059500Y-4069500D01*
X21059500Y-3894500D02*
X20884500Y-4069500D01*
X20972000Y-4069500D02*
X21059500Y-3982000D01*
X20972000Y-3894500D01*
X20884500Y-3982000D01*
X20972000Y-4069500D01*
X20884500Y-4694500D02*
X21059500Y-4869500D01*
X21059500Y-4694500D02*
X20884500Y-4869500D01*
X20972000Y-4869500D02*
X21059500Y-4782000D01*
X20972000Y-4694500D01*
X20884500Y-4782000D01*
X20972000Y-4869500D01*
X21084500Y-4294500D02*
X21259500Y-4469500D01*
X21259500Y-4294500D02*
X21084500Y-4469500D01*
X21172000Y-4469500D02*
X21259500Y-4382000D01*
X21172000Y-4294500D01*
X21084500Y-4382000D01*
X21172000Y-4469500D01*
X21284500Y-3894500D02*
X21459500Y-4069500D01*
X21459500Y-3894500D02*
X21284500Y-4069500D01*
X21372000Y-4069500D02*
X21459500Y-3982000D01*
X21372000Y-3894500D01*
X21284500Y-3982000D01*
X21372000Y-4069500D01*
X21284500Y-4694500D02*
X21459500Y-4869500D01*
X21459500Y-4694500D02*
X21284500Y-4869500D01*
X21372000Y-4869500D02*
X21459500Y-4782000D01*
X21372000Y-4694500D01*
X21284500Y-4782000D01*
X21372000Y-4869500D01*
X21484500Y-4294500D02*
X21659500Y-4469500D01*
X21659500Y-4294500D02*
X21484500Y-4469500D01*
X21572000Y-4469500D02*
X21659500Y-4382000D01*
X21572000Y-4294500D01*
X21484500Y-4382000D01*
X21572000Y-4469500D01*
X21684500Y-3894500D02*
X21859500Y-4069500D01*
X21859500Y-3894500D02*
X21684500Y-4069500D01*
X21772000Y-4069500D02*
X21859500Y-3982000D01*
X21772000Y-3894500D01*
X21684500Y-3982000D01*
X21772000Y-4069500D01*
X21684500Y-4694500D02*
X21859500Y-4869500D01*
X21859500Y-4694500D02*
X21684500Y-4869500D01*
X21772000Y-4869500D02*
X21859500Y-4782000D01*
X21772000Y-4694500D01*
X21684500Y-4782000D01*
X21772000Y-4869500D01*
D15*
X15980000Y-12683000D02*
X15980000Y-13003000D01*
X15820000Y-12843000D02*
X16140000Y-12843000D01*
X16140000Y-12843000D02*
G75*
G02*
X15820000Y-12843000I-160000J0D01*
G01*
X15820000Y-12843000D02*
G75*
G02*
X16140000Y-12843000I160000J0D01*
G01*
X16032000Y-3722000D02*
X16032000Y-4042000D01*
X15872000Y-3882000D02*
X16192000Y-3882000D01*
X16192000Y-3882000D02*
G75*
G02*
X15872000Y-3882000I-160000J0D01*
G01*
X15872000Y-3882000D02*
G75*
G02*
X16192000Y-3882000I160000J0D01*
G01*
X24932000Y-12683000D02*
X24932000Y-13003000D01*
X24772000Y-12843000D02*
X25092000Y-12843000D01*
X25092000Y-12843000D02*
G75*
G02*
X24772000Y-12843000I-160000J0D01*
G01*
X24772000Y-12843000D02*
G75*
G02*
X25092000Y-12843000I160000J0D01*
G01*
X24964000Y-3699000D02*
X24964000Y-4019000D01*
X24804000Y-3859000D02*
X25124000Y-3859000D01*
X25124000Y-3859000D02*
G75*
G02*
X24804000Y-3859000I-160000J0D01*
G01*
X24804000Y-3859000D02*
G75*
G02*
X25124000Y-3859000I160000J0D01*
G01*
D12*
X15730277Y-13664984D02*
X15730277Y-13464984D01*
X15730277Y-13464984D02*
X15777896Y-13464984D01*
X15777896Y-13464984D02*
X15806467Y-13474508D01*
X15806467Y-13474508D02*
X15825515Y-13493555D01*
X15825515Y-13493555D02*
X15835039Y-13512603D01*
X15835039Y-13512603D02*
X15844562Y-13550698D01*
X15844562Y-13550698D02*
X15844562Y-13579269D01*
X15844562Y-13579269D02*
X15835039Y-13617365D01*
X15835039Y-13617365D02*
X15825515Y-13636412D01*
X15825515Y-13636412D02*
X15806467Y-13655460D01*
X15806467Y-13655460D02*
X15777896Y-13664984D01*
X15777896Y-13664984D02*
X15730277Y-13664984D01*
X15930277Y-13664984D02*
X15930277Y-13531650D01*
X15930277Y-13569746D02*
X15939801Y-13550698D01*
X15939801Y-13550698D02*
X15949324Y-13541174D01*
X15949324Y-13541174D02*
X15968372Y-13531650D01*
X15968372Y-13531650D02*
X15987420Y-13531650D01*
X16054086Y-13664984D02*
X16054086Y-13531650D01*
X16054086Y-13464984D02*
X16044562Y-13474508D01*
X16044562Y-13474508D02*
X16054086Y-13484031D01*
X16054086Y-13484031D02*
X16063610Y-13474508D01*
X16063610Y-13474508D02*
X16054086Y-13464984D01*
X16054086Y-13464984D02*
X16054086Y-13484031D01*
X16177896Y-13664984D02*
X16158848Y-13655460D01*
X16158848Y-13655460D02*
X16149324Y-13636412D01*
X16149324Y-13636412D02*
X16149324Y-13464984D01*
X16282658Y-13664984D02*
X16263610Y-13655460D01*
X16263610Y-13655460D02*
X16254086Y-13636412D01*
X16254086Y-13636412D02*
X16254086Y-13464984D01*
X16511229Y-13664984D02*
X16511229Y-13464984D01*
X16511229Y-13464984D02*
X16577896Y-13607841D01*
X16577896Y-13607841D02*
X16644562Y-13464984D01*
X16644562Y-13464984D02*
X16644562Y-13664984D01*
X16825515Y-13664984D02*
X16825515Y-13560222D01*
X16825515Y-13560222D02*
X16815991Y-13541174D01*
X16815991Y-13541174D02*
X16796944Y-13531650D01*
X16796944Y-13531650D02*
X16758848Y-13531650D01*
X16758848Y-13531650D02*
X16739801Y-13541174D01*
X16825515Y-13655460D02*
X16806467Y-13664984D01*
X16806467Y-13664984D02*
X16758848Y-13664984D01*
X16758848Y-13664984D02*
X16739801Y-13655460D01*
X16739801Y-13655460D02*
X16730277Y-13636412D01*
X16730277Y-13636412D02*
X16730277Y-13617365D01*
X16730277Y-13617365D02*
X16739801Y-13598317D01*
X16739801Y-13598317D02*
X16758848Y-13588793D01*
X16758848Y-13588793D02*
X16806467Y-13588793D01*
X16806467Y-13588793D02*
X16825515Y-13579269D01*
X16920753Y-13531650D02*
X16920753Y-13731650D01*
X16920753Y-13541174D02*
X16939801Y-13531650D01*
X16939801Y-13531650D02*
X16977896Y-13531650D01*
X16977896Y-13531650D02*
X16996944Y-13541174D01*
X16996944Y-13541174D02*
X17006467Y-13550698D01*
X17006467Y-13550698D02*
X17015991Y-13569746D01*
X17015991Y-13569746D02*
X17015991Y-13626888D01*
X17015991Y-13626888D02*
X17006467Y-13645936D01*
X17006467Y-13645936D02*
X16996944Y-13655460D01*
X16996944Y-13655460D02*
X16977896Y-13664984D01*
X16977896Y-13664984D02*
X16939801Y-13664984D01*
X16939801Y-13664984D02*
X16920753Y-13655460D01*
X17101705Y-13645936D02*
X17111229Y-13655460D01*
X17111229Y-13655460D02*
X17101705Y-13664984D01*
X17101705Y-13664984D02*
X17092182Y-13655460D01*
X17092182Y-13655460D02*
X17101705Y-13645936D01*
X17101705Y-13645936D02*
X17101705Y-13664984D01*
X17101705Y-13541174D02*
X17111229Y-13550698D01*
X17111229Y-13550698D02*
X17101705Y-13560222D01*
X17101705Y-13560222D02*
X17092182Y-13550698D01*
X17092182Y-13550698D02*
X17101705Y-13541174D01*
X17101705Y-13541174D02*
X17101705Y-13560222D01*
D11*
X15439500Y-13978500D02*
X15469500Y-14008500D01*
X15469500Y-13978500D02*
X15439500Y-14008500D01*
D12*
X15768372Y-13884984D02*
X15787420Y-13884984D01*
X15787420Y-13884984D02*
X15806467Y-13894508D01*
X15806467Y-13894508D02*
X15815991Y-13904031D01*
X15815991Y-13904031D02*
X15825515Y-13923079D01*
X15825515Y-13923079D02*
X15835039Y-13961174D01*
X15835039Y-13961174D02*
X15835039Y-14008793D01*
X15835039Y-14008793D02*
X15825515Y-14046888D01*
X15825515Y-14046888D02*
X15815991Y-14065936D01*
X15815991Y-14065936D02*
X15806467Y-14075460D01*
X15806467Y-14075460D02*
X15787420Y-14084984D01*
X15787420Y-14084984D02*
X15768372Y-14084984D01*
X15768372Y-14084984D02*
X15749324Y-14075460D01*
X15749324Y-14075460D02*
X15739801Y-14065936D01*
X15739801Y-14065936D02*
X15730277Y-14046888D01*
X15730277Y-14046888D02*
X15720753Y-14008793D01*
X15720753Y-14008793D02*
X15720753Y-13961174D01*
X15720753Y-13961174D02*
X15730277Y-13923079D01*
X15730277Y-13923079D02*
X15739801Y-13904031D01*
X15739801Y-13904031D02*
X15749324Y-13894508D01*
X15749324Y-13894508D02*
X15768372Y-13884984D01*
X15920753Y-14065936D02*
X15930277Y-14075460D01*
X15930277Y-14075460D02*
X15920753Y-14084984D01*
X15920753Y-14084984D02*
X15911229Y-14075460D01*
X15911229Y-14075460D02*
X15920753Y-14065936D01*
X15920753Y-14065936D02*
X15920753Y-14084984D01*
X15996943Y-13884984D02*
X16120753Y-13884984D01*
X16120753Y-13884984D02*
X16054086Y-13961174D01*
X16054086Y-13961174D02*
X16082658Y-13961174D01*
X16082658Y-13961174D02*
X16101705Y-13970698D01*
X16101705Y-13970698D02*
X16111229Y-13980222D01*
X16111229Y-13980222D02*
X16120753Y-13999269D01*
X16120753Y-13999269D02*
X16120753Y-14046888D01*
X16120753Y-14046888D02*
X16111229Y-14065936D01*
X16111229Y-14065936D02*
X16101705Y-14075460D01*
X16101705Y-14075460D02*
X16082658Y-14084984D01*
X16082658Y-14084984D02*
X16025515Y-14084984D01*
X16025515Y-14084984D02*
X16006467Y-14075460D01*
X16006467Y-14075460D02*
X15996943Y-14065936D01*
X16244562Y-13884984D02*
X16263610Y-13884984D01*
X16263610Y-13884984D02*
X16282658Y-13894508D01*
X16282658Y-13894508D02*
X16292182Y-13904031D01*
X16292182Y-13904031D02*
X16301705Y-13923079D01*
X16301705Y-13923079D02*
X16311229Y-13961174D01*
X16311229Y-13961174D02*
X16311229Y-14008793D01*
X16311229Y-14008793D02*
X16301705Y-14046888D01*
X16301705Y-14046888D02*
X16292182Y-14065936D01*
X16292182Y-14065936D02*
X16282658Y-14075460D01*
X16282658Y-14075460D02*
X16263610Y-14084984D01*
X16263610Y-14084984D02*
X16244562Y-14084984D01*
X16244562Y-14084984D02*
X16225515Y-14075460D01*
X16225515Y-14075460D02*
X16215991Y-14065936D01*
X16215991Y-14065936D02*
X16206467Y-14046888D01*
X16206467Y-14046888D02*
X16196943Y-14008793D01*
X16196943Y-14008793D02*
X16196943Y-13961174D01*
X16196943Y-13961174D02*
X16206467Y-13923079D01*
X16206467Y-13923079D02*
X16215991Y-13904031D01*
X16215991Y-13904031D02*
X16225515Y-13894508D01*
X16225515Y-13894508D02*
X16244562Y-13884984D01*
X16435039Y-13884984D02*
X16454086Y-13884984D01*
X16454086Y-13884984D02*
X16473134Y-13894508D01*
X16473134Y-13894508D02*
X16482658Y-13904031D01*
X16482658Y-13904031D02*
X16492182Y-13923079D01*
X16492182Y-13923079D02*
X16501705Y-13961174D01*
X16501705Y-13961174D02*
X16501705Y-14008793D01*
X16501705Y-14008793D02*
X16492182Y-14046888D01*
X16492182Y-14046888D02*
X16482658Y-14065936D01*
X16482658Y-14065936D02*
X16473134Y-14075460D01*
X16473134Y-14075460D02*
X16454086Y-14084984D01*
X16454086Y-14084984D02*
X16435039Y-14084984D01*
X16435039Y-14084984D02*
X16415991Y-14075460D01*
X16415991Y-14075460D02*
X16406467Y-14065936D01*
X16406467Y-14065936D02*
X16396943Y-14046888D01*
X16396943Y-14046888D02*
X16387420Y-14008793D01*
X16387420Y-14008793D02*
X16387420Y-13961174D01*
X16387420Y-13961174D02*
X16396943Y-13923079D01*
X16396943Y-13923079D02*
X16406467Y-13904031D01*
X16406467Y-13904031D02*
X16415991Y-13894508D01*
X16415991Y-13894508D02*
X16435039Y-13884984D01*
X16587420Y-14084984D02*
X16587420Y-13951650D01*
X16587420Y-13970698D02*
X16596943Y-13961174D01*
X16596943Y-13961174D02*
X16615991Y-13951650D01*
X16615991Y-13951650D02*
X16644563Y-13951650D01*
X16644563Y-13951650D02*
X16663610Y-13961174D01*
X16663610Y-13961174D02*
X16673134Y-13980222D01*
X16673134Y-13980222D02*
X16673134Y-14084984D01*
X16673134Y-13980222D02*
X16682658Y-13961174D01*
X16682658Y-13961174D02*
X16701705Y-13951650D01*
X16701705Y-13951650D02*
X16730277Y-13951650D01*
X16730277Y-13951650D02*
X16749324Y-13961174D01*
X16749324Y-13961174D02*
X16758848Y-13980222D01*
X16758848Y-13980222D02*
X16758848Y-14084984D01*
X16854086Y-14084984D02*
X16854086Y-13951650D01*
X16854086Y-13970698D02*
X16863610Y-13961174D01*
X16863610Y-13961174D02*
X16882658Y-13951650D01*
X16882658Y-13951650D02*
X16911229Y-13951650D01*
X16911229Y-13951650D02*
X16930277Y-13961174D01*
X16930277Y-13961174D02*
X16939801Y-13980222D01*
X16939801Y-13980222D02*
X16939801Y-14084984D01*
X16939801Y-13980222D02*
X16949325Y-13961174D01*
X16949325Y-13961174D02*
X16968372Y-13951650D01*
X16968372Y-13951650D02*
X16996944Y-13951650D01*
X16996944Y-13951650D02*
X17015991Y-13961174D01*
X17015991Y-13961174D02*
X17025515Y-13980222D01*
X17025515Y-13980222D02*
X17025515Y-14084984D01*
X17415991Y-13875460D02*
X17244563Y-14132603D01*
X17673134Y-13884984D02*
X17692182Y-13884984D01*
X17692182Y-13884984D02*
X17711229Y-13894508D01*
X17711229Y-13894508D02*
X17720753Y-13904031D01*
X17720753Y-13904031D02*
X17730277Y-13923079D01*
X17730277Y-13923079D02*
X17739801Y-13961174D01*
X17739801Y-13961174D02*
X17739801Y-14008793D01*
X17739801Y-14008793D02*
X17730277Y-14046888D01*
X17730277Y-14046888D02*
X17720753Y-14065936D01*
X17720753Y-14065936D02*
X17711229Y-14075460D01*
X17711229Y-14075460D02*
X17692182Y-14084984D01*
X17692182Y-14084984D02*
X17673134Y-14084984D01*
X17673134Y-14084984D02*
X17654087Y-14075460D01*
X17654087Y-14075460D02*
X17644563Y-14065936D01*
X17644563Y-14065936D02*
X17635039Y-14046888D01*
X17635039Y-14046888D02*
X17625515Y-14008793D01*
X17625515Y-14008793D02*
X17625515Y-13961174D01*
X17625515Y-13961174D02*
X17635039Y-13923079D01*
X17635039Y-13923079D02*
X17644563Y-13904031D01*
X17644563Y-13904031D02*
X17654087Y-13894508D01*
X17654087Y-13894508D02*
X17673134Y-13884984D01*
X17825515Y-14065936D02*
X17835039Y-14075460D01*
X17835039Y-14075460D02*
X17825515Y-14084984D01*
X17825515Y-14084984D02*
X17815991Y-14075460D01*
X17815991Y-14075460D02*
X17825515Y-14065936D01*
X17825515Y-14065936D02*
X17825515Y-14084984D01*
X17958848Y-13884984D02*
X17977896Y-13884984D01*
X17977896Y-13884984D02*
X17996944Y-13894508D01*
X17996944Y-13894508D02*
X18006468Y-13904031D01*
X18006468Y-13904031D02*
X18015991Y-13923079D01*
X18015991Y-13923079D02*
X18025515Y-13961174D01*
X18025515Y-13961174D02*
X18025515Y-14008793D01*
X18025515Y-14008793D02*
X18015991Y-14046888D01*
X18015991Y-14046888D02*
X18006468Y-14065936D01*
X18006468Y-14065936D02*
X17996944Y-14075460D01*
X17996944Y-14075460D02*
X17977896Y-14084984D01*
X17977896Y-14084984D02*
X17958848Y-14084984D01*
X17958848Y-14084984D02*
X17939801Y-14075460D01*
X17939801Y-14075460D02*
X17930277Y-14065936D01*
X17930277Y-14065936D02*
X17920753Y-14046888D01*
X17920753Y-14046888D02*
X17911229Y-14008793D01*
X17911229Y-14008793D02*
X17911229Y-13961174D01*
X17911229Y-13961174D02*
X17920753Y-13923079D01*
X17920753Y-13923079D02*
X17930277Y-13904031D01*
X17930277Y-13904031D02*
X17939801Y-13894508D01*
X17939801Y-13894508D02*
X17958848Y-13884984D01*
X18215991Y-14084984D02*
X18101706Y-14084984D01*
X18158848Y-14084984D02*
X18158848Y-13884984D01*
X18158848Y-13884984D02*
X18139801Y-13913555D01*
X18139801Y-13913555D02*
X18120753Y-13932603D01*
X18120753Y-13932603D02*
X18101706Y-13942127D01*
X18406468Y-14084984D02*
X18292182Y-14084984D01*
X18349325Y-14084984D02*
X18349325Y-13884984D01*
X18349325Y-13884984D02*
X18330277Y-13913555D01*
X18330277Y-13913555D02*
X18311229Y-13932603D01*
X18311229Y-13932603D02*
X18292182Y-13942127D01*
X18520753Y-13970698D02*
X18501706Y-13961174D01*
X18501706Y-13961174D02*
X18492182Y-13951650D01*
X18492182Y-13951650D02*
X18482658Y-13932603D01*
X18482658Y-13932603D02*
X18482658Y-13923079D01*
X18482658Y-13923079D02*
X18492182Y-13904031D01*
X18492182Y-13904031D02*
X18501706Y-13894508D01*
X18501706Y-13894508D02*
X18520753Y-13884984D01*
X18520753Y-13884984D02*
X18558849Y-13884984D01*
X18558849Y-13884984D02*
X18577896Y-13894508D01*
X18577896Y-13894508D02*
X18587420Y-13904031D01*
X18587420Y-13904031D02*
X18596944Y-13923079D01*
X18596944Y-13923079D02*
X18596944Y-13932603D01*
X18596944Y-13932603D02*
X18587420Y-13951650D01*
X18587420Y-13951650D02*
X18577896Y-13961174D01*
X18577896Y-13961174D02*
X18558849Y-13970698D01*
X18558849Y-13970698D02*
X18520753Y-13970698D01*
X18520753Y-13970698D02*
X18501706Y-13980222D01*
X18501706Y-13980222D02*
X18492182Y-13989746D01*
X18492182Y-13989746D02*
X18482658Y-14008793D01*
X18482658Y-14008793D02*
X18482658Y-14046888D01*
X18482658Y-14046888D02*
X18492182Y-14065936D01*
X18492182Y-14065936D02*
X18501706Y-14075460D01*
X18501706Y-14075460D02*
X18520753Y-14084984D01*
X18520753Y-14084984D02*
X18558849Y-14084984D01*
X18558849Y-14084984D02*
X18577896Y-14075460D01*
X18577896Y-14075460D02*
X18587420Y-14065936D01*
X18587420Y-14065936D02*
X18596944Y-14046888D01*
X18596944Y-14046888D02*
X18596944Y-14008793D01*
X18596944Y-14008793D02*
X18587420Y-13989746D01*
X18587420Y-13989746D02*
X18577896Y-13980222D01*
X18577896Y-13980222D02*
X18558849Y-13970698D01*
X18673134Y-13884984D02*
X18673134Y-13923079D01*
X18749325Y-13884984D02*
X18749325Y-13923079D01*
X19044563Y-14161174D02*
X19035039Y-14151650D01*
X19035039Y-14151650D02*
X19015991Y-14123079D01*
X19015991Y-14123079D02*
X19006468Y-14104031D01*
X19006468Y-14104031D02*
X18996944Y-14075460D01*
X18996944Y-14075460D02*
X18987420Y-14027841D01*
X18987420Y-14027841D02*
X18987420Y-13989746D01*
X18987420Y-13989746D02*
X18996944Y-13942127D01*
X18996944Y-13942127D02*
X19006468Y-13913555D01*
X19006468Y-13913555D02*
X19015991Y-13894508D01*
X19015991Y-13894508D02*
X19035039Y-13865936D01*
X19035039Y-13865936D02*
X19044563Y-13856412D01*
X19225515Y-14084984D02*
X19111230Y-14084984D01*
X19168372Y-14084984D02*
X19168372Y-13884984D01*
X19168372Y-13884984D02*
X19149325Y-13913555D01*
X19149325Y-13913555D02*
X19130277Y-13932603D01*
X19130277Y-13932603D02*
X19111230Y-13942127D01*
X19349325Y-13884984D02*
X19368372Y-13884984D01*
X19368372Y-13884984D02*
X19387420Y-13894508D01*
X19387420Y-13894508D02*
X19396944Y-13904031D01*
X19396944Y-13904031D02*
X19406468Y-13923079D01*
X19406468Y-13923079D02*
X19415991Y-13961174D01*
X19415991Y-13961174D02*
X19415991Y-14008793D01*
X19415991Y-14008793D02*
X19406468Y-14046888D01*
X19406468Y-14046888D02*
X19396944Y-14065936D01*
X19396944Y-14065936D02*
X19387420Y-14075460D01*
X19387420Y-14075460D02*
X19368372Y-14084984D01*
X19368372Y-14084984D02*
X19349325Y-14084984D01*
X19349325Y-14084984D02*
X19330277Y-14075460D01*
X19330277Y-14075460D02*
X19320753Y-14065936D01*
X19320753Y-14065936D02*
X19311230Y-14046888D01*
X19311230Y-14046888D02*
X19301706Y-14008793D01*
X19301706Y-14008793D02*
X19301706Y-13961174D01*
X19301706Y-13961174D02*
X19311230Y-13923079D01*
X19311230Y-13923079D02*
X19320753Y-13904031D01*
X19320753Y-13904031D02*
X19330277Y-13894508D01*
X19330277Y-13894508D02*
X19349325Y-13884984D01*
X19482658Y-13884984D02*
X19606468Y-13884984D01*
X19606468Y-13884984D02*
X19539801Y-13961174D01*
X19539801Y-13961174D02*
X19568372Y-13961174D01*
X19568372Y-13961174D02*
X19587420Y-13970698D01*
X19587420Y-13970698D02*
X19596944Y-13980222D01*
X19596944Y-13980222D02*
X19606468Y-13999269D01*
X19606468Y-13999269D02*
X19606468Y-14046888D01*
X19606468Y-14046888D02*
X19596944Y-14065936D01*
X19596944Y-14065936D02*
X19587420Y-14075460D01*
X19587420Y-14075460D02*
X19568372Y-14084984D01*
X19568372Y-14084984D02*
X19511230Y-14084984D01*
X19511230Y-14084984D02*
X19492182Y-14075460D01*
X19492182Y-14075460D02*
X19482658Y-14065936D01*
X19844563Y-14084984D02*
X19844563Y-13884984D01*
X19930277Y-14084984D02*
X19930277Y-13980222D01*
X19930277Y-13980222D02*
X19920753Y-13961174D01*
X19920753Y-13961174D02*
X19901706Y-13951650D01*
X19901706Y-13951650D02*
X19873134Y-13951650D01*
X19873134Y-13951650D02*
X19854087Y-13961174D01*
X19854087Y-13961174D02*
X19844563Y-13970698D01*
X20054087Y-14084984D02*
X20035039Y-14075460D01*
X20035039Y-14075460D02*
X20025515Y-14065936D01*
X20025515Y-14065936D02*
X20015992Y-14046888D01*
X20015992Y-14046888D02*
X20015992Y-13989746D01*
X20015992Y-13989746D02*
X20025515Y-13970698D01*
X20025515Y-13970698D02*
X20035039Y-13961174D01*
X20035039Y-13961174D02*
X20054087Y-13951650D01*
X20054087Y-13951650D02*
X20082658Y-13951650D01*
X20082658Y-13951650D02*
X20101706Y-13961174D01*
X20101706Y-13961174D02*
X20111230Y-13970698D01*
X20111230Y-13970698D02*
X20120753Y-13989746D01*
X20120753Y-13989746D02*
X20120753Y-14046888D01*
X20120753Y-14046888D02*
X20111230Y-14065936D01*
X20111230Y-14065936D02*
X20101706Y-14075460D01*
X20101706Y-14075460D02*
X20082658Y-14084984D01*
X20082658Y-14084984D02*
X20054087Y-14084984D01*
X20235039Y-14084984D02*
X20215992Y-14075460D01*
X20215992Y-14075460D02*
X20206468Y-14056412D01*
X20206468Y-14056412D02*
X20206468Y-13884984D01*
X20387420Y-14075460D02*
X20368373Y-14084984D01*
X20368373Y-14084984D02*
X20330277Y-14084984D01*
X20330277Y-14084984D02*
X20311230Y-14075460D01*
X20311230Y-14075460D02*
X20301706Y-14056412D01*
X20301706Y-14056412D02*
X20301706Y-13980222D01*
X20301706Y-13980222D02*
X20311230Y-13961174D01*
X20311230Y-13961174D02*
X20330277Y-13951650D01*
X20330277Y-13951650D02*
X20368373Y-13951650D01*
X20368373Y-13951650D02*
X20387420Y-13961174D01*
X20387420Y-13961174D02*
X20396944Y-13980222D01*
X20396944Y-13980222D02*
X20396944Y-13999269D01*
X20396944Y-13999269D02*
X20301706Y-14018317D01*
X20473134Y-14075460D02*
X20492182Y-14084984D01*
X20492182Y-14084984D02*
X20530277Y-14084984D01*
X20530277Y-14084984D02*
X20549325Y-14075460D01*
X20549325Y-14075460D02*
X20558849Y-14056412D01*
X20558849Y-14056412D02*
X20558849Y-14046888D01*
X20558849Y-14046888D02*
X20549325Y-14027841D01*
X20549325Y-14027841D02*
X20530277Y-14018317D01*
X20530277Y-14018317D02*
X20501706Y-14018317D01*
X20501706Y-14018317D02*
X20482658Y-14008793D01*
X20482658Y-14008793D02*
X20473134Y-13989746D01*
X20473134Y-13989746D02*
X20473134Y-13980222D01*
X20473134Y-13980222D02*
X20482658Y-13961174D01*
X20482658Y-13961174D02*
X20501706Y-13951650D01*
X20501706Y-13951650D02*
X20530277Y-13951650D01*
X20530277Y-13951650D02*
X20549325Y-13961174D01*
X20625515Y-14161174D02*
X20635039Y-14151650D01*
X20635039Y-14151650D02*
X20654087Y-14123079D01*
X20654087Y-14123079D02*
X20663611Y-14104031D01*
X20663611Y-14104031D02*
X20673134Y-14075460D01*
X20673134Y-14075460D02*
X20682658Y-14027841D01*
X20682658Y-14027841D02*
X20682658Y-13989746D01*
X20682658Y-13989746D02*
X20673134Y-13942127D01*
X20673134Y-13942127D02*
X20663611Y-13913555D01*
X20663611Y-13913555D02*
X20654087Y-13894508D01*
X20654087Y-13894508D02*
X20635039Y-13865936D01*
X20635039Y-13865936D02*
X20625515Y-13856412D01*
D11*
X15469500Y-14257500D02*
G75*
G02*
X15419500Y-14257500I-25000J0D01*
G01*
X15419500Y-14257500D02*
G75*
G02*
X15469500Y-14257500I25000J0D01*
G01*
D12*
X15768372Y-14148984D02*
X15787420Y-14148984D01*
X15787420Y-14148984D02*
X15806467Y-14158508D01*
X15806467Y-14158508D02*
X15815991Y-14168031D01*
X15815991Y-14168031D02*
X15825515Y-14187079D01*
X15825515Y-14187079D02*
X15835039Y-14225174D01*
X15835039Y-14225174D02*
X15835039Y-14272793D01*
X15835039Y-14272793D02*
X15825515Y-14310888D01*
X15825515Y-14310888D02*
X15815991Y-14329936D01*
X15815991Y-14329936D02*
X15806467Y-14339460D01*
X15806467Y-14339460D02*
X15787420Y-14348984D01*
X15787420Y-14348984D02*
X15768372Y-14348984D01*
X15768372Y-14348984D02*
X15749324Y-14339460D01*
X15749324Y-14339460D02*
X15739801Y-14329936D01*
X15739801Y-14329936D02*
X15730277Y-14310888D01*
X15730277Y-14310888D02*
X15720753Y-14272793D01*
X15720753Y-14272793D02*
X15720753Y-14225174D01*
X15720753Y-14225174D02*
X15730277Y-14187079D01*
X15730277Y-14187079D02*
X15739801Y-14168031D01*
X15739801Y-14168031D02*
X15749324Y-14158508D01*
X15749324Y-14158508D02*
X15768372Y-14148984D01*
X15920753Y-14329936D02*
X15930277Y-14339460D01*
X15930277Y-14339460D02*
X15920753Y-14348984D01*
X15920753Y-14348984D02*
X15911229Y-14339460D01*
X15911229Y-14339460D02*
X15920753Y-14329936D01*
X15920753Y-14329936D02*
X15920753Y-14348984D01*
X16111229Y-14148984D02*
X16015991Y-14148984D01*
X16015991Y-14148984D02*
X16006467Y-14244222D01*
X16006467Y-14244222D02*
X16015991Y-14234698D01*
X16015991Y-14234698D02*
X16035039Y-14225174D01*
X16035039Y-14225174D02*
X16082658Y-14225174D01*
X16082658Y-14225174D02*
X16101705Y-14234698D01*
X16101705Y-14234698D02*
X16111229Y-14244222D01*
X16111229Y-14244222D02*
X16120753Y-14263269D01*
X16120753Y-14263269D02*
X16120753Y-14310888D01*
X16120753Y-14310888D02*
X16111229Y-14329936D01*
X16111229Y-14329936D02*
X16101705Y-14339460D01*
X16101705Y-14339460D02*
X16082658Y-14348984D01*
X16082658Y-14348984D02*
X16035039Y-14348984D01*
X16035039Y-14348984D02*
X16015991Y-14339460D01*
X16015991Y-14339460D02*
X16006467Y-14329936D01*
X16244562Y-14148984D02*
X16263610Y-14148984D01*
X16263610Y-14148984D02*
X16282658Y-14158508D01*
X16282658Y-14158508D02*
X16292182Y-14168031D01*
X16292182Y-14168031D02*
X16301705Y-14187079D01*
X16301705Y-14187079D02*
X16311229Y-14225174D01*
X16311229Y-14225174D02*
X16311229Y-14272793D01*
X16311229Y-14272793D02*
X16301705Y-14310888D01*
X16301705Y-14310888D02*
X16292182Y-14329936D01*
X16292182Y-14329936D02*
X16282658Y-14339460D01*
X16282658Y-14339460D02*
X16263610Y-14348984D01*
X16263610Y-14348984D02*
X16244562Y-14348984D01*
X16244562Y-14348984D02*
X16225515Y-14339460D01*
X16225515Y-14339460D02*
X16215991Y-14329936D01*
X16215991Y-14329936D02*
X16206467Y-14310888D01*
X16206467Y-14310888D02*
X16196943Y-14272793D01*
X16196943Y-14272793D02*
X16196943Y-14225174D01*
X16196943Y-14225174D02*
X16206467Y-14187079D01*
X16206467Y-14187079D02*
X16215991Y-14168031D01*
X16215991Y-14168031D02*
X16225515Y-14158508D01*
X16225515Y-14158508D02*
X16244562Y-14148984D01*
X16435039Y-14148984D02*
X16454086Y-14148984D01*
X16454086Y-14148984D02*
X16473134Y-14158508D01*
X16473134Y-14158508D02*
X16482658Y-14168031D01*
X16482658Y-14168031D02*
X16492182Y-14187079D01*
X16492182Y-14187079D02*
X16501705Y-14225174D01*
X16501705Y-14225174D02*
X16501705Y-14272793D01*
X16501705Y-14272793D02*
X16492182Y-14310888D01*
X16492182Y-14310888D02*
X16482658Y-14329936D01*
X16482658Y-14329936D02*
X16473134Y-14339460D01*
X16473134Y-14339460D02*
X16454086Y-14348984D01*
X16454086Y-14348984D02*
X16435039Y-14348984D01*
X16435039Y-14348984D02*
X16415991Y-14339460D01*
X16415991Y-14339460D02*
X16406467Y-14329936D01*
X16406467Y-14329936D02*
X16396943Y-14310888D01*
X16396943Y-14310888D02*
X16387420Y-14272793D01*
X16387420Y-14272793D02*
X16387420Y-14225174D01*
X16387420Y-14225174D02*
X16396943Y-14187079D01*
X16396943Y-14187079D02*
X16406467Y-14168031D01*
X16406467Y-14168031D02*
X16415991Y-14158508D01*
X16415991Y-14158508D02*
X16435039Y-14148984D01*
X16587420Y-14348984D02*
X16587420Y-14215650D01*
X16587420Y-14234698D02*
X16596943Y-14225174D01*
X16596943Y-14225174D02*
X16615991Y-14215650D01*
X16615991Y-14215650D02*
X16644563Y-14215650D01*
X16644563Y-14215650D02*
X16663610Y-14225174D01*
X16663610Y-14225174D02*
X16673134Y-14244222D01*
X16673134Y-14244222D02*
X16673134Y-14348984D01*
X16673134Y-14244222D02*
X16682658Y-14225174D01*
X16682658Y-14225174D02*
X16701705Y-14215650D01*
X16701705Y-14215650D02*
X16730277Y-14215650D01*
X16730277Y-14215650D02*
X16749324Y-14225174D01*
X16749324Y-14225174D02*
X16758848Y-14244222D01*
X16758848Y-14244222D02*
X16758848Y-14348984D01*
X16854086Y-14348984D02*
X16854086Y-14215650D01*
X16854086Y-14234698D02*
X16863610Y-14225174D01*
X16863610Y-14225174D02*
X16882658Y-14215650D01*
X16882658Y-14215650D02*
X16911229Y-14215650D01*
X16911229Y-14215650D02*
X16930277Y-14225174D01*
X16930277Y-14225174D02*
X16939801Y-14244222D01*
X16939801Y-14244222D02*
X16939801Y-14348984D01*
X16939801Y-14244222D02*
X16949325Y-14225174D01*
X16949325Y-14225174D02*
X16968372Y-14215650D01*
X16968372Y-14215650D02*
X16996944Y-14215650D01*
X16996944Y-14215650D02*
X17015991Y-14225174D01*
X17015991Y-14225174D02*
X17025515Y-14244222D01*
X17025515Y-14244222D02*
X17025515Y-14348984D01*
X17415991Y-14139460D02*
X17244563Y-14396603D01*
X17673134Y-14148984D02*
X17692182Y-14148984D01*
X17692182Y-14148984D02*
X17711229Y-14158508D01*
X17711229Y-14158508D02*
X17720753Y-14168031D01*
X17720753Y-14168031D02*
X17730277Y-14187079D01*
X17730277Y-14187079D02*
X17739801Y-14225174D01*
X17739801Y-14225174D02*
X17739801Y-14272793D01*
X17739801Y-14272793D02*
X17730277Y-14310888D01*
X17730277Y-14310888D02*
X17720753Y-14329936D01*
X17720753Y-14329936D02*
X17711229Y-14339460D01*
X17711229Y-14339460D02*
X17692182Y-14348984D01*
X17692182Y-14348984D02*
X17673134Y-14348984D01*
X17673134Y-14348984D02*
X17654087Y-14339460D01*
X17654087Y-14339460D02*
X17644563Y-14329936D01*
X17644563Y-14329936D02*
X17635039Y-14310888D01*
X17635039Y-14310888D02*
X17625515Y-14272793D01*
X17625515Y-14272793D02*
X17625515Y-14225174D01*
X17625515Y-14225174D02*
X17635039Y-14187079D01*
X17635039Y-14187079D02*
X17644563Y-14168031D01*
X17644563Y-14168031D02*
X17654087Y-14158508D01*
X17654087Y-14158508D02*
X17673134Y-14148984D01*
X17825515Y-14329936D02*
X17835039Y-14339460D01*
X17835039Y-14339460D02*
X17825515Y-14348984D01*
X17825515Y-14348984D02*
X17815991Y-14339460D01*
X17815991Y-14339460D02*
X17825515Y-14329936D01*
X17825515Y-14329936D02*
X17825515Y-14348984D01*
X17958848Y-14148984D02*
X17977896Y-14148984D01*
X17977896Y-14148984D02*
X17996944Y-14158508D01*
X17996944Y-14158508D02*
X18006468Y-14168031D01*
X18006468Y-14168031D02*
X18015991Y-14187079D01*
X18015991Y-14187079D02*
X18025515Y-14225174D01*
X18025515Y-14225174D02*
X18025515Y-14272793D01*
X18025515Y-14272793D02*
X18015991Y-14310888D01*
X18015991Y-14310888D02*
X18006468Y-14329936D01*
X18006468Y-14329936D02*
X17996944Y-14339460D01*
X17996944Y-14339460D02*
X17977896Y-14348984D01*
X17977896Y-14348984D02*
X17958848Y-14348984D01*
X17958848Y-14348984D02*
X17939801Y-14339460D01*
X17939801Y-14339460D02*
X17930277Y-14329936D01*
X17930277Y-14329936D02*
X17920753Y-14310888D01*
X17920753Y-14310888D02*
X17911229Y-14272793D01*
X17911229Y-14272793D02*
X17911229Y-14225174D01*
X17911229Y-14225174D02*
X17920753Y-14187079D01*
X17920753Y-14187079D02*
X17930277Y-14168031D01*
X17930277Y-14168031D02*
X17939801Y-14158508D01*
X17939801Y-14158508D02*
X17958848Y-14148984D01*
X18215991Y-14348984D02*
X18101706Y-14348984D01*
X18158848Y-14348984D02*
X18158848Y-14148984D01*
X18158848Y-14148984D02*
X18139801Y-14177555D01*
X18139801Y-14177555D02*
X18120753Y-14196603D01*
X18120753Y-14196603D02*
X18101706Y-14206127D01*
X18311229Y-14348984D02*
X18349325Y-14348984D01*
X18349325Y-14348984D02*
X18368372Y-14339460D01*
X18368372Y-14339460D02*
X18377896Y-14329936D01*
X18377896Y-14329936D02*
X18396944Y-14301365D01*
X18396944Y-14301365D02*
X18406468Y-14263269D01*
X18406468Y-14263269D02*
X18406468Y-14187079D01*
X18406468Y-14187079D02*
X18396944Y-14168031D01*
X18396944Y-14168031D02*
X18387420Y-14158508D01*
X18387420Y-14158508D02*
X18368372Y-14148984D01*
X18368372Y-14148984D02*
X18330277Y-14148984D01*
X18330277Y-14148984D02*
X18311229Y-14158508D01*
X18311229Y-14158508D02*
X18301706Y-14168031D01*
X18301706Y-14168031D02*
X18292182Y-14187079D01*
X18292182Y-14187079D02*
X18292182Y-14234698D01*
X18292182Y-14234698D02*
X18301706Y-14253746D01*
X18301706Y-14253746D02*
X18311229Y-14263269D01*
X18311229Y-14263269D02*
X18330277Y-14272793D01*
X18330277Y-14272793D02*
X18368372Y-14272793D01*
X18368372Y-14272793D02*
X18387420Y-14263269D01*
X18387420Y-14263269D02*
X18396944Y-14253746D01*
X18396944Y-14253746D02*
X18406468Y-14234698D01*
X18473134Y-14148984D02*
X18606468Y-14148984D01*
X18606468Y-14148984D02*
X18520753Y-14348984D01*
X18673134Y-14148984D02*
X18673134Y-14187079D01*
X18749325Y-14148984D02*
X18749325Y-14187079D01*
X19044563Y-14425174D02*
X19035039Y-14415650D01*
X19035039Y-14415650D02*
X19015991Y-14387079D01*
X19015991Y-14387079D02*
X19006468Y-14368031D01*
X19006468Y-14368031D02*
X18996944Y-14339460D01*
X18996944Y-14339460D02*
X18987420Y-14291841D01*
X18987420Y-14291841D02*
X18987420Y-14253746D01*
X18987420Y-14253746D02*
X18996944Y-14206127D01*
X18996944Y-14206127D02*
X19006468Y-14177555D01*
X19006468Y-14177555D02*
X19015991Y-14158508D01*
X19015991Y-14158508D02*
X19035039Y-14129936D01*
X19035039Y-14129936D02*
X19044563Y-14120412D01*
X19101706Y-14148984D02*
X19225515Y-14148984D01*
X19225515Y-14148984D02*
X19158849Y-14225174D01*
X19158849Y-14225174D02*
X19187420Y-14225174D01*
X19187420Y-14225174D02*
X19206468Y-14234698D01*
X19206468Y-14234698D02*
X19215991Y-14244222D01*
X19215991Y-14244222D02*
X19225515Y-14263269D01*
X19225515Y-14263269D02*
X19225515Y-14310888D01*
X19225515Y-14310888D02*
X19215991Y-14329936D01*
X19215991Y-14329936D02*
X19206468Y-14339460D01*
X19206468Y-14339460D02*
X19187420Y-14348984D01*
X19187420Y-14348984D02*
X19130277Y-14348984D01*
X19130277Y-14348984D02*
X19111230Y-14339460D01*
X19111230Y-14339460D02*
X19101706Y-14329936D01*
X19301706Y-14168031D02*
X19311230Y-14158508D01*
X19311230Y-14158508D02*
X19330277Y-14148984D01*
X19330277Y-14148984D02*
X19377896Y-14148984D01*
X19377896Y-14148984D02*
X19396944Y-14158508D01*
X19396944Y-14158508D02*
X19406468Y-14168031D01*
X19406468Y-14168031D02*
X19415991Y-14187079D01*
X19415991Y-14187079D02*
X19415991Y-14206127D01*
X19415991Y-14206127D02*
X19406468Y-14234698D01*
X19406468Y-14234698D02*
X19292182Y-14348984D01*
X19292182Y-14348984D02*
X19415991Y-14348984D01*
X19654087Y-14348984D02*
X19654087Y-14148984D01*
X19739801Y-14348984D02*
X19739801Y-14244222D01*
X19739801Y-14244222D02*
X19730277Y-14225174D01*
X19730277Y-14225174D02*
X19711230Y-14215650D01*
X19711230Y-14215650D02*
X19682658Y-14215650D01*
X19682658Y-14215650D02*
X19663611Y-14225174D01*
X19663611Y-14225174D02*
X19654087Y-14234698D01*
X19863611Y-14348984D02*
X19844563Y-14339460D01*
X19844563Y-14339460D02*
X19835039Y-14329936D01*
X19835039Y-14329936D02*
X19825515Y-14310888D01*
X19825515Y-14310888D02*
X19825515Y-14253746D01*
X19825515Y-14253746D02*
X19835039Y-14234698D01*
X19835039Y-14234698D02*
X19844563Y-14225174D01*
X19844563Y-14225174D02*
X19863611Y-14215650D01*
X19863611Y-14215650D02*
X19892182Y-14215650D01*
X19892182Y-14215650D02*
X19911230Y-14225174D01*
X19911230Y-14225174D02*
X19920753Y-14234698D01*
X19920753Y-14234698D02*
X19930277Y-14253746D01*
X19930277Y-14253746D02*
X19930277Y-14310888D01*
X19930277Y-14310888D02*
X19920753Y-14329936D01*
X19920753Y-14329936D02*
X19911230Y-14339460D01*
X19911230Y-14339460D02*
X19892182Y-14348984D01*
X19892182Y-14348984D02*
X19863611Y-14348984D01*
X20044563Y-14348984D02*
X20025515Y-14339460D01*
X20025515Y-14339460D02*
X20015992Y-14320412D01*
X20015992Y-14320412D02*
X20015992Y-14148984D01*
X20196944Y-14339460D02*
X20177896Y-14348984D01*
X20177896Y-14348984D02*
X20139801Y-14348984D01*
X20139801Y-14348984D02*
X20120753Y-14339460D01*
X20120753Y-14339460D02*
X20111230Y-14320412D01*
X20111230Y-14320412D02*
X20111230Y-14244222D01*
X20111230Y-14244222D02*
X20120753Y-14225174D01*
X20120753Y-14225174D02*
X20139801Y-14215650D01*
X20139801Y-14215650D02*
X20177896Y-14215650D01*
X20177896Y-14215650D02*
X20196944Y-14225174D01*
X20196944Y-14225174D02*
X20206468Y-14244222D01*
X20206468Y-14244222D02*
X20206468Y-14263269D01*
X20206468Y-14263269D02*
X20111230Y-14282317D01*
X20282658Y-14339460D02*
X20301706Y-14348984D01*
X20301706Y-14348984D02*
X20339801Y-14348984D01*
X20339801Y-14348984D02*
X20358849Y-14339460D01*
X20358849Y-14339460D02*
X20368373Y-14320412D01*
X20368373Y-14320412D02*
X20368373Y-14310888D01*
X20368373Y-14310888D02*
X20358849Y-14291841D01*
X20358849Y-14291841D02*
X20339801Y-14282317D01*
X20339801Y-14282317D02*
X20311230Y-14282317D01*
X20311230Y-14282317D02*
X20292182Y-14272793D01*
X20292182Y-14272793D02*
X20282658Y-14253746D01*
X20282658Y-14253746D02*
X20282658Y-14244222D01*
X20282658Y-14244222D02*
X20292182Y-14225174D01*
X20292182Y-14225174D02*
X20311230Y-14215650D01*
X20311230Y-14215650D02*
X20339801Y-14215650D01*
X20339801Y-14215650D02*
X20358849Y-14225174D01*
X20435039Y-14425174D02*
X20444563Y-14415650D01*
X20444563Y-14415650D02*
X20463611Y-14387079D01*
X20463611Y-14387079D02*
X20473134Y-14368031D01*
X20473134Y-14368031D02*
X20482658Y-14339460D01*
X20482658Y-14339460D02*
X20492182Y-14291841D01*
X20492182Y-14291841D02*
X20492182Y-14253746D01*
X20492182Y-14253746D02*
X20482658Y-14206127D01*
X20482658Y-14206127D02*
X20473134Y-14177555D01*
X20473134Y-14177555D02*
X20463611Y-14158508D01*
X20463611Y-14158508D02*
X20444563Y-14129936D01*
X20444563Y-14129936D02*
X20435039Y-14120412D01*
D11*
X15439500Y-14491500D02*
X15439500Y-14551500D01*
X15409500Y-14521500D02*
X15469500Y-14521500D01*
D12*
X15768372Y-14412984D02*
X15787420Y-14412984D01*
X15787420Y-14412984D02*
X15806467Y-14422508D01*
X15806467Y-14422508D02*
X15815991Y-14432031D01*
X15815991Y-14432031D02*
X15825515Y-14451079D01*
X15825515Y-14451079D02*
X15835039Y-14489174D01*
X15835039Y-14489174D02*
X15835039Y-14536793D01*
X15835039Y-14536793D02*
X15825515Y-14574888D01*
X15825515Y-14574888D02*
X15815991Y-14593936D01*
X15815991Y-14593936D02*
X15806467Y-14603460D01*
X15806467Y-14603460D02*
X15787420Y-14612984D01*
X15787420Y-14612984D02*
X15768372Y-14612984D01*
X15768372Y-14612984D02*
X15749324Y-14603460D01*
X15749324Y-14603460D02*
X15739801Y-14593936D01*
X15739801Y-14593936D02*
X15730277Y-14574888D01*
X15730277Y-14574888D02*
X15720753Y-14536793D01*
X15720753Y-14536793D02*
X15720753Y-14489174D01*
X15720753Y-14489174D02*
X15730277Y-14451079D01*
X15730277Y-14451079D02*
X15739801Y-14432031D01*
X15739801Y-14432031D02*
X15749324Y-14422508D01*
X15749324Y-14422508D02*
X15768372Y-14412984D01*
X15920753Y-14593936D02*
X15930277Y-14603460D01*
X15930277Y-14603460D02*
X15920753Y-14612984D01*
X15920753Y-14612984D02*
X15911229Y-14603460D01*
X15911229Y-14603460D02*
X15920753Y-14593936D01*
X15920753Y-14593936D02*
X15920753Y-14612984D01*
X16101705Y-14412984D02*
X16063610Y-14412984D01*
X16063610Y-14412984D02*
X16044562Y-14422508D01*
X16044562Y-14422508D02*
X16035039Y-14432031D01*
X16035039Y-14432031D02*
X16015991Y-14460603D01*
X16015991Y-14460603D02*
X16006467Y-14498698D01*
X16006467Y-14498698D02*
X16006467Y-14574888D01*
X16006467Y-14574888D02*
X16015991Y-14593936D01*
X16015991Y-14593936D02*
X16025515Y-14603460D01*
X16025515Y-14603460D02*
X16044562Y-14612984D01*
X16044562Y-14612984D02*
X16082658Y-14612984D01*
X16082658Y-14612984D02*
X16101705Y-14603460D01*
X16101705Y-14603460D02*
X16111229Y-14593936D01*
X16111229Y-14593936D02*
X16120753Y-14574888D01*
X16120753Y-14574888D02*
X16120753Y-14527269D01*
X16120753Y-14527269D02*
X16111229Y-14508222D01*
X16111229Y-14508222D02*
X16101705Y-14498698D01*
X16101705Y-14498698D02*
X16082658Y-14489174D01*
X16082658Y-14489174D02*
X16044562Y-14489174D01*
X16044562Y-14489174D02*
X16025515Y-14498698D01*
X16025515Y-14498698D02*
X16015991Y-14508222D01*
X16015991Y-14508222D02*
X16006467Y-14527269D01*
X16244562Y-14412984D02*
X16263610Y-14412984D01*
X16263610Y-14412984D02*
X16282658Y-14422508D01*
X16282658Y-14422508D02*
X16292182Y-14432031D01*
X16292182Y-14432031D02*
X16301705Y-14451079D01*
X16301705Y-14451079D02*
X16311229Y-14489174D01*
X16311229Y-14489174D02*
X16311229Y-14536793D01*
X16311229Y-14536793D02*
X16301705Y-14574888D01*
X16301705Y-14574888D02*
X16292182Y-14593936D01*
X16292182Y-14593936D02*
X16282658Y-14603460D01*
X16282658Y-14603460D02*
X16263610Y-14612984D01*
X16263610Y-14612984D02*
X16244562Y-14612984D01*
X16244562Y-14612984D02*
X16225515Y-14603460D01*
X16225515Y-14603460D02*
X16215991Y-14593936D01*
X16215991Y-14593936D02*
X16206467Y-14574888D01*
X16206467Y-14574888D02*
X16196943Y-14536793D01*
X16196943Y-14536793D02*
X16196943Y-14489174D01*
X16196943Y-14489174D02*
X16206467Y-14451079D01*
X16206467Y-14451079D02*
X16215991Y-14432031D01*
X16215991Y-14432031D02*
X16225515Y-14422508D01*
X16225515Y-14422508D02*
X16244562Y-14412984D01*
X16435039Y-14412984D02*
X16454086Y-14412984D01*
X16454086Y-14412984D02*
X16473134Y-14422508D01*
X16473134Y-14422508D02*
X16482658Y-14432031D01*
X16482658Y-14432031D02*
X16492182Y-14451079D01*
X16492182Y-14451079D02*
X16501705Y-14489174D01*
X16501705Y-14489174D02*
X16501705Y-14536793D01*
X16501705Y-14536793D02*
X16492182Y-14574888D01*
X16492182Y-14574888D02*
X16482658Y-14593936D01*
X16482658Y-14593936D02*
X16473134Y-14603460D01*
X16473134Y-14603460D02*
X16454086Y-14612984D01*
X16454086Y-14612984D02*
X16435039Y-14612984D01*
X16435039Y-14612984D02*
X16415991Y-14603460D01*
X16415991Y-14603460D02*
X16406467Y-14593936D01*
X16406467Y-14593936D02*
X16396943Y-14574888D01*
X16396943Y-14574888D02*
X16387420Y-14536793D01*
X16387420Y-14536793D02*
X16387420Y-14489174D01*
X16387420Y-14489174D02*
X16396943Y-14451079D01*
X16396943Y-14451079D02*
X16406467Y-14432031D01*
X16406467Y-14432031D02*
X16415991Y-14422508D01*
X16415991Y-14422508D02*
X16435039Y-14412984D01*
X16587420Y-14612984D02*
X16587420Y-14479650D01*
X16587420Y-14498698D02*
X16596943Y-14489174D01*
X16596943Y-14489174D02*
X16615991Y-14479650D01*
X16615991Y-14479650D02*
X16644563Y-14479650D01*
X16644563Y-14479650D02*
X16663610Y-14489174D01*
X16663610Y-14489174D02*
X16673134Y-14508222D01*
X16673134Y-14508222D02*
X16673134Y-14612984D01*
X16673134Y-14508222D02*
X16682658Y-14489174D01*
X16682658Y-14489174D02*
X16701705Y-14479650D01*
X16701705Y-14479650D02*
X16730277Y-14479650D01*
X16730277Y-14479650D02*
X16749324Y-14489174D01*
X16749324Y-14489174D02*
X16758848Y-14508222D01*
X16758848Y-14508222D02*
X16758848Y-14612984D01*
X16854086Y-14612984D02*
X16854086Y-14479650D01*
X16854086Y-14498698D02*
X16863610Y-14489174D01*
X16863610Y-14489174D02*
X16882658Y-14479650D01*
X16882658Y-14479650D02*
X16911229Y-14479650D01*
X16911229Y-14479650D02*
X16930277Y-14489174D01*
X16930277Y-14489174D02*
X16939801Y-14508222D01*
X16939801Y-14508222D02*
X16939801Y-14612984D01*
X16939801Y-14508222D02*
X16949325Y-14489174D01*
X16949325Y-14489174D02*
X16968372Y-14479650D01*
X16968372Y-14479650D02*
X16996944Y-14479650D01*
X16996944Y-14479650D02*
X17015991Y-14489174D01*
X17015991Y-14489174D02*
X17025515Y-14508222D01*
X17025515Y-14508222D02*
X17025515Y-14612984D01*
X17415991Y-14403460D02*
X17244563Y-14660603D01*
X17673134Y-14412984D02*
X17692182Y-14412984D01*
X17692182Y-14412984D02*
X17711229Y-14422508D01*
X17711229Y-14422508D02*
X17720753Y-14432031D01*
X17720753Y-14432031D02*
X17730277Y-14451079D01*
X17730277Y-14451079D02*
X17739801Y-14489174D01*
X17739801Y-14489174D02*
X17739801Y-14536793D01*
X17739801Y-14536793D02*
X17730277Y-14574888D01*
X17730277Y-14574888D02*
X17720753Y-14593936D01*
X17720753Y-14593936D02*
X17711229Y-14603460D01*
X17711229Y-14603460D02*
X17692182Y-14612984D01*
X17692182Y-14612984D02*
X17673134Y-14612984D01*
X17673134Y-14612984D02*
X17654087Y-14603460D01*
X17654087Y-14603460D02*
X17644563Y-14593936D01*
X17644563Y-14593936D02*
X17635039Y-14574888D01*
X17635039Y-14574888D02*
X17625515Y-14536793D01*
X17625515Y-14536793D02*
X17625515Y-14489174D01*
X17625515Y-14489174D02*
X17635039Y-14451079D01*
X17635039Y-14451079D02*
X17644563Y-14432031D01*
X17644563Y-14432031D02*
X17654087Y-14422508D01*
X17654087Y-14422508D02*
X17673134Y-14412984D01*
X17825515Y-14593936D02*
X17835039Y-14603460D01*
X17835039Y-14603460D02*
X17825515Y-14612984D01*
X17825515Y-14612984D02*
X17815991Y-14603460D01*
X17815991Y-14603460D02*
X17825515Y-14593936D01*
X17825515Y-14593936D02*
X17825515Y-14612984D01*
X17958848Y-14412984D02*
X17977896Y-14412984D01*
X17977896Y-14412984D02*
X17996944Y-14422508D01*
X17996944Y-14422508D02*
X18006468Y-14432031D01*
X18006468Y-14432031D02*
X18015991Y-14451079D01*
X18015991Y-14451079D02*
X18025515Y-14489174D01*
X18025515Y-14489174D02*
X18025515Y-14536793D01*
X18025515Y-14536793D02*
X18015991Y-14574888D01*
X18015991Y-14574888D02*
X18006468Y-14593936D01*
X18006468Y-14593936D02*
X17996944Y-14603460D01*
X17996944Y-14603460D02*
X17977896Y-14612984D01*
X17977896Y-14612984D02*
X17958848Y-14612984D01*
X17958848Y-14612984D02*
X17939801Y-14603460D01*
X17939801Y-14603460D02*
X17930277Y-14593936D01*
X17930277Y-14593936D02*
X17920753Y-14574888D01*
X17920753Y-14574888D02*
X17911229Y-14536793D01*
X17911229Y-14536793D02*
X17911229Y-14489174D01*
X17911229Y-14489174D02*
X17920753Y-14451079D01*
X17920753Y-14451079D02*
X17930277Y-14432031D01*
X17930277Y-14432031D02*
X17939801Y-14422508D01*
X17939801Y-14422508D02*
X17958848Y-14412984D01*
X18101706Y-14432031D02*
X18111229Y-14422508D01*
X18111229Y-14422508D02*
X18130277Y-14412984D01*
X18130277Y-14412984D02*
X18177896Y-14412984D01*
X18177896Y-14412984D02*
X18196944Y-14422508D01*
X18196944Y-14422508D02*
X18206468Y-14432031D01*
X18206468Y-14432031D02*
X18215991Y-14451079D01*
X18215991Y-14451079D02*
X18215991Y-14470127D01*
X18215991Y-14470127D02*
X18206468Y-14498698D01*
X18206468Y-14498698D02*
X18092182Y-14612984D01*
X18092182Y-14612984D02*
X18215991Y-14612984D01*
X18282658Y-14412984D02*
X18406468Y-14412984D01*
X18406468Y-14412984D02*
X18339801Y-14489174D01*
X18339801Y-14489174D02*
X18368372Y-14489174D01*
X18368372Y-14489174D02*
X18387420Y-14498698D01*
X18387420Y-14498698D02*
X18396944Y-14508222D01*
X18396944Y-14508222D02*
X18406468Y-14527269D01*
X18406468Y-14527269D02*
X18406468Y-14574888D01*
X18406468Y-14574888D02*
X18396944Y-14593936D01*
X18396944Y-14593936D02*
X18387420Y-14603460D01*
X18387420Y-14603460D02*
X18368372Y-14612984D01*
X18368372Y-14612984D02*
X18311229Y-14612984D01*
X18311229Y-14612984D02*
X18292182Y-14603460D01*
X18292182Y-14603460D02*
X18282658Y-14593936D01*
X18577896Y-14412984D02*
X18539801Y-14412984D01*
X18539801Y-14412984D02*
X18520753Y-14422508D01*
X18520753Y-14422508D02*
X18511229Y-14432031D01*
X18511229Y-14432031D02*
X18492182Y-14460603D01*
X18492182Y-14460603D02*
X18482658Y-14498698D01*
X18482658Y-14498698D02*
X18482658Y-14574888D01*
X18482658Y-14574888D02*
X18492182Y-14593936D01*
X18492182Y-14593936D02*
X18501706Y-14603460D01*
X18501706Y-14603460D02*
X18520753Y-14612984D01*
X18520753Y-14612984D02*
X18558849Y-14612984D01*
X18558849Y-14612984D02*
X18577896Y-14603460D01*
X18577896Y-14603460D02*
X18587420Y-14593936D01*
X18587420Y-14593936D02*
X18596944Y-14574888D01*
X18596944Y-14574888D02*
X18596944Y-14527269D01*
X18596944Y-14527269D02*
X18587420Y-14508222D01*
X18587420Y-14508222D02*
X18577896Y-14498698D01*
X18577896Y-14498698D02*
X18558849Y-14489174D01*
X18558849Y-14489174D02*
X18520753Y-14489174D01*
X18520753Y-14489174D02*
X18501706Y-14498698D01*
X18501706Y-14498698D02*
X18492182Y-14508222D01*
X18492182Y-14508222D02*
X18482658Y-14527269D01*
X18673134Y-14412984D02*
X18673134Y-14451079D01*
X18749325Y-14412984D02*
X18749325Y-14451079D01*
X19044563Y-14689174D02*
X19035039Y-14679650D01*
X19035039Y-14679650D02*
X19015991Y-14651079D01*
X19015991Y-14651079D02*
X19006468Y-14632031D01*
X19006468Y-14632031D02*
X18996944Y-14603460D01*
X18996944Y-14603460D02*
X18987420Y-14555841D01*
X18987420Y-14555841D02*
X18987420Y-14517746D01*
X18987420Y-14517746D02*
X18996944Y-14470127D01*
X18996944Y-14470127D02*
X19006468Y-14441555D01*
X19006468Y-14441555D02*
X19015991Y-14422508D01*
X19015991Y-14422508D02*
X19035039Y-14393936D01*
X19035039Y-14393936D02*
X19044563Y-14384412D01*
X19149325Y-14498698D02*
X19130277Y-14489174D01*
X19130277Y-14489174D02*
X19120753Y-14479650D01*
X19120753Y-14479650D02*
X19111230Y-14460603D01*
X19111230Y-14460603D02*
X19111230Y-14451079D01*
X19111230Y-14451079D02*
X19120753Y-14432031D01*
X19120753Y-14432031D02*
X19130277Y-14422508D01*
X19130277Y-14422508D02*
X19149325Y-14412984D01*
X19149325Y-14412984D02*
X19187420Y-14412984D01*
X19187420Y-14412984D02*
X19206468Y-14422508D01*
X19206468Y-14422508D02*
X19215991Y-14432031D01*
X19215991Y-14432031D02*
X19225515Y-14451079D01*
X19225515Y-14451079D02*
X19225515Y-14460603D01*
X19225515Y-14460603D02*
X19215991Y-14479650D01*
X19215991Y-14479650D02*
X19206468Y-14489174D01*
X19206468Y-14489174D02*
X19187420Y-14498698D01*
X19187420Y-14498698D02*
X19149325Y-14498698D01*
X19149325Y-14498698D02*
X19130277Y-14508222D01*
X19130277Y-14508222D02*
X19120753Y-14517746D01*
X19120753Y-14517746D02*
X19111230Y-14536793D01*
X19111230Y-14536793D02*
X19111230Y-14574888D01*
X19111230Y-14574888D02*
X19120753Y-14593936D01*
X19120753Y-14593936D02*
X19130277Y-14603460D01*
X19130277Y-14603460D02*
X19149325Y-14612984D01*
X19149325Y-14612984D02*
X19187420Y-14612984D01*
X19187420Y-14612984D02*
X19206468Y-14603460D01*
X19206468Y-14603460D02*
X19215991Y-14593936D01*
X19215991Y-14593936D02*
X19225515Y-14574888D01*
X19225515Y-14574888D02*
X19225515Y-14536793D01*
X19225515Y-14536793D02*
X19215991Y-14517746D01*
X19215991Y-14517746D02*
X19206468Y-14508222D01*
X19206468Y-14508222D02*
X19187420Y-14498698D01*
X19463611Y-14612984D02*
X19463611Y-14412984D01*
X19549325Y-14612984D02*
X19549325Y-14508222D01*
X19549325Y-14508222D02*
X19539801Y-14489174D01*
X19539801Y-14489174D02*
X19520753Y-14479650D01*
X19520753Y-14479650D02*
X19492182Y-14479650D01*
X19492182Y-14479650D02*
X19473134Y-14489174D01*
X19473134Y-14489174D02*
X19463611Y-14498698D01*
X19673134Y-14612984D02*
X19654087Y-14603460D01*
X19654087Y-14603460D02*
X19644563Y-14593936D01*
X19644563Y-14593936D02*
X19635039Y-14574888D01*
X19635039Y-14574888D02*
X19635039Y-14517746D01*
X19635039Y-14517746D02*
X19644563Y-14498698D01*
X19644563Y-14498698D02*
X19654087Y-14489174D01*
X19654087Y-14489174D02*
X19673134Y-14479650D01*
X19673134Y-14479650D02*
X19701706Y-14479650D01*
X19701706Y-14479650D02*
X19720753Y-14489174D01*
X19720753Y-14489174D02*
X19730277Y-14498698D01*
X19730277Y-14498698D02*
X19739801Y-14517746D01*
X19739801Y-14517746D02*
X19739801Y-14574888D01*
X19739801Y-14574888D02*
X19730277Y-14593936D01*
X19730277Y-14593936D02*
X19720753Y-14603460D01*
X19720753Y-14603460D02*
X19701706Y-14612984D01*
X19701706Y-14612984D02*
X19673134Y-14612984D01*
X19854087Y-14612984D02*
X19835039Y-14603460D01*
X19835039Y-14603460D02*
X19825515Y-14584412D01*
X19825515Y-14584412D02*
X19825515Y-14412984D01*
X20006468Y-14603460D02*
X19987420Y-14612984D01*
X19987420Y-14612984D02*
X19949325Y-14612984D01*
X19949325Y-14612984D02*
X19930277Y-14603460D01*
X19930277Y-14603460D02*
X19920753Y-14584412D01*
X19920753Y-14584412D02*
X19920753Y-14508222D01*
X19920753Y-14508222D02*
X19930277Y-14489174D01*
X19930277Y-14489174D02*
X19949325Y-14479650D01*
X19949325Y-14479650D02*
X19987420Y-14479650D01*
X19987420Y-14479650D02*
X20006468Y-14489174D01*
X20006468Y-14489174D02*
X20015992Y-14508222D01*
X20015992Y-14508222D02*
X20015992Y-14527269D01*
X20015992Y-14527269D02*
X19920753Y-14546317D01*
X20092182Y-14603460D02*
X20111230Y-14612984D01*
X20111230Y-14612984D02*
X20149325Y-14612984D01*
X20149325Y-14612984D02*
X20168373Y-14603460D01*
X20168373Y-14603460D02*
X20177896Y-14584412D01*
X20177896Y-14584412D02*
X20177896Y-14574888D01*
X20177896Y-14574888D02*
X20168373Y-14555841D01*
X20168373Y-14555841D02*
X20149325Y-14546317D01*
X20149325Y-14546317D02*
X20120753Y-14546317D01*
X20120753Y-14546317D02*
X20101706Y-14536793D01*
X20101706Y-14536793D02*
X20092182Y-14517746D01*
X20092182Y-14517746D02*
X20092182Y-14508222D01*
X20092182Y-14508222D02*
X20101706Y-14489174D01*
X20101706Y-14489174D02*
X20120753Y-14479650D01*
X20120753Y-14479650D02*
X20149325Y-14479650D01*
X20149325Y-14479650D02*
X20168373Y-14489174D01*
X20244563Y-14689174D02*
X20254087Y-14679650D01*
X20254087Y-14679650D02*
X20273134Y-14651079D01*
X20273134Y-14651079D02*
X20282658Y-14632031D01*
X20282658Y-14632031D02*
X20292182Y-14603460D01*
X20292182Y-14603460D02*
X20301706Y-14555841D01*
X20301706Y-14555841D02*
X20301706Y-14517746D01*
X20301706Y-14517746D02*
X20292182Y-14470127D01*
X20292182Y-14470127D02*
X20282658Y-14441555D01*
X20282658Y-14441555D02*
X20273134Y-14422508D01*
X20273134Y-14422508D02*
X20254087Y-14393936D01*
X20254087Y-14393936D02*
X20244563Y-14384412D01*
D11*
X15457784Y-14813784D02*
X15457784Y-14757215D01*
X15401215Y-14757215D01*
X15401215Y-14813784D01*
X15457784Y-14813784D01*
D12*
X15768372Y-14676984D02*
X15787420Y-14676984D01*
X15787420Y-14676984D02*
X15806467Y-14686508D01*
X15806467Y-14686508D02*
X15815991Y-14696031D01*
X15815991Y-14696031D02*
X15825515Y-14715079D01*
X15825515Y-14715079D02*
X15835039Y-14753174D01*
X15835039Y-14753174D02*
X15835039Y-14800793D01*
X15835039Y-14800793D02*
X15825515Y-14838888D01*
X15825515Y-14838888D02*
X15815991Y-14857936D01*
X15815991Y-14857936D02*
X15806467Y-14867460D01*
X15806467Y-14867460D02*
X15787420Y-14876984D01*
X15787420Y-14876984D02*
X15768372Y-14876984D01*
X15768372Y-14876984D02*
X15749324Y-14867460D01*
X15749324Y-14867460D02*
X15739801Y-14857936D01*
X15739801Y-14857936D02*
X15730277Y-14838888D01*
X15730277Y-14838888D02*
X15720753Y-14800793D01*
X15720753Y-14800793D02*
X15720753Y-14753174D01*
X15720753Y-14753174D02*
X15730277Y-14715079D01*
X15730277Y-14715079D02*
X15739801Y-14696031D01*
X15739801Y-14696031D02*
X15749324Y-14686508D01*
X15749324Y-14686508D02*
X15768372Y-14676984D01*
X15920753Y-14857936D02*
X15930277Y-14867460D01*
X15930277Y-14867460D02*
X15920753Y-14876984D01*
X15920753Y-14876984D02*
X15911229Y-14867460D01*
X15911229Y-14867460D02*
X15920753Y-14857936D01*
X15920753Y-14857936D02*
X15920753Y-14876984D01*
X16044562Y-14762698D02*
X16025515Y-14753174D01*
X16025515Y-14753174D02*
X16015991Y-14743650D01*
X16015991Y-14743650D02*
X16006467Y-14724603D01*
X16006467Y-14724603D02*
X16006467Y-14715079D01*
X16006467Y-14715079D02*
X16015991Y-14696031D01*
X16015991Y-14696031D02*
X16025515Y-14686508D01*
X16025515Y-14686508D02*
X16044562Y-14676984D01*
X16044562Y-14676984D02*
X16082658Y-14676984D01*
X16082658Y-14676984D02*
X16101705Y-14686508D01*
X16101705Y-14686508D02*
X16111229Y-14696031D01*
X16111229Y-14696031D02*
X16120753Y-14715079D01*
X16120753Y-14715079D02*
X16120753Y-14724603D01*
X16120753Y-14724603D02*
X16111229Y-14743650D01*
X16111229Y-14743650D02*
X16101705Y-14753174D01*
X16101705Y-14753174D02*
X16082658Y-14762698D01*
X16082658Y-14762698D02*
X16044562Y-14762698D01*
X16044562Y-14762698D02*
X16025515Y-14772222D01*
X16025515Y-14772222D02*
X16015991Y-14781746D01*
X16015991Y-14781746D02*
X16006467Y-14800793D01*
X16006467Y-14800793D02*
X16006467Y-14838888D01*
X16006467Y-14838888D02*
X16015991Y-14857936D01*
X16015991Y-14857936D02*
X16025515Y-14867460D01*
X16025515Y-14867460D02*
X16044562Y-14876984D01*
X16044562Y-14876984D02*
X16082658Y-14876984D01*
X16082658Y-14876984D02*
X16101705Y-14867460D01*
X16101705Y-14867460D02*
X16111229Y-14857936D01*
X16111229Y-14857936D02*
X16120753Y-14838888D01*
X16120753Y-14838888D02*
X16120753Y-14800793D01*
X16120753Y-14800793D02*
X16111229Y-14781746D01*
X16111229Y-14781746D02*
X16101705Y-14772222D01*
X16101705Y-14772222D02*
X16082658Y-14762698D01*
X16244562Y-14676984D02*
X16263610Y-14676984D01*
X16263610Y-14676984D02*
X16282658Y-14686508D01*
X16282658Y-14686508D02*
X16292182Y-14696031D01*
X16292182Y-14696031D02*
X16301705Y-14715079D01*
X16301705Y-14715079D02*
X16311229Y-14753174D01*
X16311229Y-14753174D02*
X16311229Y-14800793D01*
X16311229Y-14800793D02*
X16301705Y-14838888D01*
X16301705Y-14838888D02*
X16292182Y-14857936D01*
X16292182Y-14857936D02*
X16282658Y-14867460D01*
X16282658Y-14867460D02*
X16263610Y-14876984D01*
X16263610Y-14876984D02*
X16244562Y-14876984D01*
X16244562Y-14876984D02*
X16225515Y-14867460D01*
X16225515Y-14867460D02*
X16215991Y-14857936D01*
X16215991Y-14857936D02*
X16206467Y-14838888D01*
X16206467Y-14838888D02*
X16196943Y-14800793D01*
X16196943Y-14800793D02*
X16196943Y-14753174D01*
X16196943Y-14753174D02*
X16206467Y-14715079D01*
X16206467Y-14715079D02*
X16215991Y-14696031D01*
X16215991Y-14696031D02*
X16225515Y-14686508D01*
X16225515Y-14686508D02*
X16244562Y-14676984D01*
X16435039Y-14676984D02*
X16454086Y-14676984D01*
X16454086Y-14676984D02*
X16473134Y-14686508D01*
X16473134Y-14686508D02*
X16482658Y-14696031D01*
X16482658Y-14696031D02*
X16492182Y-14715079D01*
X16492182Y-14715079D02*
X16501705Y-14753174D01*
X16501705Y-14753174D02*
X16501705Y-14800793D01*
X16501705Y-14800793D02*
X16492182Y-14838888D01*
X16492182Y-14838888D02*
X16482658Y-14857936D01*
X16482658Y-14857936D02*
X16473134Y-14867460D01*
X16473134Y-14867460D02*
X16454086Y-14876984D01*
X16454086Y-14876984D02*
X16435039Y-14876984D01*
X16435039Y-14876984D02*
X16415991Y-14867460D01*
X16415991Y-14867460D02*
X16406467Y-14857936D01*
X16406467Y-14857936D02*
X16396943Y-14838888D01*
X16396943Y-14838888D02*
X16387420Y-14800793D01*
X16387420Y-14800793D02*
X16387420Y-14753174D01*
X16387420Y-14753174D02*
X16396943Y-14715079D01*
X16396943Y-14715079D02*
X16406467Y-14696031D01*
X16406467Y-14696031D02*
X16415991Y-14686508D01*
X16415991Y-14686508D02*
X16435039Y-14676984D01*
X16587420Y-14876984D02*
X16587420Y-14743650D01*
X16587420Y-14762698D02*
X16596943Y-14753174D01*
X16596943Y-14753174D02*
X16615991Y-14743650D01*
X16615991Y-14743650D02*
X16644563Y-14743650D01*
X16644563Y-14743650D02*
X16663610Y-14753174D01*
X16663610Y-14753174D02*
X16673134Y-14772222D01*
X16673134Y-14772222D02*
X16673134Y-14876984D01*
X16673134Y-14772222D02*
X16682658Y-14753174D01*
X16682658Y-14753174D02*
X16701705Y-14743650D01*
X16701705Y-14743650D02*
X16730277Y-14743650D01*
X16730277Y-14743650D02*
X16749324Y-14753174D01*
X16749324Y-14753174D02*
X16758848Y-14772222D01*
X16758848Y-14772222D02*
X16758848Y-14876984D01*
X16854086Y-14876984D02*
X16854086Y-14743650D01*
X16854086Y-14762698D02*
X16863610Y-14753174D01*
X16863610Y-14753174D02*
X16882658Y-14743650D01*
X16882658Y-14743650D02*
X16911229Y-14743650D01*
X16911229Y-14743650D02*
X16930277Y-14753174D01*
X16930277Y-14753174D02*
X16939801Y-14772222D01*
X16939801Y-14772222D02*
X16939801Y-14876984D01*
X16939801Y-14772222D02*
X16949325Y-14753174D01*
X16949325Y-14753174D02*
X16968372Y-14743650D01*
X16968372Y-14743650D02*
X16996944Y-14743650D01*
X16996944Y-14743650D02*
X17015991Y-14753174D01*
X17015991Y-14753174D02*
X17025515Y-14772222D01*
X17025515Y-14772222D02*
X17025515Y-14876984D01*
X17415991Y-14667460D02*
X17244563Y-14924603D01*
X17673134Y-14676984D02*
X17692182Y-14676984D01*
X17692182Y-14676984D02*
X17711229Y-14686508D01*
X17711229Y-14686508D02*
X17720753Y-14696031D01*
X17720753Y-14696031D02*
X17730277Y-14715079D01*
X17730277Y-14715079D02*
X17739801Y-14753174D01*
X17739801Y-14753174D02*
X17739801Y-14800793D01*
X17739801Y-14800793D02*
X17730277Y-14838888D01*
X17730277Y-14838888D02*
X17720753Y-14857936D01*
X17720753Y-14857936D02*
X17711229Y-14867460D01*
X17711229Y-14867460D02*
X17692182Y-14876984D01*
X17692182Y-14876984D02*
X17673134Y-14876984D01*
X17673134Y-14876984D02*
X17654087Y-14867460D01*
X17654087Y-14867460D02*
X17644563Y-14857936D01*
X17644563Y-14857936D02*
X17635039Y-14838888D01*
X17635039Y-14838888D02*
X17625515Y-14800793D01*
X17625515Y-14800793D02*
X17625515Y-14753174D01*
X17625515Y-14753174D02*
X17635039Y-14715079D01*
X17635039Y-14715079D02*
X17644563Y-14696031D01*
X17644563Y-14696031D02*
X17654087Y-14686508D01*
X17654087Y-14686508D02*
X17673134Y-14676984D01*
X17825515Y-14857936D02*
X17835039Y-14867460D01*
X17835039Y-14867460D02*
X17825515Y-14876984D01*
X17825515Y-14876984D02*
X17815991Y-14867460D01*
X17815991Y-14867460D02*
X17825515Y-14857936D01*
X17825515Y-14857936D02*
X17825515Y-14876984D01*
X17958848Y-14676984D02*
X17977896Y-14676984D01*
X17977896Y-14676984D02*
X17996944Y-14686508D01*
X17996944Y-14686508D02*
X18006468Y-14696031D01*
X18006468Y-14696031D02*
X18015991Y-14715079D01*
X18015991Y-14715079D02*
X18025515Y-14753174D01*
X18025515Y-14753174D02*
X18025515Y-14800793D01*
X18025515Y-14800793D02*
X18015991Y-14838888D01*
X18015991Y-14838888D02*
X18006468Y-14857936D01*
X18006468Y-14857936D02*
X17996944Y-14867460D01*
X17996944Y-14867460D02*
X17977896Y-14876984D01*
X17977896Y-14876984D02*
X17958848Y-14876984D01*
X17958848Y-14876984D02*
X17939801Y-14867460D01*
X17939801Y-14867460D02*
X17930277Y-14857936D01*
X17930277Y-14857936D02*
X17920753Y-14838888D01*
X17920753Y-14838888D02*
X17911229Y-14800793D01*
X17911229Y-14800793D02*
X17911229Y-14753174D01*
X17911229Y-14753174D02*
X17920753Y-14715079D01*
X17920753Y-14715079D02*
X17930277Y-14696031D01*
X17930277Y-14696031D02*
X17939801Y-14686508D01*
X17939801Y-14686508D02*
X17958848Y-14676984D01*
X18092182Y-14676984D02*
X18215991Y-14676984D01*
X18215991Y-14676984D02*
X18149325Y-14753174D01*
X18149325Y-14753174D02*
X18177896Y-14753174D01*
X18177896Y-14753174D02*
X18196944Y-14762698D01*
X18196944Y-14762698D02*
X18206468Y-14772222D01*
X18206468Y-14772222D02*
X18215991Y-14791269D01*
X18215991Y-14791269D02*
X18215991Y-14838888D01*
X18215991Y-14838888D02*
X18206468Y-14857936D01*
X18206468Y-14857936D02*
X18196944Y-14867460D01*
X18196944Y-14867460D02*
X18177896Y-14876984D01*
X18177896Y-14876984D02*
X18120753Y-14876984D01*
X18120753Y-14876984D02*
X18101706Y-14867460D01*
X18101706Y-14867460D02*
X18092182Y-14857936D01*
X18406468Y-14876984D02*
X18292182Y-14876984D01*
X18349325Y-14876984D02*
X18349325Y-14676984D01*
X18349325Y-14676984D02*
X18330277Y-14705555D01*
X18330277Y-14705555D02*
X18311229Y-14724603D01*
X18311229Y-14724603D02*
X18292182Y-14734127D01*
X18587420Y-14676984D02*
X18492182Y-14676984D01*
X18492182Y-14676984D02*
X18482658Y-14772222D01*
X18482658Y-14772222D02*
X18492182Y-14762698D01*
X18492182Y-14762698D02*
X18511229Y-14753174D01*
X18511229Y-14753174D02*
X18558849Y-14753174D01*
X18558849Y-14753174D02*
X18577896Y-14762698D01*
X18577896Y-14762698D02*
X18587420Y-14772222D01*
X18587420Y-14772222D02*
X18596944Y-14791269D01*
X18596944Y-14791269D02*
X18596944Y-14838888D01*
X18596944Y-14838888D02*
X18587420Y-14857936D01*
X18587420Y-14857936D02*
X18577896Y-14867460D01*
X18577896Y-14867460D02*
X18558849Y-14876984D01*
X18558849Y-14876984D02*
X18511229Y-14876984D01*
X18511229Y-14876984D02*
X18492182Y-14867460D01*
X18492182Y-14867460D02*
X18482658Y-14857936D01*
X18673134Y-14676984D02*
X18673134Y-14715079D01*
X18749325Y-14676984D02*
X18749325Y-14715079D01*
X19044563Y-14953174D02*
X19035039Y-14943650D01*
X19035039Y-14943650D02*
X19015991Y-14915079D01*
X19015991Y-14915079D02*
X19006468Y-14896031D01*
X19006468Y-14896031D02*
X18996944Y-14867460D01*
X18996944Y-14867460D02*
X18987420Y-14819841D01*
X18987420Y-14819841D02*
X18987420Y-14781746D01*
X18987420Y-14781746D02*
X18996944Y-14734127D01*
X18996944Y-14734127D02*
X19006468Y-14705555D01*
X19006468Y-14705555D02*
X19015991Y-14686508D01*
X19015991Y-14686508D02*
X19035039Y-14657936D01*
X19035039Y-14657936D02*
X19044563Y-14648412D01*
X19101706Y-14676984D02*
X19225515Y-14676984D01*
X19225515Y-14676984D02*
X19158849Y-14753174D01*
X19158849Y-14753174D02*
X19187420Y-14753174D01*
X19187420Y-14753174D02*
X19206468Y-14762698D01*
X19206468Y-14762698D02*
X19215991Y-14772222D01*
X19215991Y-14772222D02*
X19225515Y-14791269D01*
X19225515Y-14791269D02*
X19225515Y-14838888D01*
X19225515Y-14838888D02*
X19215991Y-14857936D01*
X19215991Y-14857936D02*
X19206468Y-14867460D01*
X19206468Y-14867460D02*
X19187420Y-14876984D01*
X19187420Y-14876984D02*
X19130277Y-14876984D01*
X19130277Y-14876984D02*
X19111230Y-14867460D01*
X19111230Y-14867460D02*
X19101706Y-14857936D01*
X19349325Y-14676984D02*
X19368372Y-14676984D01*
X19368372Y-14676984D02*
X19387420Y-14686508D01*
X19387420Y-14686508D02*
X19396944Y-14696031D01*
X19396944Y-14696031D02*
X19406468Y-14715079D01*
X19406468Y-14715079D02*
X19415991Y-14753174D01*
X19415991Y-14753174D02*
X19415991Y-14800793D01*
X19415991Y-14800793D02*
X19406468Y-14838888D01*
X19406468Y-14838888D02*
X19396944Y-14857936D01*
X19396944Y-14857936D02*
X19387420Y-14867460D01*
X19387420Y-14867460D02*
X19368372Y-14876984D01*
X19368372Y-14876984D02*
X19349325Y-14876984D01*
X19349325Y-14876984D02*
X19330277Y-14867460D01*
X19330277Y-14867460D02*
X19320753Y-14857936D01*
X19320753Y-14857936D02*
X19311230Y-14838888D01*
X19311230Y-14838888D02*
X19301706Y-14800793D01*
X19301706Y-14800793D02*
X19301706Y-14753174D01*
X19301706Y-14753174D02*
X19311230Y-14715079D01*
X19311230Y-14715079D02*
X19320753Y-14696031D01*
X19320753Y-14696031D02*
X19330277Y-14686508D01*
X19330277Y-14686508D02*
X19349325Y-14676984D01*
X19654087Y-14876984D02*
X19654087Y-14676984D01*
X19739801Y-14876984D02*
X19739801Y-14772222D01*
X19739801Y-14772222D02*
X19730277Y-14753174D01*
X19730277Y-14753174D02*
X19711230Y-14743650D01*
X19711230Y-14743650D02*
X19682658Y-14743650D01*
X19682658Y-14743650D02*
X19663611Y-14753174D01*
X19663611Y-14753174D02*
X19654087Y-14762698D01*
X19863611Y-14876984D02*
X19844563Y-14867460D01*
X19844563Y-14867460D02*
X19835039Y-14857936D01*
X19835039Y-14857936D02*
X19825515Y-14838888D01*
X19825515Y-14838888D02*
X19825515Y-14781746D01*
X19825515Y-14781746D02*
X19835039Y-14762698D01*
X19835039Y-14762698D02*
X19844563Y-14753174D01*
X19844563Y-14753174D02*
X19863611Y-14743650D01*
X19863611Y-14743650D02*
X19892182Y-14743650D01*
X19892182Y-14743650D02*
X19911230Y-14753174D01*
X19911230Y-14753174D02*
X19920753Y-14762698D01*
X19920753Y-14762698D02*
X19930277Y-14781746D01*
X19930277Y-14781746D02*
X19930277Y-14838888D01*
X19930277Y-14838888D02*
X19920753Y-14857936D01*
X19920753Y-14857936D02*
X19911230Y-14867460D01*
X19911230Y-14867460D02*
X19892182Y-14876984D01*
X19892182Y-14876984D02*
X19863611Y-14876984D01*
X20044563Y-14876984D02*
X20025515Y-14867460D01*
X20025515Y-14867460D02*
X20015992Y-14848412D01*
X20015992Y-14848412D02*
X20015992Y-14676984D01*
X20196944Y-14867460D02*
X20177896Y-14876984D01*
X20177896Y-14876984D02*
X20139801Y-14876984D01*
X20139801Y-14876984D02*
X20120753Y-14867460D01*
X20120753Y-14867460D02*
X20111230Y-14848412D01*
X20111230Y-14848412D02*
X20111230Y-14772222D01*
X20111230Y-14772222D02*
X20120753Y-14753174D01*
X20120753Y-14753174D02*
X20139801Y-14743650D01*
X20139801Y-14743650D02*
X20177896Y-14743650D01*
X20177896Y-14743650D02*
X20196944Y-14753174D01*
X20196944Y-14753174D02*
X20206468Y-14772222D01*
X20206468Y-14772222D02*
X20206468Y-14791269D01*
X20206468Y-14791269D02*
X20111230Y-14810317D01*
X20282658Y-14867460D02*
X20301706Y-14876984D01*
X20301706Y-14876984D02*
X20339801Y-14876984D01*
X20339801Y-14876984D02*
X20358849Y-14867460D01*
X20358849Y-14867460D02*
X20368373Y-14848412D01*
X20368373Y-14848412D02*
X20368373Y-14838888D01*
X20368373Y-14838888D02*
X20358849Y-14819841D01*
X20358849Y-14819841D02*
X20339801Y-14810317D01*
X20339801Y-14810317D02*
X20311230Y-14810317D01*
X20311230Y-14810317D02*
X20292182Y-14800793D01*
X20292182Y-14800793D02*
X20282658Y-14781746D01*
X20282658Y-14781746D02*
X20282658Y-14772222D01*
X20282658Y-14772222D02*
X20292182Y-14753174D01*
X20292182Y-14753174D02*
X20311230Y-14743650D01*
X20311230Y-14743650D02*
X20339801Y-14743650D01*
X20339801Y-14743650D02*
X20358849Y-14753174D01*
X20435039Y-14953174D02*
X20444563Y-14943650D01*
X20444563Y-14943650D02*
X20463611Y-14915079D01*
X20463611Y-14915079D02*
X20473134Y-14896031D01*
X20473134Y-14896031D02*
X20482658Y-14867460D01*
X20482658Y-14867460D02*
X20492182Y-14819841D01*
X20492182Y-14819841D02*
X20492182Y-14781746D01*
X20492182Y-14781746D02*
X20482658Y-14734127D01*
X20482658Y-14734127D02*
X20473134Y-14705555D01*
X20473134Y-14705555D02*
X20463611Y-14686508D01*
X20463611Y-14686508D02*
X20444563Y-14657936D01*
X20444563Y-14657936D02*
X20435039Y-14648412D01*
D11*
X15424500Y-15094500D02*
X15469500Y-15049500D01*
X15424500Y-15004500D01*
X15379500Y-15049500D01*
X15424500Y-15094500D01*
D12*
X15768372Y-14940984D02*
X15787420Y-14940984D01*
X15787420Y-14940984D02*
X15806467Y-14950508D01*
X15806467Y-14950508D02*
X15815991Y-14960031D01*
X15815991Y-14960031D02*
X15825515Y-14979079D01*
X15825515Y-14979079D02*
X15835039Y-15017174D01*
X15835039Y-15017174D02*
X15835039Y-15064793D01*
X15835039Y-15064793D02*
X15825515Y-15102888D01*
X15825515Y-15102888D02*
X15815991Y-15121936D01*
X15815991Y-15121936D02*
X15806467Y-15131460D01*
X15806467Y-15131460D02*
X15787420Y-15140984D01*
X15787420Y-15140984D02*
X15768372Y-15140984D01*
X15768372Y-15140984D02*
X15749324Y-15131460D01*
X15749324Y-15131460D02*
X15739801Y-15121936D01*
X15739801Y-15121936D02*
X15730277Y-15102888D01*
X15730277Y-15102888D02*
X15720753Y-15064793D01*
X15720753Y-15064793D02*
X15720753Y-15017174D01*
X15720753Y-15017174D02*
X15730277Y-14979079D01*
X15730277Y-14979079D02*
X15739801Y-14960031D01*
X15739801Y-14960031D02*
X15749324Y-14950508D01*
X15749324Y-14950508D02*
X15768372Y-14940984D01*
X15920753Y-15121936D02*
X15930277Y-15131460D01*
X15930277Y-15131460D02*
X15920753Y-15140984D01*
X15920753Y-15140984D02*
X15911229Y-15131460D01*
X15911229Y-15131460D02*
X15920753Y-15121936D01*
X15920753Y-15121936D02*
X15920753Y-15140984D01*
X16025515Y-15140984D02*
X16063610Y-15140984D01*
X16063610Y-15140984D02*
X16082658Y-15131460D01*
X16082658Y-15131460D02*
X16092182Y-15121936D01*
X16092182Y-15121936D02*
X16111229Y-15093365D01*
X16111229Y-15093365D02*
X16120753Y-15055269D01*
X16120753Y-15055269D02*
X16120753Y-14979079D01*
X16120753Y-14979079D02*
X16111229Y-14960031D01*
X16111229Y-14960031D02*
X16101705Y-14950508D01*
X16101705Y-14950508D02*
X16082658Y-14940984D01*
X16082658Y-14940984D02*
X16044562Y-14940984D01*
X16044562Y-14940984D02*
X16025515Y-14950508D01*
X16025515Y-14950508D02*
X16015991Y-14960031D01*
X16015991Y-14960031D02*
X16006467Y-14979079D01*
X16006467Y-14979079D02*
X16006467Y-15026698D01*
X16006467Y-15026698D02*
X16015991Y-15045746D01*
X16015991Y-15045746D02*
X16025515Y-15055269D01*
X16025515Y-15055269D02*
X16044562Y-15064793D01*
X16044562Y-15064793D02*
X16082658Y-15064793D01*
X16082658Y-15064793D02*
X16101705Y-15055269D01*
X16101705Y-15055269D02*
X16111229Y-15045746D01*
X16111229Y-15045746D02*
X16120753Y-15026698D01*
X16244562Y-14940984D02*
X16263610Y-14940984D01*
X16263610Y-14940984D02*
X16282658Y-14950508D01*
X16282658Y-14950508D02*
X16292182Y-14960031D01*
X16292182Y-14960031D02*
X16301705Y-14979079D01*
X16301705Y-14979079D02*
X16311229Y-15017174D01*
X16311229Y-15017174D02*
X16311229Y-15064793D01*
X16311229Y-15064793D02*
X16301705Y-15102888D01*
X16301705Y-15102888D02*
X16292182Y-15121936D01*
X16292182Y-15121936D02*
X16282658Y-15131460D01*
X16282658Y-15131460D02*
X16263610Y-15140984D01*
X16263610Y-15140984D02*
X16244562Y-15140984D01*
X16244562Y-15140984D02*
X16225515Y-15131460D01*
X16225515Y-15131460D02*
X16215991Y-15121936D01*
X16215991Y-15121936D02*
X16206467Y-15102888D01*
X16206467Y-15102888D02*
X16196943Y-15064793D01*
X16196943Y-15064793D02*
X16196943Y-15017174D01*
X16196943Y-15017174D02*
X16206467Y-14979079D01*
X16206467Y-14979079D02*
X16215991Y-14960031D01*
X16215991Y-14960031D02*
X16225515Y-14950508D01*
X16225515Y-14950508D02*
X16244562Y-14940984D01*
X16435039Y-14940984D02*
X16454086Y-14940984D01*
X16454086Y-14940984D02*
X16473134Y-14950508D01*
X16473134Y-14950508D02*
X16482658Y-14960031D01*
X16482658Y-14960031D02*
X16492182Y-14979079D01*
X16492182Y-14979079D02*
X16501705Y-15017174D01*
X16501705Y-15017174D02*
X16501705Y-15064793D01*
X16501705Y-15064793D02*
X16492182Y-15102888D01*
X16492182Y-15102888D02*
X16482658Y-15121936D01*
X16482658Y-15121936D02*
X16473134Y-15131460D01*
X16473134Y-15131460D02*
X16454086Y-15140984D01*
X16454086Y-15140984D02*
X16435039Y-15140984D01*
X16435039Y-15140984D02*
X16415991Y-15131460D01*
X16415991Y-15131460D02*
X16406467Y-15121936D01*
X16406467Y-15121936D02*
X16396943Y-15102888D01*
X16396943Y-15102888D02*
X16387420Y-15064793D01*
X16387420Y-15064793D02*
X16387420Y-15017174D01*
X16387420Y-15017174D02*
X16396943Y-14979079D01*
X16396943Y-14979079D02*
X16406467Y-14960031D01*
X16406467Y-14960031D02*
X16415991Y-14950508D01*
X16415991Y-14950508D02*
X16435039Y-14940984D01*
X16587420Y-15140984D02*
X16587420Y-15007650D01*
X16587420Y-15026698D02*
X16596943Y-15017174D01*
X16596943Y-15017174D02*
X16615991Y-15007650D01*
X16615991Y-15007650D02*
X16644563Y-15007650D01*
X16644563Y-15007650D02*
X16663610Y-15017174D01*
X16663610Y-15017174D02*
X16673134Y-15036222D01*
X16673134Y-15036222D02*
X16673134Y-15140984D01*
X16673134Y-15036222D02*
X16682658Y-15017174D01*
X16682658Y-15017174D02*
X16701705Y-15007650D01*
X16701705Y-15007650D02*
X16730277Y-15007650D01*
X16730277Y-15007650D02*
X16749324Y-15017174D01*
X16749324Y-15017174D02*
X16758848Y-15036222D01*
X16758848Y-15036222D02*
X16758848Y-15140984D01*
X16854086Y-15140984D02*
X16854086Y-15007650D01*
X16854086Y-15026698D02*
X16863610Y-15017174D01*
X16863610Y-15017174D02*
X16882658Y-15007650D01*
X16882658Y-15007650D02*
X16911229Y-15007650D01*
X16911229Y-15007650D02*
X16930277Y-15017174D01*
X16930277Y-15017174D02*
X16939801Y-15036222D01*
X16939801Y-15036222D02*
X16939801Y-15140984D01*
X16939801Y-15036222D02*
X16949325Y-15017174D01*
X16949325Y-15017174D02*
X16968372Y-15007650D01*
X16968372Y-15007650D02*
X16996944Y-15007650D01*
X16996944Y-15007650D02*
X17015991Y-15017174D01*
X17015991Y-15017174D02*
X17025515Y-15036222D01*
X17025515Y-15036222D02*
X17025515Y-15140984D01*
X17415991Y-14931460D02*
X17244563Y-15188603D01*
X17673134Y-14940984D02*
X17692182Y-14940984D01*
X17692182Y-14940984D02*
X17711229Y-14950508D01*
X17711229Y-14950508D02*
X17720753Y-14960031D01*
X17720753Y-14960031D02*
X17730277Y-14979079D01*
X17730277Y-14979079D02*
X17739801Y-15017174D01*
X17739801Y-15017174D02*
X17739801Y-15064793D01*
X17739801Y-15064793D02*
X17730277Y-15102888D01*
X17730277Y-15102888D02*
X17720753Y-15121936D01*
X17720753Y-15121936D02*
X17711229Y-15131460D01*
X17711229Y-15131460D02*
X17692182Y-15140984D01*
X17692182Y-15140984D02*
X17673134Y-15140984D01*
X17673134Y-15140984D02*
X17654087Y-15131460D01*
X17654087Y-15131460D02*
X17644563Y-15121936D01*
X17644563Y-15121936D02*
X17635039Y-15102888D01*
X17635039Y-15102888D02*
X17625515Y-15064793D01*
X17625515Y-15064793D02*
X17625515Y-15017174D01*
X17625515Y-15017174D02*
X17635039Y-14979079D01*
X17635039Y-14979079D02*
X17644563Y-14960031D01*
X17644563Y-14960031D02*
X17654087Y-14950508D01*
X17654087Y-14950508D02*
X17673134Y-14940984D01*
X17825515Y-15121936D02*
X17835039Y-15131460D01*
X17835039Y-15131460D02*
X17825515Y-15140984D01*
X17825515Y-15140984D02*
X17815991Y-15131460D01*
X17815991Y-15131460D02*
X17825515Y-15121936D01*
X17825515Y-15121936D02*
X17825515Y-15140984D01*
X17958848Y-14940984D02*
X17977896Y-14940984D01*
X17977896Y-14940984D02*
X17996944Y-14950508D01*
X17996944Y-14950508D02*
X18006468Y-14960031D01*
X18006468Y-14960031D02*
X18015991Y-14979079D01*
X18015991Y-14979079D02*
X18025515Y-15017174D01*
X18025515Y-15017174D02*
X18025515Y-15064793D01*
X18025515Y-15064793D02*
X18015991Y-15102888D01*
X18015991Y-15102888D02*
X18006468Y-15121936D01*
X18006468Y-15121936D02*
X17996944Y-15131460D01*
X17996944Y-15131460D02*
X17977896Y-15140984D01*
X17977896Y-15140984D02*
X17958848Y-15140984D01*
X17958848Y-15140984D02*
X17939801Y-15131460D01*
X17939801Y-15131460D02*
X17930277Y-15121936D01*
X17930277Y-15121936D02*
X17920753Y-15102888D01*
X17920753Y-15102888D02*
X17911229Y-15064793D01*
X17911229Y-15064793D02*
X17911229Y-15017174D01*
X17911229Y-15017174D02*
X17920753Y-14979079D01*
X17920753Y-14979079D02*
X17930277Y-14960031D01*
X17930277Y-14960031D02*
X17939801Y-14950508D01*
X17939801Y-14950508D02*
X17958848Y-14940984D01*
X18092182Y-14940984D02*
X18215991Y-14940984D01*
X18215991Y-14940984D02*
X18149325Y-15017174D01*
X18149325Y-15017174D02*
X18177896Y-15017174D01*
X18177896Y-15017174D02*
X18196944Y-15026698D01*
X18196944Y-15026698D02*
X18206468Y-15036222D01*
X18206468Y-15036222D02*
X18215991Y-15055269D01*
X18215991Y-15055269D02*
X18215991Y-15102888D01*
X18215991Y-15102888D02*
X18206468Y-15121936D01*
X18206468Y-15121936D02*
X18196944Y-15131460D01*
X18196944Y-15131460D02*
X18177896Y-15140984D01*
X18177896Y-15140984D02*
X18120753Y-15140984D01*
X18120753Y-15140984D02*
X18101706Y-15131460D01*
X18101706Y-15131460D02*
X18092182Y-15121936D01*
X18396944Y-14940984D02*
X18301706Y-14940984D01*
X18301706Y-14940984D02*
X18292182Y-15036222D01*
X18292182Y-15036222D02*
X18301706Y-15026698D01*
X18301706Y-15026698D02*
X18320753Y-15017174D01*
X18320753Y-15017174D02*
X18368372Y-15017174D01*
X18368372Y-15017174D02*
X18387420Y-15026698D01*
X18387420Y-15026698D02*
X18396944Y-15036222D01*
X18396944Y-15036222D02*
X18406468Y-15055269D01*
X18406468Y-15055269D02*
X18406468Y-15102888D01*
X18406468Y-15102888D02*
X18396944Y-15121936D01*
X18396944Y-15121936D02*
X18387420Y-15131460D01*
X18387420Y-15131460D02*
X18368372Y-15140984D01*
X18368372Y-15140984D02*
X18320753Y-15140984D01*
X18320753Y-15140984D02*
X18301706Y-15131460D01*
X18301706Y-15131460D02*
X18292182Y-15121936D01*
X18577896Y-15007650D02*
X18577896Y-15140984D01*
X18530277Y-14931460D02*
X18482658Y-15074317D01*
X18482658Y-15074317D02*
X18606468Y-15074317D01*
X18673134Y-14940984D02*
X18673134Y-14979079D01*
X18749325Y-14940984D02*
X18749325Y-14979079D01*
X19044563Y-15217174D02*
X19035039Y-15207650D01*
X19035039Y-15207650D02*
X19015991Y-15179079D01*
X19015991Y-15179079D02*
X19006468Y-15160031D01*
X19006468Y-15160031D02*
X18996944Y-15131460D01*
X18996944Y-15131460D02*
X18987420Y-15083841D01*
X18987420Y-15083841D02*
X18987420Y-15045746D01*
X18987420Y-15045746D02*
X18996944Y-14998127D01*
X18996944Y-14998127D02*
X19006468Y-14969555D01*
X19006468Y-14969555D02*
X19015991Y-14950508D01*
X19015991Y-14950508D02*
X19035039Y-14921936D01*
X19035039Y-14921936D02*
X19044563Y-14912412D01*
X19206468Y-15007650D02*
X19206468Y-15140984D01*
X19158849Y-14931460D02*
X19111230Y-15074317D01*
X19111230Y-15074317D02*
X19235039Y-15074317D01*
X19463611Y-15140984D02*
X19463611Y-14940984D01*
X19549325Y-15140984D02*
X19549325Y-15036222D01*
X19549325Y-15036222D02*
X19539801Y-15017174D01*
X19539801Y-15017174D02*
X19520753Y-15007650D01*
X19520753Y-15007650D02*
X19492182Y-15007650D01*
X19492182Y-15007650D02*
X19473134Y-15017174D01*
X19473134Y-15017174D02*
X19463611Y-15026698D01*
X19673134Y-15140984D02*
X19654087Y-15131460D01*
X19654087Y-15131460D02*
X19644563Y-15121936D01*
X19644563Y-15121936D02*
X19635039Y-15102888D01*
X19635039Y-15102888D02*
X19635039Y-15045746D01*
X19635039Y-15045746D02*
X19644563Y-15026698D01*
X19644563Y-15026698D02*
X19654087Y-15017174D01*
X19654087Y-15017174D02*
X19673134Y-15007650D01*
X19673134Y-15007650D02*
X19701706Y-15007650D01*
X19701706Y-15007650D02*
X19720753Y-15017174D01*
X19720753Y-15017174D02*
X19730277Y-15026698D01*
X19730277Y-15026698D02*
X19739801Y-15045746D01*
X19739801Y-15045746D02*
X19739801Y-15102888D01*
X19739801Y-15102888D02*
X19730277Y-15121936D01*
X19730277Y-15121936D02*
X19720753Y-15131460D01*
X19720753Y-15131460D02*
X19701706Y-15140984D01*
X19701706Y-15140984D02*
X19673134Y-15140984D01*
X19854087Y-15140984D02*
X19835039Y-15131460D01*
X19835039Y-15131460D02*
X19825515Y-15112412D01*
X19825515Y-15112412D02*
X19825515Y-14940984D01*
X20006468Y-15131460D02*
X19987420Y-15140984D01*
X19987420Y-15140984D02*
X19949325Y-15140984D01*
X19949325Y-15140984D02*
X19930277Y-15131460D01*
X19930277Y-15131460D02*
X19920753Y-15112412D01*
X19920753Y-15112412D02*
X19920753Y-15036222D01*
X19920753Y-15036222D02*
X19930277Y-15017174D01*
X19930277Y-15017174D02*
X19949325Y-15007650D01*
X19949325Y-15007650D02*
X19987420Y-15007650D01*
X19987420Y-15007650D02*
X20006468Y-15017174D01*
X20006468Y-15017174D02*
X20015992Y-15036222D01*
X20015992Y-15036222D02*
X20015992Y-15055269D01*
X20015992Y-15055269D02*
X19920753Y-15074317D01*
X20092182Y-15131460D02*
X20111230Y-15140984D01*
X20111230Y-15140984D02*
X20149325Y-15140984D01*
X20149325Y-15140984D02*
X20168373Y-15131460D01*
X20168373Y-15131460D02*
X20177896Y-15112412D01*
X20177896Y-15112412D02*
X20177896Y-15102888D01*
X20177896Y-15102888D02*
X20168373Y-15083841D01*
X20168373Y-15083841D02*
X20149325Y-15074317D01*
X20149325Y-15074317D02*
X20120753Y-15074317D01*
X20120753Y-15074317D02*
X20101706Y-15064793D01*
X20101706Y-15064793D02*
X20092182Y-15045746D01*
X20092182Y-15045746D02*
X20092182Y-15036222D01*
X20092182Y-15036222D02*
X20101706Y-15017174D01*
X20101706Y-15017174D02*
X20120753Y-15007650D01*
X20120753Y-15007650D02*
X20149325Y-15007650D01*
X20149325Y-15007650D02*
X20168373Y-15017174D01*
X20244563Y-15217174D02*
X20254087Y-15207650D01*
X20254087Y-15207650D02*
X20273134Y-15179079D01*
X20273134Y-15179079D02*
X20282658Y-15160031D01*
X20282658Y-15160031D02*
X20292182Y-15131460D01*
X20292182Y-15131460D02*
X20301706Y-15083841D01*
X20301706Y-15083841D02*
X20301706Y-15045746D01*
X20301706Y-15045746D02*
X20292182Y-14998127D01*
X20292182Y-14998127D02*
X20282658Y-14969555D01*
X20282658Y-14969555D02*
X20273134Y-14950508D01*
X20273134Y-14950508D02*
X20254087Y-14921936D01*
X20254087Y-14921936D02*
X20244563Y-14912412D01*
D11*
X15369500Y-15263500D02*
X15469500Y-15363500D01*
X15469500Y-15263500D02*
X15369500Y-15363500D01*
X15469500Y-15313500D02*
G75*
G02*
X15369500Y-15313500I-50000J0D01*
G01*
X15369500Y-15313500D02*
G75*
G02*
X15469500Y-15313500I50000J0D01*
G01*
D12*
X15835039Y-15404984D02*
X15720753Y-15404984D01*
X15777896Y-15404984D02*
X15777896Y-15204984D01*
X15777896Y-15204984D02*
X15758848Y-15233555D01*
X15758848Y-15233555D02*
X15739801Y-15252603D01*
X15739801Y-15252603D02*
X15720753Y-15262127D01*
X15920753Y-15385936D02*
X15930277Y-15395460D01*
X15930277Y-15395460D02*
X15920753Y-15404984D01*
X15920753Y-15404984D02*
X15911229Y-15395460D01*
X15911229Y-15395460D02*
X15920753Y-15385936D01*
X15920753Y-15385936D02*
X15920753Y-15404984D01*
X16054086Y-15204984D02*
X16073134Y-15204984D01*
X16073134Y-15204984D02*
X16092182Y-15214508D01*
X16092182Y-15214508D02*
X16101705Y-15224031D01*
X16101705Y-15224031D02*
X16111229Y-15243079D01*
X16111229Y-15243079D02*
X16120753Y-15281174D01*
X16120753Y-15281174D02*
X16120753Y-15328793D01*
X16120753Y-15328793D02*
X16111229Y-15366888D01*
X16111229Y-15366888D02*
X16101705Y-15385936D01*
X16101705Y-15385936D02*
X16092182Y-15395460D01*
X16092182Y-15395460D02*
X16073134Y-15404984D01*
X16073134Y-15404984D02*
X16054086Y-15404984D01*
X16054086Y-15404984D02*
X16035039Y-15395460D01*
X16035039Y-15395460D02*
X16025515Y-15385936D01*
X16025515Y-15385936D02*
X16015991Y-15366888D01*
X16015991Y-15366888D02*
X16006467Y-15328793D01*
X16006467Y-15328793D02*
X16006467Y-15281174D01*
X16006467Y-15281174D02*
X16015991Y-15243079D01*
X16015991Y-15243079D02*
X16025515Y-15224031D01*
X16025515Y-15224031D02*
X16035039Y-15214508D01*
X16035039Y-15214508D02*
X16054086Y-15204984D01*
X16244562Y-15204984D02*
X16263610Y-15204984D01*
X16263610Y-15204984D02*
X16282658Y-15214508D01*
X16282658Y-15214508D02*
X16292182Y-15224031D01*
X16292182Y-15224031D02*
X16301705Y-15243079D01*
X16301705Y-15243079D02*
X16311229Y-15281174D01*
X16311229Y-15281174D02*
X16311229Y-15328793D01*
X16311229Y-15328793D02*
X16301705Y-15366888D01*
X16301705Y-15366888D02*
X16292182Y-15385936D01*
X16292182Y-15385936D02*
X16282658Y-15395460D01*
X16282658Y-15395460D02*
X16263610Y-15404984D01*
X16263610Y-15404984D02*
X16244562Y-15404984D01*
X16244562Y-15404984D02*
X16225515Y-15395460D01*
X16225515Y-15395460D02*
X16215991Y-15385936D01*
X16215991Y-15385936D02*
X16206467Y-15366888D01*
X16206467Y-15366888D02*
X16196943Y-15328793D01*
X16196943Y-15328793D02*
X16196943Y-15281174D01*
X16196943Y-15281174D02*
X16206467Y-15243079D01*
X16206467Y-15243079D02*
X16215991Y-15224031D01*
X16215991Y-15224031D02*
X16225515Y-15214508D01*
X16225515Y-15214508D02*
X16244562Y-15204984D01*
X16435039Y-15204984D02*
X16454086Y-15204984D01*
X16454086Y-15204984D02*
X16473134Y-15214508D01*
X16473134Y-15214508D02*
X16482658Y-15224031D01*
X16482658Y-15224031D02*
X16492182Y-15243079D01*
X16492182Y-15243079D02*
X16501705Y-15281174D01*
X16501705Y-15281174D02*
X16501705Y-15328793D01*
X16501705Y-15328793D02*
X16492182Y-15366888D01*
X16492182Y-15366888D02*
X16482658Y-15385936D01*
X16482658Y-15385936D02*
X16473134Y-15395460D01*
X16473134Y-15395460D02*
X16454086Y-15404984D01*
X16454086Y-15404984D02*
X16435039Y-15404984D01*
X16435039Y-15404984D02*
X16415991Y-15395460D01*
X16415991Y-15395460D02*
X16406467Y-15385936D01*
X16406467Y-15385936D02*
X16396943Y-15366888D01*
X16396943Y-15366888D02*
X16387420Y-15328793D01*
X16387420Y-15328793D02*
X16387420Y-15281174D01*
X16387420Y-15281174D02*
X16396943Y-15243079D01*
X16396943Y-15243079D02*
X16406467Y-15224031D01*
X16406467Y-15224031D02*
X16415991Y-15214508D01*
X16415991Y-15214508D02*
X16435039Y-15204984D01*
X16587420Y-15404984D02*
X16587420Y-15271650D01*
X16587420Y-15290698D02*
X16596943Y-15281174D01*
X16596943Y-15281174D02*
X16615991Y-15271650D01*
X16615991Y-15271650D02*
X16644563Y-15271650D01*
X16644563Y-15271650D02*
X16663610Y-15281174D01*
X16663610Y-15281174D02*
X16673134Y-15300222D01*
X16673134Y-15300222D02*
X16673134Y-15404984D01*
X16673134Y-15300222D02*
X16682658Y-15281174D01*
X16682658Y-15281174D02*
X16701705Y-15271650D01*
X16701705Y-15271650D02*
X16730277Y-15271650D01*
X16730277Y-15271650D02*
X16749324Y-15281174D01*
X16749324Y-15281174D02*
X16758848Y-15300222D01*
X16758848Y-15300222D02*
X16758848Y-15404984D01*
X16854086Y-15404984D02*
X16854086Y-15271650D01*
X16854086Y-15290698D02*
X16863610Y-15281174D01*
X16863610Y-15281174D02*
X16882658Y-15271650D01*
X16882658Y-15271650D02*
X16911229Y-15271650D01*
X16911229Y-15271650D02*
X16930277Y-15281174D01*
X16930277Y-15281174D02*
X16939801Y-15300222D01*
X16939801Y-15300222D02*
X16939801Y-15404984D01*
X16939801Y-15300222D02*
X16949325Y-15281174D01*
X16949325Y-15281174D02*
X16968372Y-15271650D01*
X16968372Y-15271650D02*
X16996944Y-15271650D01*
X16996944Y-15271650D02*
X17015991Y-15281174D01*
X17015991Y-15281174D02*
X17025515Y-15300222D01*
X17025515Y-15300222D02*
X17025515Y-15404984D01*
X17415991Y-15195460D02*
X17244563Y-15452603D01*
X17673134Y-15204984D02*
X17692182Y-15204984D01*
X17692182Y-15204984D02*
X17711229Y-15214508D01*
X17711229Y-15214508D02*
X17720753Y-15224031D01*
X17720753Y-15224031D02*
X17730277Y-15243079D01*
X17730277Y-15243079D02*
X17739801Y-15281174D01*
X17739801Y-15281174D02*
X17739801Y-15328793D01*
X17739801Y-15328793D02*
X17730277Y-15366888D01*
X17730277Y-15366888D02*
X17720753Y-15385936D01*
X17720753Y-15385936D02*
X17711229Y-15395460D01*
X17711229Y-15395460D02*
X17692182Y-15404984D01*
X17692182Y-15404984D02*
X17673134Y-15404984D01*
X17673134Y-15404984D02*
X17654087Y-15395460D01*
X17654087Y-15395460D02*
X17644563Y-15385936D01*
X17644563Y-15385936D02*
X17635039Y-15366888D01*
X17635039Y-15366888D02*
X17625515Y-15328793D01*
X17625515Y-15328793D02*
X17625515Y-15281174D01*
X17625515Y-15281174D02*
X17635039Y-15243079D01*
X17635039Y-15243079D02*
X17644563Y-15224031D01*
X17644563Y-15224031D02*
X17654087Y-15214508D01*
X17654087Y-15214508D02*
X17673134Y-15204984D01*
X17825515Y-15385936D02*
X17835039Y-15395460D01*
X17835039Y-15395460D02*
X17825515Y-15404984D01*
X17825515Y-15404984D02*
X17815991Y-15395460D01*
X17815991Y-15395460D02*
X17825515Y-15385936D01*
X17825515Y-15385936D02*
X17825515Y-15404984D01*
X17958848Y-15204984D02*
X17977896Y-15204984D01*
X17977896Y-15204984D02*
X17996944Y-15214508D01*
X17996944Y-15214508D02*
X18006468Y-15224031D01*
X18006468Y-15224031D02*
X18015991Y-15243079D01*
X18015991Y-15243079D02*
X18025515Y-15281174D01*
X18025515Y-15281174D02*
X18025515Y-15328793D01*
X18025515Y-15328793D02*
X18015991Y-15366888D01*
X18015991Y-15366888D02*
X18006468Y-15385936D01*
X18006468Y-15385936D02*
X17996944Y-15395460D01*
X17996944Y-15395460D02*
X17977896Y-15404984D01*
X17977896Y-15404984D02*
X17958848Y-15404984D01*
X17958848Y-15404984D02*
X17939801Y-15395460D01*
X17939801Y-15395460D02*
X17930277Y-15385936D01*
X17930277Y-15385936D02*
X17920753Y-15366888D01*
X17920753Y-15366888D02*
X17911229Y-15328793D01*
X17911229Y-15328793D02*
X17911229Y-15281174D01*
X17911229Y-15281174D02*
X17920753Y-15243079D01*
X17920753Y-15243079D02*
X17930277Y-15224031D01*
X17930277Y-15224031D02*
X17939801Y-15214508D01*
X17939801Y-15214508D02*
X17958848Y-15204984D01*
X18092182Y-15204984D02*
X18215991Y-15204984D01*
X18215991Y-15204984D02*
X18149325Y-15281174D01*
X18149325Y-15281174D02*
X18177896Y-15281174D01*
X18177896Y-15281174D02*
X18196944Y-15290698D01*
X18196944Y-15290698D02*
X18206468Y-15300222D01*
X18206468Y-15300222D02*
X18215991Y-15319269D01*
X18215991Y-15319269D02*
X18215991Y-15366888D01*
X18215991Y-15366888D02*
X18206468Y-15385936D01*
X18206468Y-15385936D02*
X18196944Y-15395460D01*
X18196944Y-15395460D02*
X18177896Y-15404984D01*
X18177896Y-15404984D02*
X18120753Y-15404984D01*
X18120753Y-15404984D02*
X18101706Y-15395460D01*
X18101706Y-15395460D02*
X18092182Y-15385936D01*
X18311229Y-15404984D02*
X18349325Y-15404984D01*
X18349325Y-15404984D02*
X18368372Y-15395460D01*
X18368372Y-15395460D02*
X18377896Y-15385936D01*
X18377896Y-15385936D02*
X18396944Y-15357365D01*
X18396944Y-15357365D02*
X18406468Y-15319269D01*
X18406468Y-15319269D02*
X18406468Y-15243079D01*
X18406468Y-15243079D02*
X18396944Y-15224031D01*
X18396944Y-15224031D02*
X18387420Y-15214508D01*
X18387420Y-15214508D02*
X18368372Y-15204984D01*
X18368372Y-15204984D02*
X18330277Y-15204984D01*
X18330277Y-15204984D02*
X18311229Y-15214508D01*
X18311229Y-15214508D02*
X18301706Y-15224031D01*
X18301706Y-15224031D02*
X18292182Y-15243079D01*
X18292182Y-15243079D02*
X18292182Y-15290698D01*
X18292182Y-15290698D02*
X18301706Y-15309746D01*
X18301706Y-15309746D02*
X18311229Y-15319269D01*
X18311229Y-15319269D02*
X18330277Y-15328793D01*
X18330277Y-15328793D02*
X18368372Y-15328793D01*
X18368372Y-15328793D02*
X18387420Y-15319269D01*
X18387420Y-15319269D02*
X18396944Y-15309746D01*
X18396944Y-15309746D02*
X18406468Y-15290698D01*
X18577896Y-15271650D02*
X18577896Y-15404984D01*
X18530277Y-15195460D02*
X18482658Y-15338317D01*
X18482658Y-15338317D02*
X18606468Y-15338317D01*
X18673134Y-15204984D02*
X18673134Y-15243079D01*
X18749325Y-15204984D02*
X18749325Y-15243079D01*
X19044563Y-15481174D02*
X19035039Y-15471650D01*
X19035039Y-15471650D02*
X19015991Y-15443079D01*
X19015991Y-15443079D02*
X19006468Y-15424031D01*
X19006468Y-15424031D02*
X18996944Y-15395460D01*
X18996944Y-15395460D02*
X18987420Y-15347841D01*
X18987420Y-15347841D02*
X18987420Y-15309746D01*
X18987420Y-15309746D02*
X18996944Y-15262127D01*
X18996944Y-15262127D02*
X19006468Y-15233555D01*
X19006468Y-15233555D02*
X19015991Y-15214508D01*
X19015991Y-15214508D02*
X19035039Y-15185936D01*
X19035039Y-15185936D02*
X19044563Y-15176412D01*
X19149325Y-15290698D02*
X19130277Y-15281174D01*
X19130277Y-15281174D02*
X19120753Y-15271650D01*
X19120753Y-15271650D02*
X19111230Y-15252603D01*
X19111230Y-15252603D02*
X19111230Y-15243079D01*
X19111230Y-15243079D02*
X19120753Y-15224031D01*
X19120753Y-15224031D02*
X19130277Y-15214508D01*
X19130277Y-15214508D02*
X19149325Y-15204984D01*
X19149325Y-15204984D02*
X19187420Y-15204984D01*
X19187420Y-15204984D02*
X19206468Y-15214508D01*
X19206468Y-15214508D02*
X19215991Y-15224031D01*
X19215991Y-15224031D02*
X19225515Y-15243079D01*
X19225515Y-15243079D02*
X19225515Y-15252603D01*
X19225515Y-15252603D02*
X19215991Y-15271650D01*
X19215991Y-15271650D02*
X19206468Y-15281174D01*
X19206468Y-15281174D02*
X19187420Y-15290698D01*
X19187420Y-15290698D02*
X19149325Y-15290698D01*
X19149325Y-15290698D02*
X19130277Y-15300222D01*
X19130277Y-15300222D02*
X19120753Y-15309746D01*
X19120753Y-15309746D02*
X19111230Y-15328793D01*
X19111230Y-15328793D02*
X19111230Y-15366888D01*
X19111230Y-15366888D02*
X19120753Y-15385936D01*
X19120753Y-15385936D02*
X19130277Y-15395460D01*
X19130277Y-15395460D02*
X19149325Y-15404984D01*
X19149325Y-15404984D02*
X19187420Y-15404984D01*
X19187420Y-15404984D02*
X19206468Y-15395460D01*
X19206468Y-15395460D02*
X19215991Y-15385936D01*
X19215991Y-15385936D02*
X19225515Y-15366888D01*
X19225515Y-15366888D02*
X19225515Y-15328793D01*
X19225515Y-15328793D02*
X19215991Y-15309746D01*
X19215991Y-15309746D02*
X19206468Y-15300222D01*
X19206468Y-15300222D02*
X19187420Y-15290698D01*
X19463611Y-15404984D02*
X19463611Y-15204984D01*
X19549325Y-15404984D02*
X19549325Y-15300222D01*
X19549325Y-15300222D02*
X19539801Y-15281174D01*
X19539801Y-15281174D02*
X19520753Y-15271650D01*
X19520753Y-15271650D02*
X19492182Y-15271650D01*
X19492182Y-15271650D02*
X19473134Y-15281174D01*
X19473134Y-15281174D02*
X19463611Y-15290698D01*
X19673134Y-15404984D02*
X19654087Y-15395460D01*
X19654087Y-15395460D02*
X19644563Y-15385936D01*
X19644563Y-15385936D02*
X19635039Y-15366888D01*
X19635039Y-15366888D02*
X19635039Y-15309746D01*
X19635039Y-15309746D02*
X19644563Y-15290698D01*
X19644563Y-15290698D02*
X19654087Y-15281174D01*
X19654087Y-15281174D02*
X19673134Y-15271650D01*
X19673134Y-15271650D02*
X19701706Y-15271650D01*
X19701706Y-15271650D02*
X19720753Y-15281174D01*
X19720753Y-15281174D02*
X19730277Y-15290698D01*
X19730277Y-15290698D02*
X19739801Y-15309746D01*
X19739801Y-15309746D02*
X19739801Y-15366888D01*
X19739801Y-15366888D02*
X19730277Y-15385936D01*
X19730277Y-15385936D02*
X19720753Y-15395460D01*
X19720753Y-15395460D02*
X19701706Y-15404984D01*
X19701706Y-15404984D02*
X19673134Y-15404984D01*
X19854087Y-15404984D02*
X19835039Y-15395460D01*
X19835039Y-15395460D02*
X19825515Y-15376412D01*
X19825515Y-15376412D02*
X19825515Y-15204984D01*
X20006468Y-15395460D02*
X19987420Y-15404984D01*
X19987420Y-15404984D02*
X19949325Y-15404984D01*
X19949325Y-15404984D02*
X19930277Y-15395460D01*
X19930277Y-15395460D02*
X19920753Y-15376412D01*
X19920753Y-15376412D02*
X19920753Y-15300222D01*
X19920753Y-15300222D02*
X19930277Y-15281174D01*
X19930277Y-15281174D02*
X19949325Y-15271650D01*
X19949325Y-15271650D02*
X19987420Y-15271650D01*
X19987420Y-15271650D02*
X20006468Y-15281174D01*
X20006468Y-15281174D02*
X20015992Y-15300222D01*
X20015992Y-15300222D02*
X20015992Y-15319269D01*
X20015992Y-15319269D02*
X19920753Y-15338317D01*
X20092182Y-15395460D02*
X20111230Y-15404984D01*
X20111230Y-15404984D02*
X20149325Y-15404984D01*
X20149325Y-15404984D02*
X20168373Y-15395460D01*
X20168373Y-15395460D02*
X20177896Y-15376412D01*
X20177896Y-15376412D02*
X20177896Y-15366888D01*
X20177896Y-15366888D02*
X20168373Y-15347841D01*
X20168373Y-15347841D02*
X20149325Y-15338317D01*
X20149325Y-15338317D02*
X20120753Y-15338317D01*
X20120753Y-15338317D02*
X20101706Y-15328793D01*
X20101706Y-15328793D02*
X20092182Y-15309746D01*
X20092182Y-15309746D02*
X20092182Y-15300222D01*
X20092182Y-15300222D02*
X20101706Y-15281174D01*
X20101706Y-15281174D02*
X20120753Y-15271650D01*
X20120753Y-15271650D02*
X20149325Y-15271650D01*
X20149325Y-15271650D02*
X20168373Y-15281174D01*
X20244563Y-15481174D02*
X20254087Y-15471650D01*
X20254087Y-15471650D02*
X20273134Y-15443079D01*
X20273134Y-15443079D02*
X20282658Y-15424031D01*
X20282658Y-15424031D02*
X20292182Y-15395460D01*
X20292182Y-15395460D02*
X20301706Y-15347841D01*
X20301706Y-15347841D02*
X20301706Y-15309746D01*
X20301706Y-15309746D02*
X20292182Y-15262127D01*
X20292182Y-15262127D02*
X20282658Y-15233555D01*
X20282658Y-15233555D02*
X20273134Y-15214508D01*
X20273134Y-15214508D02*
X20254087Y-15185936D01*
X20254087Y-15185936D02*
X20244563Y-15176412D01*
D11*
X15369500Y-15527500D02*
X15469500Y-15627500D01*
X15469500Y-15527500D02*
X15369500Y-15627500D01*
X15419500Y-15527500D02*
X15419500Y-15627500D01*
X15369500Y-15577500D02*
X15469500Y-15577500D01*
D12*
X15835039Y-15668984D02*
X15720753Y-15668984D01*
X15777896Y-15668984D02*
X15777896Y-15468984D01*
X15777896Y-15468984D02*
X15758848Y-15497555D01*
X15758848Y-15497555D02*
X15739801Y-15516603D01*
X15739801Y-15516603D02*
X15720753Y-15526127D01*
X15920753Y-15649936D02*
X15930277Y-15659460D01*
X15930277Y-15659460D02*
X15920753Y-15668984D01*
X15920753Y-15668984D02*
X15911229Y-15659460D01*
X15911229Y-15659460D02*
X15920753Y-15649936D01*
X15920753Y-15649936D02*
X15920753Y-15668984D01*
X16054086Y-15468984D02*
X16073134Y-15468984D01*
X16073134Y-15468984D02*
X16092182Y-15478508D01*
X16092182Y-15478508D02*
X16101705Y-15488031D01*
X16101705Y-15488031D02*
X16111229Y-15507079D01*
X16111229Y-15507079D02*
X16120753Y-15545174D01*
X16120753Y-15545174D02*
X16120753Y-15592793D01*
X16120753Y-15592793D02*
X16111229Y-15630888D01*
X16111229Y-15630888D02*
X16101705Y-15649936D01*
X16101705Y-15649936D02*
X16092182Y-15659460D01*
X16092182Y-15659460D02*
X16073134Y-15668984D01*
X16073134Y-15668984D02*
X16054086Y-15668984D01*
X16054086Y-15668984D02*
X16035039Y-15659460D01*
X16035039Y-15659460D02*
X16025515Y-15649936D01*
X16025515Y-15649936D02*
X16015991Y-15630888D01*
X16015991Y-15630888D02*
X16006467Y-15592793D01*
X16006467Y-15592793D02*
X16006467Y-15545174D01*
X16006467Y-15545174D02*
X16015991Y-15507079D01*
X16015991Y-15507079D02*
X16025515Y-15488031D01*
X16025515Y-15488031D02*
X16035039Y-15478508D01*
X16035039Y-15478508D02*
X16054086Y-15468984D01*
X16244562Y-15468984D02*
X16263610Y-15468984D01*
X16263610Y-15468984D02*
X16282658Y-15478508D01*
X16282658Y-15478508D02*
X16292182Y-15488031D01*
X16292182Y-15488031D02*
X16301705Y-15507079D01*
X16301705Y-15507079D02*
X16311229Y-15545174D01*
X16311229Y-15545174D02*
X16311229Y-15592793D01*
X16311229Y-15592793D02*
X16301705Y-15630888D01*
X16301705Y-15630888D02*
X16292182Y-15649936D01*
X16292182Y-15649936D02*
X16282658Y-15659460D01*
X16282658Y-15659460D02*
X16263610Y-15668984D01*
X16263610Y-15668984D02*
X16244562Y-15668984D01*
X16244562Y-15668984D02*
X16225515Y-15659460D01*
X16225515Y-15659460D02*
X16215991Y-15649936D01*
X16215991Y-15649936D02*
X16206467Y-15630888D01*
X16206467Y-15630888D02*
X16196943Y-15592793D01*
X16196943Y-15592793D02*
X16196943Y-15545174D01*
X16196943Y-15545174D02*
X16206467Y-15507079D01*
X16206467Y-15507079D02*
X16215991Y-15488031D01*
X16215991Y-15488031D02*
X16225515Y-15478508D01*
X16225515Y-15478508D02*
X16244562Y-15468984D01*
X16435039Y-15468984D02*
X16454086Y-15468984D01*
X16454086Y-15468984D02*
X16473134Y-15478508D01*
X16473134Y-15478508D02*
X16482658Y-15488031D01*
X16482658Y-15488031D02*
X16492182Y-15507079D01*
X16492182Y-15507079D02*
X16501705Y-15545174D01*
X16501705Y-15545174D02*
X16501705Y-15592793D01*
X16501705Y-15592793D02*
X16492182Y-15630888D01*
X16492182Y-15630888D02*
X16482658Y-15649936D01*
X16482658Y-15649936D02*
X16473134Y-15659460D01*
X16473134Y-15659460D02*
X16454086Y-15668984D01*
X16454086Y-15668984D02*
X16435039Y-15668984D01*
X16435039Y-15668984D02*
X16415991Y-15659460D01*
X16415991Y-15659460D02*
X16406467Y-15649936D01*
X16406467Y-15649936D02*
X16396943Y-15630888D01*
X16396943Y-15630888D02*
X16387420Y-15592793D01*
X16387420Y-15592793D02*
X16387420Y-15545174D01*
X16387420Y-15545174D02*
X16396943Y-15507079D01*
X16396943Y-15507079D02*
X16406467Y-15488031D01*
X16406467Y-15488031D02*
X16415991Y-15478508D01*
X16415991Y-15478508D02*
X16435039Y-15468984D01*
X16587420Y-15668984D02*
X16587420Y-15535650D01*
X16587420Y-15554698D02*
X16596943Y-15545174D01*
X16596943Y-15545174D02*
X16615991Y-15535650D01*
X16615991Y-15535650D02*
X16644563Y-15535650D01*
X16644563Y-15535650D02*
X16663610Y-15545174D01*
X16663610Y-15545174D02*
X16673134Y-15564222D01*
X16673134Y-15564222D02*
X16673134Y-15668984D01*
X16673134Y-15564222D02*
X16682658Y-15545174D01*
X16682658Y-15545174D02*
X16701705Y-15535650D01*
X16701705Y-15535650D02*
X16730277Y-15535650D01*
X16730277Y-15535650D02*
X16749324Y-15545174D01*
X16749324Y-15545174D02*
X16758848Y-15564222D01*
X16758848Y-15564222D02*
X16758848Y-15668984D01*
X16854086Y-15668984D02*
X16854086Y-15535650D01*
X16854086Y-15554698D02*
X16863610Y-15545174D01*
X16863610Y-15545174D02*
X16882658Y-15535650D01*
X16882658Y-15535650D02*
X16911229Y-15535650D01*
X16911229Y-15535650D02*
X16930277Y-15545174D01*
X16930277Y-15545174D02*
X16939801Y-15564222D01*
X16939801Y-15564222D02*
X16939801Y-15668984D01*
X16939801Y-15564222D02*
X16949325Y-15545174D01*
X16949325Y-15545174D02*
X16968372Y-15535650D01*
X16968372Y-15535650D02*
X16996944Y-15535650D01*
X16996944Y-15535650D02*
X17015991Y-15545174D01*
X17015991Y-15545174D02*
X17025515Y-15564222D01*
X17025515Y-15564222D02*
X17025515Y-15668984D01*
X17415991Y-15459460D02*
X17244563Y-15716603D01*
X17673134Y-15468984D02*
X17692182Y-15468984D01*
X17692182Y-15468984D02*
X17711229Y-15478508D01*
X17711229Y-15478508D02*
X17720753Y-15488031D01*
X17720753Y-15488031D02*
X17730277Y-15507079D01*
X17730277Y-15507079D02*
X17739801Y-15545174D01*
X17739801Y-15545174D02*
X17739801Y-15592793D01*
X17739801Y-15592793D02*
X17730277Y-15630888D01*
X17730277Y-15630888D02*
X17720753Y-15649936D01*
X17720753Y-15649936D02*
X17711229Y-15659460D01*
X17711229Y-15659460D02*
X17692182Y-15668984D01*
X17692182Y-15668984D02*
X17673134Y-15668984D01*
X17673134Y-15668984D02*
X17654087Y-15659460D01*
X17654087Y-15659460D02*
X17644563Y-15649936D01*
X17644563Y-15649936D02*
X17635039Y-15630888D01*
X17635039Y-15630888D02*
X17625515Y-15592793D01*
X17625515Y-15592793D02*
X17625515Y-15545174D01*
X17625515Y-15545174D02*
X17635039Y-15507079D01*
X17635039Y-15507079D02*
X17644563Y-15488031D01*
X17644563Y-15488031D02*
X17654087Y-15478508D01*
X17654087Y-15478508D02*
X17673134Y-15468984D01*
X17825515Y-15649936D02*
X17835039Y-15659460D01*
X17835039Y-15659460D02*
X17825515Y-15668984D01*
X17825515Y-15668984D02*
X17815991Y-15659460D01*
X17815991Y-15659460D02*
X17825515Y-15649936D01*
X17825515Y-15649936D02*
X17825515Y-15668984D01*
X17958848Y-15468984D02*
X17977896Y-15468984D01*
X17977896Y-15468984D02*
X17996944Y-15478508D01*
X17996944Y-15478508D02*
X18006468Y-15488031D01*
X18006468Y-15488031D02*
X18015991Y-15507079D01*
X18015991Y-15507079D02*
X18025515Y-15545174D01*
X18025515Y-15545174D02*
X18025515Y-15592793D01*
X18025515Y-15592793D02*
X18015991Y-15630888D01*
X18015991Y-15630888D02*
X18006468Y-15649936D01*
X18006468Y-15649936D02*
X17996944Y-15659460D01*
X17996944Y-15659460D02*
X17977896Y-15668984D01*
X17977896Y-15668984D02*
X17958848Y-15668984D01*
X17958848Y-15668984D02*
X17939801Y-15659460D01*
X17939801Y-15659460D02*
X17930277Y-15649936D01*
X17930277Y-15649936D02*
X17920753Y-15630888D01*
X17920753Y-15630888D02*
X17911229Y-15592793D01*
X17911229Y-15592793D02*
X17911229Y-15545174D01*
X17911229Y-15545174D02*
X17920753Y-15507079D01*
X17920753Y-15507079D02*
X17930277Y-15488031D01*
X17930277Y-15488031D02*
X17939801Y-15478508D01*
X17939801Y-15478508D02*
X17958848Y-15468984D01*
X18092182Y-15468984D02*
X18215991Y-15468984D01*
X18215991Y-15468984D02*
X18149325Y-15545174D01*
X18149325Y-15545174D02*
X18177896Y-15545174D01*
X18177896Y-15545174D02*
X18196944Y-15554698D01*
X18196944Y-15554698D02*
X18206468Y-15564222D01*
X18206468Y-15564222D02*
X18215991Y-15583269D01*
X18215991Y-15583269D02*
X18215991Y-15630888D01*
X18215991Y-15630888D02*
X18206468Y-15649936D01*
X18206468Y-15649936D02*
X18196944Y-15659460D01*
X18196944Y-15659460D02*
X18177896Y-15668984D01*
X18177896Y-15668984D02*
X18120753Y-15668984D01*
X18120753Y-15668984D02*
X18101706Y-15659460D01*
X18101706Y-15659460D02*
X18092182Y-15649936D01*
X18311229Y-15668984D02*
X18349325Y-15668984D01*
X18349325Y-15668984D02*
X18368372Y-15659460D01*
X18368372Y-15659460D02*
X18377896Y-15649936D01*
X18377896Y-15649936D02*
X18396944Y-15621365D01*
X18396944Y-15621365D02*
X18406468Y-15583269D01*
X18406468Y-15583269D02*
X18406468Y-15507079D01*
X18406468Y-15507079D02*
X18396944Y-15488031D01*
X18396944Y-15488031D02*
X18387420Y-15478508D01*
X18387420Y-15478508D02*
X18368372Y-15468984D01*
X18368372Y-15468984D02*
X18330277Y-15468984D01*
X18330277Y-15468984D02*
X18311229Y-15478508D01*
X18311229Y-15478508D02*
X18301706Y-15488031D01*
X18301706Y-15488031D02*
X18292182Y-15507079D01*
X18292182Y-15507079D02*
X18292182Y-15554698D01*
X18292182Y-15554698D02*
X18301706Y-15573746D01*
X18301706Y-15573746D02*
X18311229Y-15583269D01*
X18311229Y-15583269D02*
X18330277Y-15592793D01*
X18330277Y-15592793D02*
X18368372Y-15592793D01*
X18368372Y-15592793D02*
X18387420Y-15583269D01*
X18387420Y-15583269D02*
X18396944Y-15573746D01*
X18396944Y-15573746D02*
X18406468Y-15554698D01*
X18577896Y-15535650D02*
X18577896Y-15668984D01*
X18530277Y-15459460D02*
X18482658Y-15602317D01*
X18482658Y-15602317D02*
X18606468Y-15602317D01*
X18673134Y-15468984D02*
X18673134Y-15507079D01*
X18749325Y-15468984D02*
X18749325Y-15507079D01*
X19044563Y-15745174D02*
X19035039Y-15735650D01*
X19035039Y-15735650D02*
X19015991Y-15707079D01*
X19015991Y-15707079D02*
X19006468Y-15688031D01*
X19006468Y-15688031D02*
X18996944Y-15659460D01*
X18996944Y-15659460D02*
X18987420Y-15611841D01*
X18987420Y-15611841D02*
X18987420Y-15573746D01*
X18987420Y-15573746D02*
X18996944Y-15526127D01*
X18996944Y-15526127D02*
X19006468Y-15497555D01*
X19006468Y-15497555D02*
X19015991Y-15478508D01*
X19015991Y-15478508D02*
X19035039Y-15449936D01*
X19035039Y-15449936D02*
X19044563Y-15440412D01*
X19215991Y-15468984D02*
X19120753Y-15468984D01*
X19120753Y-15468984D02*
X19111230Y-15564222D01*
X19111230Y-15564222D02*
X19120753Y-15554698D01*
X19120753Y-15554698D02*
X19139801Y-15545174D01*
X19139801Y-15545174D02*
X19187420Y-15545174D01*
X19187420Y-15545174D02*
X19206468Y-15554698D01*
X19206468Y-15554698D02*
X19215991Y-15564222D01*
X19215991Y-15564222D02*
X19225515Y-15583269D01*
X19225515Y-15583269D02*
X19225515Y-15630888D01*
X19225515Y-15630888D02*
X19215991Y-15649936D01*
X19215991Y-15649936D02*
X19206468Y-15659460D01*
X19206468Y-15659460D02*
X19187420Y-15668984D01*
X19187420Y-15668984D02*
X19139801Y-15668984D01*
X19139801Y-15668984D02*
X19120753Y-15659460D01*
X19120753Y-15659460D02*
X19111230Y-15649936D01*
X19406468Y-15468984D02*
X19311230Y-15468984D01*
X19311230Y-15468984D02*
X19301706Y-15564222D01*
X19301706Y-15564222D02*
X19311230Y-15554698D01*
X19311230Y-15554698D02*
X19330277Y-15545174D01*
X19330277Y-15545174D02*
X19377896Y-15545174D01*
X19377896Y-15545174D02*
X19396944Y-15554698D01*
X19396944Y-15554698D02*
X19406468Y-15564222D01*
X19406468Y-15564222D02*
X19415991Y-15583269D01*
X19415991Y-15583269D02*
X19415991Y-15630888D01*
X19415991Y-15630888D02*
X19406468Y-15649936D01*
X19406468Y-15649936D02*
X19396944Y-15659460D01*
X19396944Y-15659460D02*
X19377896Y-15668984D01*
X19377896Y-15668984D02*
X19330277Y-15668984D01*
X19330277Y-15668984D02*
X19311230Y-15659460D01*
X19311230Y-15659460D02*
X19301706Y-15649936D01*
X19654087Y-15668984D02*
X19654087Y-15468984D01*
X19739801Y-15668984D02*
X19739801Y-15564222D01*
X19739801Y-15564222D02*
X19730277Y-15545174D01*
X19730277Y-15545174D02*
X19711230Y-15535650D01*
X19711230Y-15535650D02*
X19682658Y-15535650D01*
X19682658Y-15535650D02*
X19663611Y-15545174D01*
X19663611Y-15545174D02*
X19654087Y-15554698D01*
X19863611Y-15668984D02*
X19844563Y-15659460D01*
X19844563Y-15659460D02*
X19835039Y-15649936D01*
X19835039Y-15649936D02*
X19825515Y-15630888D01*
X19825515Y-15630888D02*
X19825515Y-15573746D01*
X19825515Y-15573746D02*
X19835039Y-15554698D01*
X19835039Y-15554698D02*
X19844563Y-15545174D01*
X19844563Y-15545174D02*
X19863611Y-15535650D01*
X19863611Y-15535650D02*
X19892182Y-15535650D01*
X19892182Y-15535650D02*
X19911230Y-15545174D01*
X19911230Y-15545174D02*
X19920753Y-15554698D01*
X19920753Y-15554698D02*
X19930277Y-15573746D01*
X19930277Y-15573746D02*
X19930277Y-15630888D01*
X19930277Y-15630888D02*
X19920753Y-15649936D01*
X19920753Y-15649936D02*
X19911230Y-15659460D01*
X19911230Y-15659460D02*
X19892182Y-15668984D01*
X19892182Y-15668984D02*
X19863611Y-15668984D01*
X20044563Y-15668984D02*
X20025515Y-15659460D01*
X20025515Y-15659460D02*
X20015992Y-15640412D01*
X20015992Y-15640412D02*
X20015992Y-15468984D01*
X20196944Y-15659460D02*
X20177896Y-15668984D01*
X20177896Y-15668984D02*
X20139801Y-15668984D01*
X20139801Y-15668984D02*
X20120753Y-15659460D01*
X20120753Y-15659460D02*
X20111230Y-15640412D01*
X20111230Y-15640412D02*
X20111230Y-15564222D01*
X20111230Y-15564222D02*
X20120753Y-15545174D01*
X20120753Y-15545174D02*
X20139801Y-15535650D01*
X20139801Y-15535650D02*
X20177896Y-15535650D01*
X20177896Y-15535650D02*
X20196944Y-15545174D01*
X20196944Y-15545174D02*
X20206468Y-15564222D01*
X20206468Y-15564222D02*
X20206468Y-15583269D01*
X20206468Y-15583269D02*
X20111230Y-15602317D01*
X20282658Y-15659460D02*
X20301706Y-15668984D01*
X20301706Y-15668984D02*
X20339801Y-15668984D01*
X20339801Y-15668984D02*
X20358849Y-15659460D01*
X20358849Y-15659460D02*
X20368373Y-15640412D01*
X20368373Y-15640412D02*
X20368373Y-15630888D01*
X20368373Y-15630888D02*
X20358849Y-15611841D01*
X20358849Y-15611841D02*
X20339801Y-15602317D01*
X20339801Y-15602317D02*
X20311230Y-15602317D01*
X20311230Y-15602317D02*
X20292182Y-15592793D01*
X20292182Y-15592793D02*
X20282658Y-15573746D01*
X20282658Y-15573746D02*
X20282658Y-15564222D01*
X20282658Y-15564222D02*
X20292182Y-15545174D01*
X20292182Y-15545174D02*
X20311230Y-15535650D01*
X20311230Y-15535650D02*
X20339801Y-15535650D01*
X20339801Y-15535650D02*
X20358849Y-15545174D01*
X20435039Y-15745174D02*
X20444563Y-15735650D01*
X20444563Y-15735650D02*
X20463611Y-15707079D01*
X20463611Y-15707079D02*
X20473134Y-15688031D01*
X20473134Y-15688031D02*
X20482658Y-15659460D01*
X20482658Y-15659460D02*
X20492182Y-15611841D01*
X20492182Y-15611841D02*
X20492182Y-15573746D01*
X20492182Y-15573746D02*
X20482658Y-15526127D01*
X20482658Y-15526127D02*
X20473134Y-15497555D01*
X20473134Y-15497555D02*
X20463611Y-15478508D01*
X20463611Y-15478508D02*
X20444563Y-15449936D01*
X20444563Y-15449936D02*
X20435039Y-15440412D01*
D13*
X15339500Y-15776500D02*
X15469500Y-15906500D01*
X15469500Y-15776500D02*
X15339500Y-15906500D01*
X15450462Y-15887462D02*
X15450462Y-15795538D01*
X15358538Y-15795538D01*
X15358538Y-15887462D01*
X15450462Y-15887462D01*
D12*
X15835039Y-15932984D02*
X15720753Y-15932984D01*
X15777896Y-15932984D02*
X15777896Y-15732984D01*
X15777896Y-15732984D02*
X15758848Y-15761555D01*
X15758848Y-15761555D02*
X15739801Y-15780603D01*
X15739801Y-15780603D02*
X15720753Y-15790127D01*
X15920753Y-15913936D02*
X15930277Y-15923460D01*
X15930277Y-15923460D02*
X15920753Y-15932984D01*
X15920753Y-15932984D02*
X15911229Y-15923460D01*
X15911229Y-15923460D02*
X15920753Y-15913936D01*
X15920753Y-15913936D02*
X15920753Y-15932984D01*
X15996943Y-15732984D02*
X16120753Y-15732984D01*
X16120753Y-15732984D02*
X16054086Y-15809174D01*
X16054086Y-15809174D02*
X16082658Y-15809174D01*
X16082658Y-15809174D02*
X16101705Y-15818698D01*
X16101705Y-15818698D02*
X16111229Y-15828222D01*
X16111229Y-15828222D02*
X16120753Y-15847269D01*
X16120753Y-15847269D02*
X16120753Y-15894888D01*
X16120753Y-15894888D02*
X16111229Y-15913936D01*
X16111229Y-15913936D02*
X16101705Y-15923460D01*
X16101705Y-15923460D02*
X16082658Y-15932984D01*
X16082658Y-15932984D02*
X16025515Y-15932984D01*
X16025515Y-15932984D02*
X16006467Y-15923460D01*
X16006467Y-15923460D02*
X15996943Y-15913936D01*
X16244562Y-15732984D02*
X16263610Y-15732984D01*
X16263610Y-15732984D02*
X16282658Y-15742508D01*
X16282658Y-15742508D02*
X16292182Y-15752031D01*
X16292182Y-15752031D02*
X16301705Y-15771079D01*
X16301705Y-15771079D02*
X16311229Y-15809174D01*
X16311229Y-15809174D02*
X16311229Y-15856793D01*
X16311229Y-15856793D02*
X16301705Y-15894888D01*
X16301705Y-15894888D02*
X16292182Y-15913936D01*
X16292182Y-15913936D02*
X16282658Y-15923460D01*
X16282658Y-15923460D02*
X16263610Y-15932984D01*
X16263610Y-15932984D02*
X16244562Y-15932984D01*
X16244562Y-15932984D02*
X16225515Y-15923460D01*
X16225515Y-15923460D02*
X16215991Y-15913936D01*
X16215991Y-15913936D02*
X16206467Y-15894888D01*
X16206467Y-15894888D02*
X16196943Y-15856793D01*
X16196943Y-15856793D02*
X16196943Y-15809174D01*
X16196943Y-15809174D02*
X16206467Y-15771079D01*
X16206467Y-15771079D02*
X16215991Y-15752031D01*
X16215991Y-15752031D02*
X16225515Y-15742508D01*
X16225515Y-15742508D02*
X16244562Y-15732984D01*
X16435039Y-15732984D02*
X16454086Y-15732984D01*
X16454086Y-15732984D02*
X16473134Y-15742508D01*
X16473134Y-15742508D02*
X16482658Y-15752031D01*
X16482658Y-15752031D02*
X16492182Y-15771079D01*
X16492182Y-15771079D02*
X16501705Y-15809174D01*
X16501705Y-15809174D02*
X16501705Y-15856793D01*
X16501705Y-15856793D02*
X16492182Y-15894888D01*
X16492182Y-15894888D02*
X16482658Y-15913936D01*
X16482658Y-15913936D02*
X16473134Y-15923460D01*
X16473134Y-15923460D02*
X16454086Y-15932984D01*
X16454086Y-15932984D02*
X16435039Y-15932984D01*
X16435039Y-15932984D02*
X16415991Y-15923460D01*
X16415991Y-15923460D02*
X16406467Y-15913936D01*
X16406467Y-15913936D02*
X16396943Y-15894888D01*
X16396943Y-15894888D02*
X16387420Y-15856793D01*
X16387420Y-15856793D02*
X16387420Y-15809174D01*
X16387420Y-15809174D02*
X16396943Y-15771079D01*
X16396943Y-15771079D02*
X16406467Y-15752031D01*
X16406467Y-15752031D02*
X16415991Y-15742508D01*
X16415991Y-15742508D02*
X16435039Y-15732984D01*
X16587420Y-15932984D02*
X16587420Y-15799650D01*
X16587420Y-15818698D02*
X16596943Y-15809174D01*
X16596943Y-15809174D02*
X16615991Y-15799650D01*
X16615991Y-15799650D02*
X16644563Y-15799650D01*
X16644563Y-15799650D02*
X16663610Y-15809174D01*
X16663610Y-15809174D02*
X16673134Y-15828222D01*
X16673134Y-15828222D02*
X16673134Y-15932984D01*
X16673134Y-15828222D02*
X16682658Y-15809174D01*
X16682658Y-15809174D02*
X16701705Y-15799650D01*
X16701705Y-15799650D02*
X16730277Y-15799650D01*
X16730277Y-15799650D02*
X16749324Y-15809174D01*
X16749324Y-15809174D02*
X16758848Y-15828222D01*
X16758848Y-15828222D02*
X16758848Y-15932984D01*
X16854086Y-15932984D02*
X16854086Y-15799650D01*
X16854086Y-15818698D02*
X16863610Y-15809174D01*
X16863610Y-15809174D02*
X16882658Y-15799650D01*
X16882658Y-15799650D02*
X16911229Y-15799650D01*
X16911229Y-15799650D02*
X16930277Y-15809174D01*
X16930277Y-15809174D02*
X16939801Y-15828222D01*
X16939801Y-15828222D02*
X16939801Y-15932984D01*
X16939801Y-15828222D02*
X16949325Y-15809174D01*
X16949325Y-15809174D02*
X16968372Y-15799650D01*
X16968372Y-15799650D02*
X16996944Y-15799650D01*
X16996944Y-15799650D02*
X17015991Y-15809174D01*
X17015991Y-15809174D02*
X17025515Y-15828222D01*
X17025515Y-15828222D02*
X17025515Y-15932984D01*
X17415991Y-15723460D02*
X17244563Y-15980603D01*
X17673134Y-15732984D02*
X17692182Y-15732984D01*
X17692182Y-15732984D02*
X17711229Y-15742508D01*
X17711229Y-15742508D02*
X17720753Y-15752031D01*
X17720753Y-15752031D02*
X17730277Y-15771079D01*
X17730277Y-15771079D02*
X17739801Y-15809174D01*
X17739801Y-15809174D02*
X17739801Y-15856793D01*
X17739801Y-15856793D02*
X17730277Y-15894888D01*
X17730277Y-15894888D02*
X17720753Y-15913936D01*
X17720753Y-15913936D02*
X17711229Y-15923460D01*
X17711229Y-15923460D02*
X17692182Y-15932984D01*
X17692182Y-15932984D02*
X17673134Y-15932984D01*
X17673134Y-15932984D02*
X17654087Y-15923460D01*
X17654087Y-15923460D02*
X17644563Y-15913936D01*
X17644563Y-15913936D02*
X17635039Y-15894888D01*
X17635039Y-15894888D02*
X17625515Y-15856793D01*
X17625515Y-15856793D02*
X17625515Y-15809174D01*
X17625515Y-15809174D02*
X17635039Y-15771079D01*
X17635039Y-15771079D02*
X17644563Y-15752031D01*
X17644563Y-15752031D02*
X17654087Y-15742508D01*
X17654087Y-15742508D02*
X17673134Y-15732984D01*
X17825515Y-15913936D02*
X17835039Y-15923460D01*
X17835039Y-15923460D02*
X17825515Y-15932984D01*
X17825515Y-15932984D02*
X17815991Y-15923460D01*
X17815991Y-15923460D02*
X17825515Y-15913936D01*
X17825515Y-15913936D02*
X17825515Y-15932984D01*
X17958848Y-15732984D02*
X17977896Y-15732984D01*
X17977896Y-15732984D02*
X17996944Y-15742508D01*
X17996944Y-15742508D02*
X18006468Y-15752031D01*
X18006468Y-15752031D02*
X18015991Y-15771079D01*
X18015991Y-15771079D02*
X18025515Y-15809174D01*
X18025515Y-15809174D02*
X18025515Y-15856793D01*
X18025515Y-15856793D02*
X18015991Y-15894888D01*
X18015991Y-15894888D02*
X18006468Y-15913936D01*
X18006468Y-15913936D02*
X17996944Y-15923460D01*
X17996944Y-15923460D02*
X17977896Y-15932984D01*
X17977896Y-15932984D02*
X17958848Y-15932984D01*
X17958848Y-15932984D02*
X17939801Y-15923460D01*
X17939801Y-15923460D02*
X17930277Y-15913936D01*
X17930277Y-15913936D02*
X17920753Y-15894888D01*
X17920753Y-15894888D02*
X17911229Y-15856793D01*
X17911229Y-15856793D02*
X17911229Y-15809174D01*
X17911229Y-15809174D02*
X17920753Y-15771079D01*
X17920753Y-15771079D02*
X17930277Y-15752031D01*
X17930277Y-15752031D02*
X17939801Y-15742508D01*
X17939801Y-15742508D02*
X17958848Y-15732984D01*
X18206468Y-15732984D02*
X18111229Y-15732984D01*
X18111229Y-15732984D02*
X18101706Y-15828222D01*
X18101706Y-15828222D02*
X18111229Y-15818698D01*
X18111229Y-15818698D02*
X18130277Y-15809174D01*
X18130277Y-15809174D02*
X18177896Y-15809174D01*
X18177896Y-15809174D02*
X18196944Y-15818698D01*
X18196944Y-15818698D02*
X18206468Y-15828222D01*
X18206468Y-15828222D02*
X18215991Y-15847269D01*
X18215991Y-15847269D02*
X18215991Y-15894888D01*
X18215991Y-15894888D02*
X18206468Y-15913936D01*
X18206468Y-15913936D02*
X18196944Y-15923460D01*
X18196944Y-15923460D02*
X18177896Y-15932984D01*
X18177896Y-15932984D02*
X18130277Y-15932984D01*
X18130277Y-15932984D02*
X18111229Y-15923460D01*
X18111229Y-15923460D02*
X18101706Y-15913936D01*
X18406468Y-15932984D02*
X18292182Y-15932984D01*
X18349325Y-15932984D02*
X18349325Y-15732984D01*
X18349325Y-15732984D02*
X18330277Y-15761555D01*
X18330277Y-15761555D02*
X18311229Y-15780603D01*
X18311229Y-15780603D02*
X18292182Y-15790127D01*
X18482658Y-15752031D02*
X18492182Y-15742508D01*
X18492182Y-15742508D02*
X18511229Y-15732984D01*
X18511229Y-15732984D02*
X18558849Y-15732984D01*
X18558849Y-15732984D02*
X18577896Y-15742508D01*
X18577896Y-15742508D02*
X18587420Y-15752031D01*
X18587420Y-15752031D02*
X18596944Y-15771079D01*
X18596944Y-15771079D02*
X18596944Y-15790127D01*
X18596944Y-15790127D02*
X18587420Y-15818698D01*
X18587420Y-15818698D02*
X18473134Y-15932984D01*
X18473134Y-15932984D02*
X18596944Y-15932984D01*
X18673134Y-15732984D02*
X18673134Y-15771079D01*
X18749325Y-15732984D02*
X18749325Y-15771079D01*
X19044563Y-16009174D02*
X19035039Y-15999650D01*
X19035039Y-15999650D02*
X19015991Y-15971079D01*
X19015991Y-15971079D02*
X19006468Y-15952031D01*
X19006468Y-15952031D02*
X18996944Y-15923460D01*
X18996944Y-15923460D02*
X18987420Y-15875841D01*
X18987420Y-15875841D02*
X18987420Y-15837746D01*
X18987420Y-15837746D02*
X18996944Y-15790127D01*
X18996944Y-15790127D02*
X19006468Y-15761555D01*
X19006468Y-15761555D02*
X19015991Y-15742508D01*
X19015991Y-15742508D02*
X19035039Y-15713936D01*
X19035039Y-15713936D02*
X19044563Y-15704412D01*
X19111230Y-15752031D02*
X19120753Y-15742508D01*
X19120753Y-15742508D02*
X19139801Y-15732984D01*
X19139801Y-15732984D02*
X19187420Y-15732984D01*
X19187420Y-15732984D02*
X19206468Y-15742508D01*
X19206468Y-15742508D02*
X19215991Y-15752031D01*
X19215991Y-15752031D02*
X19225515Y-15771079D01*
X19225515Y-15771079D02*
X19225515Y-15790127D01*
X19225515Y-15790127D02*
X19215991Y-15818698D01*
X19215991Y-15818698D02*
X19101706Y-15932984D01*
X19101706Y-15932984D02*
X19225515Y-15932984D01*
X19463611Y-15932984D02*
X19463611Y-15732984D01*
X19549325Y-15932984D02*
X19549325Y-15828222D01*
X19549325Y-15828222D02*
X19539801Y-15809174D01*
X19539801Y-15809174D02*
X19520753Y-15799650D01*
X19520753Y-15799650D02*
X19492182Y-15799650D01*
X19492182Y-15799650D02*
X19473134Y-15809174D01*
X19473134Y-15809174D02*
X19463611Y-15818698D01*
X19673134Y-15932984D02*
X19654087Y-15923460D01*
X19654087Y-15923460D02*
X19644563Y-15913936D01*
X19644563Y-15913936D02*
X19635039Y-15894888D01*
X19635039Y-15894888D02*
X19635039Y-15837746D01*
X19635039Y-15837746D02*
X19644563Y-15818698D01*
X19644563Y-15818698D02*
X19654087Y-15809174D01*
X19654087Y-15809174D02*
X19673134Y-15799650D01*
X19673134Y-15799650D02*
X19701706Y-15799650D01*
X19701706Y-15799650D02*
X19720753Y-15809174D01*
X19720753Y-15809174D02*
X19730277Y-15818698D01*
X19730277Y-15818698D02*
X19739801Y-15837746D01*
X19739801Y-15837746D02*
X19739801Y-15894888D01*
X19739801Y-15894888D02*
X19730277Y-15913936D01*
X19730277Y-15913936D02*
X19720753Y-15923460D01*
X19720753Y-15923460D02*
X19701706Y-15932984D01*
X19701706Y-15932984D02*
X19673134Y-15932984D01*
X19854087Y-15932984D02*
X19835039Y-15923460D01*
X19835039Y-15923460D02*
X19825515Y-15904412D01*
X19825515Y-15904412D02*
X19825515Y-15732984D01*
X20006468Y-15923460D02*
X19987420Y-15932984D01*
X19987420Y-15932984D02*
X19949325Y-15932984D01*
X19949325Y-15932984D02*
X19930277Y-15923460D01*
X19930277Y-15923460D02*
X19920753Y-15904412D01*
X19920753Y-15904412D02*
X19920753Y-15828222D01*
X19920753Y-15828222D02*
X19930277Y-15809174D01*
X19930277Y-15809174D02*
X19949325Y-15799650D01*
X19949325Y-15799650D02*
X19987420Y-15799650D01*
X19987420Y-15799650D02*
X20006468Y-15809174D01*
X20006468Y-15809174D02*
X20015992Y-15828222D01*
X20015992Y-15828222D02*
X20015992Y-15847269D01*
X20015992Y-15847269D02*
X19920753Y-15866317D01*
X20092182Y-15923460D02*
X20111230Y-15932984D01*
X20111230Y-15932984D02*
X20149325Y-15932984D01*
X20149325Y-15932984D02*
X20168373Y-15923460D01*
X20168373Y-15923460D02*
X20177896Y-15904412D01*
X20177896Y-15904412D02*
X20177896Y-15894888D01*
X20177896Y-15894888D02*
X20168373Y-15875841D01*
X20168373Y-15875841D02*
X20149325Y-15866317D01*
X20149325Y-15866317D02*
X20120753Y-15866317D01*
X20120753Y-15866317D02*
X20101706Y-15856793D01*
X20101706Y-15856793D02*
X20092182Y-15837746D01*
X20092182Y-15837746D02*
X20092182Y-15828222D01*
X20092182Y-15828222D02*
X20101706Y-15809174D01*
X20101706Y-15809174D02*
X20120753Y-15799650D01*
X20120753Y-15799650D02*
X20149325Y-15799650D01*
X20149325Y-15799650D02*
X20168373Y-15809174D01*
X20244563Y-16009174D02*
X20254087Y-15999650D01*
X20254087Y-15999650D02*
X20273134Y-15971079D01*
X20273134Y-15971079D02*
X20282658Y-15952031D01*
X20282658Y-15952031D02*
X20292182Y-15923460D01*
X20292182Y-15923460D02*
X20301706Y-15875841D01*
X20301706Y-15875841D02*
X20301706Y-15837746D01*
X20301706Y-15837746D02*
X20292182Y-15790127D01*
X20292182Y-15790127D02*
X20282658Y-15761555D01*
X20282658Y-15761555D02*
X20273134Y-15742508D01*
X20273134Y-15742508D02*
X20254087Y-15713936D01*
X20254087Y-15713936D02*
X20244563Y-15704412D01*
D14*
X15294500Y-16018000D02*
X15469500Y-16193000D01*
X15469500Y-16018000D02*
X15294500Y-16193000D01*
X15382000Y-16193000D02*
X15469500Y-16105500D01*
X15382000Y-16018000D01*
X15294500Y-16105500D01*
X15382000Y-16193000D01*
D12*
X15835039Y-16196984D02*
X15720753Y-16196984D01*
X15777896Y-16196984D02*
X15777896Y-15996984D01*
X15777896Y-15996984D02*
X15758848Y-16025555D01*
X15758848Y-16025555D02*
X15739801Y-16044603D01*
X15739801Y-16044603D02*
X15720753Y-16054127D01*
X15920753Y-16177936D02*
X15930277Y-16187460D01*
X15930277Y-16187460D02*
X15920753Y-16196984D01*
X15920753Y-16196984D02*
X15911229Y-16187460D01*
X15911229Y-16187460D02*
X15920753Y-16177936D01*
X15920753Y-16177936D02*
X15920753Y-16196984D01*
X15996943Y-15996984D02*
X16130277Y-15996984D01*
X16130277Y-15996984D02*
X16044562Y-16196984D01*
X16301705Y-15996984D02*
X16206467Y-15996984D01*
X16206467Y-15996984D02*
X16196943Y-16092222D01*
X16196943Y-16092222D02*
X16206467Y-16082698D01*
X16206467Y-16082698D02*
X16225515Y-16073174D01*
X16225515Y-16073174D02*
X16273134Y-16073174D01*
X16273134Y-16073174D02*
X16292182Y-16082698D01*
X16292182Y-16082698D02*
X16301705Y-16092222D01*
X16301705Y-16092222D02*
X16311229Y-16111269D01*
X16311229Y-16111269D02*
X16311229Y-16158888D01*
X16311229Y-16158888D02*
X16301705Y-16177936D01*
X16301705Y-16177936D02*
X16292182Y-16187460D01*
X16292182Y-16187460D02*
X16273134Y-16196984D01*
X16273134Y-16196984D02*
X16225515Y-16196984D01*
X16225515Y-16196984D02*
X16206467Y-16187460D01*
X16206467Y-16187460D02*
X16196943Y-16177936D01*
X16435039Y-15996984D02*
X16454086Y-15996984D01*
X16454086Y-15996984D02*
X16473134Y-16006508D01*
X16473134Y-16006508D02*
X16482658Y-16016031D01*
X16482658Y-16016031D02*
X16492182Y-16035079D01*
X16492182Y-16035079D02*
X16501705Y-16073174D01*
X16501705Y-16073174D02*
X16501705Y-16120793D01*
X16501705Y-16120793D02*
X16492182Y-16158888D01*
X16492182Y-16158888D02*
X16482658Y-16177936D01*
X16482658Y-16177936D02*
X16473134Y-16187460D01*
X16473134Y-16187460D02*
X16454086Y-16196984D01*
X16454086Y-16196984D02*
X16435039Y-16196984D01*
X16435039Y-16196984D02*
X16415991Y-16187460D01*
X16415991Y-16187460D02*
X16406467Y-16177936D01*
X16406467Y-16177936D02*
X16396943Y-16158888D01*
X16396943Y-16158888D02*
X16387420Y-16120793D01*
X16387420Y-16120793D02*
X16387420Y-16073174D01*
X16387420Y-16073174D02*
X16396943Y-16035079D01*
X16396943Y-16035079D02*
X16406467Y-16016031D01*
X16406467Y-16016031D02*
X16415991Y-16006508D01*
X16415991Y-16006508D02*
X16435039Y-15996984D01*
X16587420Y-16196984D02*
X16587420Y-16063650D01*
X16587420Y-16082698D02*
X16596943Y-16073174D01*
X16596943Y-16073174D02*
X16615991Y-16063650D01*
X16615991Y-16063650D02*
X16644563Y-16063650D01*
X16644563Y-16063650D02*
X16663610Y-16073174D01*
X16663610Y-16073174D02*
X16673134Y-16092222D01*
X16673134Y-16092222D02*
X16673134Y-16196984D01*
X16673134Y-16092222D02*
X16682658Y-16073174D01*
X16682658Y-16073174D02*
X16701705Y-16063650D01*
X16701705Y-16063650D02*
X16730277Y-16063650D01*
X16730277Y-16063650D02*
X16749324Y-16073174D01*
X16749324Y-16073174D02*
X16758848Y-16092222D01*
X16758848Y-16092222D02*
X16758848Y-16196984D01*
X16854086Y-16196984D02*
X16854086Y-16063650D01*
X16854086Y-16082698D02*
X16863610Y-16073174D01*
X16863610Y-16073174D02*
X16882658Y-16063650D01*
X16882658Y-16063650D02*
X16911229Y-16063650D01*
X16911229Y-16063650D02*
X16930277Y-16073174D01*
X16930277Y-16073174D02*
X16939801Y-16092222D01*
X16939801Y-16092222D02*
X16939801Y-16196984D01*
X16939801Y-16092222D02*
X16949325Y-16073174D01*
X16949325Y-16073174D02*
X16968372Y-16063650D01*
X16968372Y-16063650D02*
X16996944Y-16063650D01*
X16996944Y-16063650D02*
X17015991Y-16073174D01*
X17015991Y-16073174D02*
X17025515Y-16092222D01*
X17025515Y-16092222D02*
X17025515Y-16196984D01*
X17415991Y-15987460D02*
X17244563Y-16244603D01*
X17673134Y-15996984D02*
X17692182Y-15996984D01*
X17692182Y-15996984D02*
X17711229Y-16006508D01*
X17711229Y-16006508D02*
X17720753Y-16016031D01*
X17720753Y-16016031D02*
X17730277Y-16035079D01*
X17730277Y-16035079D02*
X17739801Y-16073174D01*
X17739801Y-16073174D02*
X17739801Y-16120793D01*
X17739801Y-16120793D02*
X17730277Y-16158888D01*
X17730277Y-16158888D02*
X17720753Y-16177936D01*
X17720753Y-16177936D02*
X17711229Y-16187460D01*
X17711229Y-16187460D02*
X17692182Y-16196984D01*
X17692182Y-16196984D02*
X17673134Y-16196984D01*
X17673134Y-16196984D02*
X17654087Y-16187460D01*
X17654087Y-16187460D02*
X17644563Y-16177936D01*
X17644563Y-16177936D02*
X17635039Y-16158888D01*
X17635039Y-16158888D02*
X17625515Y-16120793D01*
X17625515Y-16120793D02*
X17625515Y-16073174D01*
X17625515Y-16073174D02*
X17635039Y-16035079D01*
X17635039Y-16035079D02*
X17644563Y-16016031D01*
X17644563Y-16016031D02*
X17654087Y-16006508D01*
X17654087Y-16006508D02*
X17673134Y-15996984D01*
X17825515Y-16177936D02*
X17835039Y-16187460D01*
X17835039Y-16187460D02*
X17825515Y-16196984D01*
X17825515Y-16196984D02*
X17815991Y-16187460D01*
X17815991Y-16187460D02*
X17825515Y-16177936D01*
X17825515Y-16177936D02*
X17825515Y-16196984D01*
X17958848Y-15996984D02*
X17977896Y-15996984D01*
X17977896Y-15996984D02*
X17996944Y-16006508D01*
X17996944Y-16006508D02*
X18006468Y-16016031D01*
X18006468Y-16016031D02*
X18015991Y-16035079D01*
X18015991Y-16035079D02*
X18025515Y-16073174D01*
X18025515Y-16073174D02*
X18025515Y-16120793D01*
X18025515Y-16120793D02*
X18015991Y-16158888D01*
X18015991Y-16158888D02*
X18006468Y-16177936D01*
X18006468Y-16177936D02*
X17996944Y-16187460D01*
X17996944Y-16187460D02*
X17977896Y-16196984D01*
X17977896Y-16196984D02*
X17958848Y-16196984D01*
X17958848Y-16196984D02*
X17939801Y-16187460D01*
X17939801Y-16187460D02*
X17930277Y-16177936D01*
X17930277Y-16177936D02*
X17920753Y-16158888D01*
X17920753Y-16158888D02*
X17911229Y-16120793D01*
X17911229Y-16120793D02*
X17911229Y-16073174D01*
X17911229Y-16073174D02*
X17920753Y-16035079D01*
X17920753Y-16035079D02*
X17930277Y-16016031D01*
X17930277Y-16016031D02*
X17939801Y-16006508D01*
X17939801Y-16006508D02*
X17958848Y-15996984D01*
X18196944Y-15996984D02*
X18158848Y-15996984D01*
X18158848Y-15996984D02*
X18139801Y-16006508D01*
X18139801Y-16006508D02*
X18130277Y-16016031D01*
X18130277Y-16016031D02*
X18111229Y-16044603D01*
X18111229Y-16044603D02*
X18101706Y-16082698D01*
X18101706Y-16082698D02*
X18101706Y-16158888D01*
X18101706Y-16158888D02*
X18111229Y-16177936D01*
X18111229Y-16177936D02*
X18120753Y-16187460D01*
X18120753Y-16187460D02*
X18139801Y-16196984D01*
X18139801Y-16196984D02*
X18177896Y-16196984D01*
X18177896Y-16196984D02*
X18196944Y-16187460D01*
X18196944Y-16187460D02*
X18206468Y-16177936D01*
X18206468Y-16177936D02*
X18215991Y-16158888D01*
X18215991Y-16158888D02*
X18215991Y-16111269D01*
X18215991Y-16111269D02*
X18206468Y-16092222D01*
X18206468Y-16092222D02*
X18196944Y-16082698D01*
X18196944Y-16082698D02*
X18177896Y-16073174D01*
X18177896Y-16073174D02*
X18139801Y-16073174D01*
X18139801Y-16073174D02*
X18120753Y-16082698D01*
X18120753Y-16082698D02*
X18111229Y-16092222D01*
X18111229Y-16092222D02*
X18101706Y-16111269D01*
X18330277Y-16082698D02*
X18311229Y-16073174D01*
X18311229Y-16073174D02*
X18301706Y-16063650D01*
X18301706Y-16063650D02*
X18292182Y-16044603D01*
X18292182Y-16044603D02*
X18292182Y-16035079D01*
X18292182Y-16035079D02*
X18301706Y-16016031D01*
X18301706Y-16016031D02*
X18311229Y-16006508D01*
X18311229Y-16006508D02*
X18330277Y-15996984D01*
X18330277Y-15996984D02*
X18368372Y-15996984D01*
X18368372Y-15996984D02*
X18387420Y-16006508D01*
X18387420Y-16006508D02*
X18396944Y-16016031D01*
X18396944Y-16016031D02*
X18406468Y-16035079D01*
X18406468Y-16035079D02*
X18406468Y-16044603D01*
X18406468Y-16044603D02*
X18396944Y-16063650D01*
X18396944Y-16063650D02*
X18387420Y-16073174D01*
X18387420Y-16073174D02*
X18368372Y-16082698D01*
X18368372Y-16082698D02*
X18330277Y-16082698D01*
X18330277Y-16082698D02*
X18311229Y-16092222D01*
X18311229Y-16092222D02*
X18301706Y-16101746D01*
X18301706Y-16101746D02*
X18292182Y-16120793D01*
X18292182Y-16120793D02*
X18292182Y-16158888D01*
X18292182Y-16158888D02*
X18301706Y-16177936D01*
X18301706Y-16177936D02*
X18311229Y-16187460D01*
X18311229Y-16187460D02*
X18330277Y-16196984D01*
X18330277Y-16196984D02*
X18368372Y-16196984D01*
X18368372Y-16196984D02*
X18387420Y-16187460D01*
X18387420Y-16187460D02*
X18396944Y-16177936D01*
X18396944Y-16177936D02*
X18406468Y-16158888D01*
X18406468Y-16158888D02*
X18406468Y-16120793D01*
X18406468Y-16120793D02*
X18396944Y-16101746D01*
X18396944Y-16101746D02*
X18387420Y-16092222D01*
X18387420Y-16092222D02*
X18368372Y-16082698D01*
X18501706Y-16196984D02*
X18539801Y-16196984D01*
X18539801Y-16196984D02*
X18558849Y-16187460D01*
X18558849Y-16187460D02*
X18568372Y-16177936D01*
X18568372Y-16177936D02*
X18587420Y-16149365D01*
X18587420Y-16149365D02*
X18596944Y-16111269D01*
X18596944Y-16111269D02*
X18596944Y-16035079D01*
X18596944Y-16035079D02*
X18587420Y-16016031D01*
X18587420Y-16016031D02*
X18577896Y-16006508D01*
X18577896Y-16006508D02*
X18558849Y-15996984D01*
X18558849Y-15996984D02*
X18520753Y-15996984D01*
X18520753Y-15996984D02*
X18501706Y-16006508D01*
X18501706Y-16006508D02*
X18492182Y-16016031D01*
X18492182Y-16016031D02*
X18482658Y-16035079D01*
X18482658Y-16035079D02*
X18482658Y-16082698D01*
X18482658Y-16082698D02*
X18492182Y-16101746D01*
X18492182Y-16101746D02*
X18501706Y-16111269D01*
X18501706Y-16111269D02*
X18520753Y-16120793D01*
X18520753Y-16120793D02*
X18558849Y-16120793D01*
X18558849Y-16120793D02*
X18577896Y-16111269D01*
X18577896Y-16111269D02*
X18587420Y-16101746D01*
X18587420Y-16101746D02*
X18596944Y-16082698D01*
X18673134Y-15996984D02*
X18673134Y-16035079D01*
X18749325Y-15996984D02*
X18749325Y-16035079D01*
X19044563Y-16273174D02*
X19035039Y-16263650D01*
X19035039Y-16263650D02*
X19015991Y-16235079D01*
X19015991Y-16235079D02*
X19006468Y-16216031D01*
X19006468Y-16216031D02*
X18996944Y-16187460D01*
X18996944Y-16187460D02*
X18987420Y-16139841D01*
X18987420Y-16139841D02*
X18987420Y-16101746D01*
X18987420Y-16101746D02*
X18996944Y-16054127D01*
X18996944Y-16054127D02*
X19006468Y-16025555D01*
X19006468Y-16025555D02*
X19015991Y-16006508D01*
X19015991Y-16006508D02*
X19035039Y-15977936D01*
X19035039Y-15977936D02*
X19044563Y-15968412D01*
X19111230Y-16016031D02*
X19120753Y-16006508D01*
X19120753Y-16006508D02*
X19139801Y-15996984D01*
X19139801Y-15996984D02*
X19187420Y-15996984D01*
X19187420Y-15996984D02*
X19206468Y-16006508D01*
X19206468Y-16006508D02*
X19215991Y-16016031D01*
X19215991Y-16016031D02*
X19225515Y-16035079D01*
X19225515Y-16035079D02*
X19225515Y-16054127D01*
X19225515Y-16054127D02*
X19215991Y-16082698D01*
X19215991Y-16082698D02*
X19101706Y-16196984D01*
X19101706Y-16196984D02*
X19225515Y-16196984D01*
X19292182Y-15996984D02*
X19415991Y-15996984D01*
X19415991Y-15996984D02*
X19349325Y-16073174D01*
X19349325Y-16073174D02*
X19377896Y-16073174D01*
X19377896Y-16073174D02*
X19396944Y-16082698D01*
X19396944Y-16082698D02*
X19406468Y-16092222D01*
X19406468Y-16092222D02*
X19415991Y-16111269D01*
X19415991Y-16111269D02*
X19415991Y-16158888D01*
X19415991Y-16158888D02*
X19406468Y-16177936D01*
X19406468Y-16177936D02*
X19396944Y-16187460D01*
X19396944Y-16187460D02*
X19377896Y-16196984D01*
X19377896Y-16196984D02*
X19320753Y-16196984D01*
X19320753Y-16196984D02*
X19301706Y-16187460D01*
X19301706Y-16187460D02*
X19292182Y-16177936D01*
X19654087Y-16196984D02*
X19654087Y-15996984D01*
X19739801Y-16196984D02*
X19739801Y-16092222D01*
X19739801Y-16092222D02*
X19730277Y-16073174D01*
X19730277Y-16073174D02*
X19711230Y-16063650D01*
X19711230Y-16063650D02*
X19682658Y-16063650D01*
X19682658Y-16063650D02*
X19663611Y-16073174D01*
X19663611Y-16073174D02*
X19654087Y-16082698D01*
X19863611Y-16196984D02*
X19844563Y-16187460D01*
X19844563Y-16187460D02*
X19835039Y-16177936D01*
X19835039Y-16177936D02*
X19825515Y-16158888D01*
X19825515Y-16158888D02*
X19825515Y-16101746D01*
X19825515Y-16101746D02*
X19835039Y-16082698D01*
X19835039Y-16082698D02*
X19844563Y-16073174D01*
X19844563Y-16073174D02*
X19863611Y-16063650D01*
X19863611Y-16063650D02*
X19892182Y-16063650D01*
X19892182Y-16063650D02*
X19911230Y-16073174D01*
X19911230Y-16073174D02*
X19920753Y-16082698D01*
X19920753Y-16082698D02*
X19930277Y-16101746D01*
X19930277Y-16101746D02*
X19930277Y-16158888D01*
X19930277Y-16158888D02*
X19920753Y-16177936D01*
X19920753Y-16177936D02*
X19911230Y-16187460D01*
X19911230Y-16187460D02*
X19892182Y-16196984D01*
X19892182Y-16196984D02*
X19863611Y-16196984D01*
X20044563Y-16196984D02*
X20025515Y-16187460D01*
X20025515Y-16187460D02*
X20015992Y-16168412D01*
X20015992Y-16168412D02*
X20015992Y-15996984D01*
X20196944Y-16187460D02*
X20177896Y-16196984D01*
X20177896Y-16196984D02*
X20139801Y-16196984D01*
X20139801Y-16196984D02*
X20120753Y-16187460D01*
X20120753Y-16187460D02*
X20111230Y-16168412D01*
X20111230Y-16168412D02*
X20111230Y-16092222D01*
X20111230Y-16092222D02*
X20120753Y-16073174D01*
X20120753Y-16073174D02*
X20139801Y-16063650D01*
X20139801Y-16063650D02*
X20177896Y-16063650D01*
X20177896Y-16063650D02*
X20196944Y-16073174D01*
X20196944Y-16073174D02*
X20206468Y-16092222D01*
X20206468Y-16092222D02*
X20206468Y-16111269D01*
X20206468Y-16111269D02*
X20111230Y-16130317D01*
X20282658Y-16187460D02*
X20301706Y-16196984D01*
X20301706Y-16196984D02*
X20339801Y-16196984D01*
X20339801Y-16196984D02*
X20358849Y-16187460D01*
X20358849Y-16187460D02*
X20368373Y-16168412D01*
X20368373Y-16168412D02*
X20368373Y-16158888D01*
X20368373Y-16158888D02*
X20358849Y-16139841D01*
X20358849Y-16139841D02*
X20339801Y-16130317D01*
X20339801Y-16130317D02*
X20311230Y-16130317D01*
X20311230Y-16130317D02*
X20292182Y-16120793D01*
X20292182Y-16120793D02*
X20282658Y-16101746D01*
X20282658Y-16101746D02*
X20282658Y-16092222D01*
X20282658Y-16092222D02*
X20292182Y-16073174D01*
X20292182Y-16073174D02*
X20311230Y-16063650D01*
X20311230Y-16063650D02*
X20339801Y-16063650D01*
X20339801Y-16063650D02*
X20358849Y-16073174D01*
X20435039Y-16273174D02*
X20444563Y-16263650D01*
X20444563Y-16263650D02*
X20463611Y-16235079D01*
X20463611Y-16235079D02*
X20473134Y-16216031D01*
X20473134Y-16216031D02*
X20482658Y-16187460D01*
X20482658Y-16187460D02*
X20492182Y-16139841D01*
X20492182Y-16139841D02*
X20492182Y-16101746D01*
X20492182Y-16101746D02*
X20482658Y-16054127D01*
X20482658Y-16054127D02*
X20473134Y-16025555D01*
X20473134Y-16025555D02*
X20463611Y-16006508D01*
X20463611Y-16006508D02*
X20444563Y-15977936D01*
X20444563Y-15977936D02*
X20435039Y-15968412D01*
X15369500Y-16300500D02*
X15369500Y-16500500D01*
X15269500Y-16400500D02*
X15469500Y-16400500D01*
X15469500Y-16400500D02*
G75*
G02*
X15269500Y-16400500I-100000J0D01*
G01*
X15269500Y-16400500D02*
G75*
G02*
X15469500Y-16400500I100000J0D01*
G01*
X15711229Y-16291984D02*
X15835039Y-16291984D01*
X15835039Y-16291984D02*
X15768372Y-16368174D01*
X15768372Y-16368174D02*
X15796943Y-16368174D01*
X15796943Y-16368174D02*
X15815991Y-16377698D01*
X15815991Y-16377698D02*
X15825515Y-16387222D01*
X15825515Y-16387222D02*
X15835039Y-16406269D01*
X15835039Y-16406269D02*
X15835039Y-16453888D01*
X15835039Y-16453888D02*
X15825515Y-16472936D01*
X15825515Y-16472936D02*
X15815991Y-16482460D01*
X15815991Y-16482460D02*
X15796943Y-16491984D01*
X15796943Y-16491984D02*
X15739801Y-16491984D01*
X15739801Y-16491984D02*
X15720753Y-16482460D01*
X15720753Y-16482460D02*
X15711229Y-16472936D01*
X15920753Y-16472936D02*
X15930277Y-16482460D01*
X15930277Y-16482460D02*
X15920753Y-16491984D01*
X15920753Y-16491984D02*
X15911229Y-16482460D01*
X15911229Y-16482460D02*
X15920753Y-16472936D01*
X15920753Y-16472936D02*
X15920753Y-16491984D01*
X16006467Y-16311031D02*
X16015991Y-16301508D01*
X16015991Y-16301508D02*
X16035039Y-16291984D01*
X16035039Y-16291984D02*
X16082658Y-16291984D01*
X16082658Y-16291984D02*
X16101705Y-16301508D01*
X16101705Y-16301508D02*
X16111229Y-16311031D01*
X16111229Y-16311031D02*
X16120753Y-16330079D01*
X16120753Y-16330079D02*
X16120753Y-16349127D01*
X16120753Y-16349127D02*
X16111229Y-16377698D01*
X16111229Y-16377698D02*
X15996943Y-16491984D01*
X15996943Y-16491984D02*
X16120753Y-16491984D01*
X16244562Y-16291984D02*
X16263610Y-16291984D01*
X16263610Y-16291984D02*
X16282658Y-16301508D01*
X16282658Y-16301508D02*
X16292182Y-16311031D01*
X16292182Y-16311031D02*
X16301705Y-16330079D01*
X16301705Y-16330079D02*
X16311229Y-16368174D01*
X16311229Y-16368174D02*
X16311229Y-16415793D01*
X16311229Y-16415793D02*
X16301705Y-16453888D01*
X16301705Y-16453888D02*
X16292182Y-16472936D01*
X16292182Y-16472936D02*
X16282658Y-16482460D01*
X16282658Y-16482460D02*
X16263610Y-16491984D01*
X16263610Y-16491984D02*
X16244562Y-16491984D01*
X16244562Y-16491984D02*
X16225515Y-16482460D01*
X16225515Y-16482460D02*
X16215991Y-16472936D01*
X16215991Y-16472936D02*
X16206467Y-16453888D01*
X16206467Y-16453888D02*
X16196943Y-16415793D01*
X16196943Y-16415793D02*
X16196943Y-16368174D01*
X16196943Y-16368174D02*
X16206467Y-16330079D01*
X16206467Y-16330079D02*
X16215991Y-16311031D01*
X16215991Y-16311031D02*
X16225515Y-16301508D01*
X16225515Y-16301508D02*
X16244562Y-16291984D01*
X16435039Y-16291984D02*
X16454086Y-16291984D01*
X16454086Y-16291984D02*
X16473134Y-16301508D01*
X16473134Y-16301508D02*
X16482658Y-16311031D01*
X16482658Y-16311031D02*
X16492182Y-16330079D01*
X16492182Y-16330079D02*
X16501705Y-16368174D01*
X16501705Y-16368174D02*
X16501705Y-16415793D01*
X16501705Y-16415793D02*
X16492182Y-16453888D01*
X16492182Y-16453888D02*
X16482658Y-16472936D01*
X16482658Y-16472936D02*
X16473134Y-16482460D01*
X16473134Y-16482460D02*
X16454086Y-16491984D01*
X16454086Y-16491984D02*
X16435039Y-16491984D01*
X16435039Y-16491984D02*
X16415991Y-16482460D01*
X16415991Y-16482460D02*
X16406467Y-16472936D01*
X16406467Y-16472936D02*
X16396943Y-16453888D01*
X16396943Y-16453888D02*
X16387420Y-16415793D01*
X16387420Y-16415793D02*
X16387420Y-16368174D01*
X16387420Y-16368174D02*
X16396943Y-16330079D01*
X16396943Y-16330079D02*
X16406467Y-16311031D01*
X16406467Y-16311031D02*
X16415991Y-16301508D01*
X16415991Y-16301508D02*
X16435039Y-16291984D01*
X16587420Y-16491984D02*
X16587420Y-16358650D01*
X16587420Y-16377698D02*
X16596943Y-16368174D01*
X16596943Y-16368174D02*
X16615991Y-16358650D01*
X16615991Y-16358650D02*
X16644563Y-16358650D01*
X16644563Y-16358650D02*
X16663610Y-16368174D01*
X16663610Y-16368174D02*
X16673134Y-16387222D01*
X16673134Y-16387222D02*
X16673134Y-16491984D01*
X16673134Y-16387222D02*
X16682658Y-16368174D01*
X16682658Y-16368174D02*
X16701705Y-16358650D01*
X16701705Y-16358650D02*
X16730277Y-16358650D01*
X16730277Y-16358650D02*
X16749324Y-16368174D01*
X16749324Y-16368174D02*
X16758848Y-16387222D01*
X16758848Y-16387222D02*
X16758848Y-16491984D01*
X16854086Y-16491984D02*
X16854086Y-16358650D01*
X16854086Y-16377698D02*
X16863610Y-16368174D01*
X16863610Y-16368174D02*
X16882658Y-16358650D01*
X16882658Y-16358650D02*
X16911229Y-16358650D01*
X16911229Y-16358650D02*
X16930277Y-16368174D01*
X16930277Y-16368174D02*
X16939801Y-16387222D01*
X16939801Y-16387222D02*
X16939801Y-16491984D01*
X16939801Y-16387222D02*
X16949325Y-16368174D01*
X16949325Y-16368174D02*
X16968372Y-16358650D01*
X16968372Y-16358650D02*
X16996944Y-16358650D01*
X16996944Y-16358650D02*
X17015991Y-16368174D01*
X17015991Y-16368174D02*
X17025515Y-16387222D01*
X17025515Y-16387222D02*
X17025515Y-16491984D01*
X17415991Y-16282460D02*
X17244563Y-16539603D01*
X17673134Y-16291984D02*
X17692182Y-16291984D01*
X17692182Y-16291984D02*
X17711229Y-16301508D01*
X17711229Y-16301508D02*
X17720753Y-16311031D01*
X17720753Y-16311031D02*
X17730277Y-16330079D01*
X17730277Y-16330079D02*
X17739801Y-16368174D01*
X17739801Y-16368174D02*
X17739801Y-16415793D01*
X17739801Y-16415793D02*
X17730277Y-16453888D01*
X17730277Y-16453888D02*
X17720753Y-16472936D01*
X17720753Y-16472936D02*
X17711229Y-16482460D01*
X17711229Y-16482460D02*
X17692182Y-16491984D01*
X17692182Y-16491984D02*
X17673134Y-16491984D01*
X17673134Y-16491984D02*
X17654087Y-16482460D01*
X17654087Y-16482460D02*
X17644563Y-16472936D01*
X17644563Y-16472936D02*
X17635039Y-16453888D01*
X17635039Y-16453888D02*
X17625515Y-16415793D01*
X17625515Y-16415793D02*
X17625515Y-16368174D01*
X17625515Y-16368174D02*
X17635039Y-16330079D01*
X17635039Y-16330079D02*
X17644563Y-16311031D01*
X17644563Y-16311031D02*
X17654087Y-16301508D01*
X17654087Y-16301508D02*
X17673134Y-16291984D01*
X17825515Y-16472936D02*
X17835039Y-16482460D01*
X17835039Y-16482460D02*
X17825515Y-16491984D01*
X17825515Y-16491984D02*
X17815991Y-16482460D01*
X17815991Y-16482460D02*
X17825515Y-16472936D01*
X17825515Y-16472936D02*
X17825515Y-16491984D01*
X18025515Y-16491984D02*
X17911229Y-16491984D01*
X17968372Y-16491984D02*
X17968372Y-16291984D01*
X17968372Y-16291984D02*
X17949325Y-16320555D01*
X17949325Y-16320555D02*
X17930277Y-16339603D01*
X17930277Y-16339603D02*
X17911229Y-16349127D01*
X18101706Y-16311031D02*
X18111229Y-16301508D01*
X18111229Y-16301508D02*
X18130277Y-16291984D01*
X18130277Y-16291984D02*
X18177896Y-16291984D01*
X18177896Y-16291984D02*
X18196944Y-16301508D01*
X18196944Y-16301508D02*
X18206468Y-16311031D01*
X18206468Y-16311031D02*
X18215991Y-16330079D01*
X18215991Y-16330079D02*
X18215991Y-16349127D01*
X18215991Y-16349127D02*
X18206468Y-16377698D01*
X18206468Y-16377698D02*
X18092182Y-16491984D01*
X18092182Y-16491984D02*
X18215991Y-16491984D01*
X18387420Y-16291984D02*
X18349325Y-16291984D01*
X18349325Y-16291984D02*
X18330277Y-16301508D01*
X18330277Y-16301508D02*
X18320753Y-16311031D01*
X18320753Y-16311031D02*
X18301706Y-16339603D01*
X18301706Y-16339603D02*
X18292182Y-16377698D01*
X18292182Y-16377698D02*
X18292182Y-16453888D01*
X18292182Y-16453888D02*
X18301706Y-16472936D01*
X18301706Y-16472936D02*
X18311229Y-16482460D01*
X18311229Y-16482460D02*
X18330277Y-16491984D01*
X18330277Y-16491984D02*
X18368372Y-16491984D01*
X18368372Y-16491984D02*
X18387420Y-16482460D01*
X18387420Y-16482460D02*
X18396944Y-16472936D01*
X18396944Y-16472936D02*
X18406468Y-16453888D01*
X18406468Y-16453888D02*
X18406468Y-16406269D01*
X18406468Y-16406269D02*
X18396944Y-16387222D01*
X18396944Y-16387222D02*
X18387420Y-16377698D01*
X18387420Y-16377698D02*
X18368372Y-16368174D01*
X18368372Y-16368174D02*
X18330277Y-16368174D01*
X18330277Y-16368174D02*
X18311229Y-16377698D01*
X18311229Y-16377698D02*
X18301706Y-16387222D01*
X18301706Y-16387222D02*
X18292182Y-16406269D01*
X18530277Y-16291984D02*
X18549325Y-16291984D01*
X18549325Y-16291984D02*
X18568372Y-16301508D01*
X18568372Y-16301508D02*
X18577896Y-16311031D01*
X18577896Y-16311031D02*
X18587420Y-16330079D01*
X18587420Y-16330079D02*
X18596944Y-16368174D01*
X18596944Y-16368174D02*
X18596944Y-16415793D01*
X18596944Y-16415793D02*
X18587420Y-16453888D01*
X18587420Y-16453888D02*
X18577896Y-16472936D01*
X18577896Y-16472936D02*
X18568372Y-16482460D01*
X18568372Y-16482460D02*
X18549325Y-16491984D01*
X18549325Y-16491984D02*
X18530277Y-16491984D01*
X18530277Y-16491984D02*
X18511229Y-16482460D01*
X18511229Y-16482460D02*
X18501706Y-16472936D01*
X18501706Y-16472936D02*
X18492182Y-16453888D01*
X18492182Y-16453888D02*
X18482658Y-16415793D01*
X18482658Y-16415793D02*
X18482658Y-16368174D01*
X18482658Y-16368174D02*
X18492182Y-16330079D01*
X18492182Y-16330079D02*
X18501706Y-16311031D01*
X18501706Y-16311031D02*
X18511229Y-16301508D01*
X18511229Y-16301508D02*
X18530277Y-16291984D01*
X18673134Y-16291984D02*
X18673134Y-16330079D01*
X18749325Y-16291984D02*
X18749325Y-16330079D01*
X19044563Y-16568174D02*
X19035039Y-16558650D01*
X19035039Y-16558650D02*
X19015991Y-16530079D01*
X19015991Y-16530079D02*
X19006468Y-16511031D01*
X19006468Y-16511031D02*
X18996944Y-16482460D01*
X18996944Y-16482460D02*
X18987420Y-16434841D01*
X18987420Y-16434841D02*
X18987420Y-16396746D01*
X18987420Y-16396746D02*
X18996944Y-16349127D01*
X18996944Y-16349127D02*
X19006468Y-16320555D01*
X19006468Y-16320555D02*
X19015991Y-16301508D01*
X19015991Y-16301508D02*
X19035039Y-16272936D01*
X19035039Y-16272936D02*
X19044563Y-16263412D01*
X19206468Y-16358650D02*
X19206468Y-16491984D01*
X19158849Y-16282460D02*
X19111230Y-16425317D01*
X19111230Y-16425317D02*
X19235039Y-16425317D01*
X19463611Y-16491984D02*
X19463611Y-16291984D01*
X19549325Y-16491984D02*
X19549325Y-16387222D01*
X19549325Y-16387222D02*
X19539801Y-16368174D01*
X19539801Y-16368174D02*
X19520753Y-16358650D01*
X19520753Y-16358650D02*
X19492182Y-16358650D01*
X19492182Y-16358650D02*
X19473134Y-16368174D01*
X19473134Y-16368174D02*
X19463611Y-16377698D01*
X19673134Y-16491984D02*
X19654087Y-16482460D01*
X19654087Y-16482460D02*
X19644563Y-16472936D01*
X19644563Y-16472936D02*
X19635039Y-16453888D01*
X19635039Y-16453888D02*
X19635039Y-16396746D01*
X19635039Y-16396746D02*
X19644563Y-16377698D01*
X19644563Y-16377698D02*
X19654087Y-16368174D01*
X19654087Y-16368174D02*
X19673134Y-16358650D01*
X19673134Y-16358650D02*
X19701706Y-16358650D01*
X19701706Y-16358650D02*
X19720753Y-16368174D01*
X19720753Y-16368174D02*
X19730277Y-16377698D01*
X19730277Y-16377698D02*
X19739801Y-16396746D01*
X19739801Y-16396746D02*
X19739801Y-16453888D01*
X19739801Y-16453888D02*
X19730277Y-16472936D01*
X19730277Y-16472936D02*
X19720753Y-16482460D01*
X19720753Y-16482460D02*
X19701706Y-16491984D01*
X19701706Y-16491984D02*
X19673134Y-16491984D01*
X19854087Y-16491984D02*
X19835039Y-16482460D01*
X19835039Y-16482460D02*
X19825515Y-16463412D01*
X19825515Y-16463412D02*
X19825515Y-16291984D01*
X20006468Y-16482460D02*
X19987420Y-16491984D01*
X19987420Y-16491984D02*
X19949325Y-16491984D01*
X19949325Y-16491984D02*
X19930277Y-16482460D01*
X19930277Y-16482460D02*
X19920753Y-16463412D01*
X19920753Y-16463412D02*
X19920753Y-16387222D01*
X19920753Y-16387222D02*
X19930277Y-16368174D01*
X19930277Y-16368174D02*
X19949325Y-16358650D01*
X19949325Y-16358650D02*
X19987420Y-16358650D01*
X19987420Y-16358650D02*
X20006468Y-16368174D01*
X20006468Y-16368174D02*
X20015992Y-16387222D01*
X20015992Y-16387222D02*
X20015992Y-16406269D01*
X20015992Y-16406269D02*
X19920753Y-16425317D01*
X20092182Y-16482460D02*
X20111230Y-16491984D01*
X20111230Y-16491984D02*
X20149325Y-16491984D01*
X20149325Y-16491984D02*
X20168373Y-16482460D01*
X20168373Y-16482460D02*
X20177896Y-16463412D01*
X20177896Y-16463412D02*
X20177896Y-16453888D01*
X20177896Y-16453888D02*
X20168373Y-16434841D01*
X20168373Y-16434841D02*
X20149325Y-16425317D01*
X20149325Y-16425317D02*
X20120753Y-16425317D01*
X20120753Y-16425317D02*
X20101706Y-16415793D01*
X20101706Y-16415793D02*
X20092182Y-16396746D01*
X20092182Y-16396746D02*
X20092182Y-16387222D01*
X20092182Y-16387222D02*
X20101706Y-16368174D01*
X20101706Y-16368174D02*
X20120753Y-16358650D01*
X20120753Y-16358650D02*
X20149325Y-16358650D01*
X20149325Y-16358650D02*
X20168373Y-16368174D01*
X20244563Y-16568174D02*
X20254087Y-16558650D01*
X20254087Y-16558650D02*
X20273134Y-16530079D01*
X20273134Y-16530079D02*
X20282658Y-16511031D01*
X20282658Y-16511031D02*
X20292182Y-16482460D01*
X20292182Y-16482460D02*
X20301706Y-16434841D01*
X20301706Y-16434841D02*
X20301706Y-16396746D01*
X20301706Y-16396746D02*
X20292182Y-16349127D01*
X20292182Y-16349127D02*
X20282658Y-16320555D01*
X20282658Y-16320555D02*
X20273134Y-16301508D01*
X20273134Y-16301508D02*
X20254087Y-16272936D01*
X20254087Y-16272936D02*
X20244563Y-16263412D01*
M02*
