M48
; DRILL file {KiCad 9.0.8} date 2026-03-20T01:35:43+0000
; FORMAT={-:-/ absolute / metric / decimal}
; #@! TF.CreationDate,2026-03-20T01:35:43+00:00
; #@! TF.GenerationSoftware,Kicad,Pcbnew,9.0.8
; #@! TF.FileFunction,Plated,1,2,PTH
FMAT,2
METRIC
; #@! TA.AperFunction,Plated,PTH,ViaDrill
T1C0.300
; #@! TA.AperFunction,Plated,PTH,ComponentDrill
T2C0.500
; #@! TA.AperFunction,Plated,PTH,ComponentDrill
T3C0.600
; #@! TA.AperFunction,Plated,PTH,ComponentDrill
T4C0.800
; #@! TA.AperFunction,Plated,PTH,ComponentDrill
T5C0.900
; #@! TA.AperFunction,Plated,PTH,ViaDrill
T6C1.000
; #@! TA.AperFunction,Plated,PTH,ComponentDrill
T7C1.000
; #@! TA.AperFunction,Plated,PTH,ComponentDrill
T8C1.300
; #@! TA.AperFunction,Plated,PTH,ComponentDrill
T9C1.750
; #@! TA.AperFunction,Plated,PTH,ComponentDrill
T10C3.200
%
G90
G05
T1
X157.72Y-85.32
X158.22Y-87.32
X159.72Y-79.82
X159.72Y-103.82
X160.72Y-60.82
X162.72Y-62.82
X163.72Y-85.32
X163.72Y-93.32
X165.72Y-74.82
X167.17Y-78.77
X167.72Y-87.32
X167.72Y-113.82
X168.22Y-103.82
X169.22Y-121.82
X169.72Y-60.82
X169.72Y-63.32
X170.72Y-57.32
X171.22Y-113.32
X171.72Y-50.82
X171.72Y-108.32
X172.22Y-105.82
X172.72Y-94.32
X173.22Y-92.295
X173.22Y-113.82
X174.72Y-121.82
X175.22Y-64.82
X175.72Y-95.82
X176.22Y-91.32
X179.72Y-84.82
X180.919Y-41.519
X181.72Y-86.32
X183.72Y-90.82
X183.72Y-90.82
X184.72Y-124.82
X185.72Y-123.32
X190.22Y-57.32
X190.72Y-61.32
X191.22Y-68.32
X191.72Y-69.32
X191.72Y-70.82
X191.72Y-87.82
X193.712Y-95.812
X193.72Y-93.272
X194.22Y-45.82
X194.72Y-79.729
X194.72Y-84.32
X195.72Y-55.32
X197.72Y-55.32
X199.72Y-55.32
X200.72Y-60.32
X200.72Y-71.32
X200.72Y-80.32
X201.72Y-53.82
X202.72Y-99.44
X202.72Y-101.98
X202.72Y-104.52
X204.22Y-97.82
X205.22Y-79.82
X205.53Y-88.13
X207.22Y-58.32
X210.22Y-53.32
X212.72Y-52.32
X213.22Y-56.32
X214.72Y-63.32
X215.22Y-55.82
X215.22Y-66.82
X215.72Y-67.82
X215.72Y-76.32
X216.22Y-72.32
X217.22Y-131.82
X218.22Y-53.32
X218.72Y-56.32
X219.22Y-70.32
X220.22Y-54.32
X220.22Y-71.82
X220.32Y-66.82
X221.22Y-73.82
X222.22Y-99.32
X224.768Y-126.272
X225.72Y-103.82
X227.22Y-79.32
X227.22Y-105.32
X229.22Y-76.32
X230.22Y-66.82
X230.22Y-91.32
X231.72Y-114.82
X231.886Y-76.82
X232.22Y-124.82
X232.72Y-63.82
X233.72Y-126.82
X233.72Y-128.32
X233.72Y-130.32
X234.22Y-46.32
X234.22Y-95.32
X235.22Y-63.32
X235.22Y-88.82
X236.22Y-68.82
X236.22Y-96.32
X236.72Y-125.32
X238.45Y-121.32
X240.22Y-73.82
X240.72Y-45.82
X241.72Y-68.82
T2
X157.4Y-128.43
X157.92Y-38.82
X158.103Y-126.733
X158.103Y-130.127
X158.623Y-37.123
X158.623Y-40.517
X159.8Y-126.03
X159.8Y-130.83
X160.32Y-36.42
X160.32Y-41.22
X161.497Y-126.733
X161.497Y-130.127
X162.017Y-37.123
X162.017Y-40.517
X162.2Y-128.43
X162.72Y-38.82
X246.92Y-128.43
X247.24Y-38.59
X247.623Y-126.733
X247.623Y-130.127
X247.943Y-36.893
X247.943Y-40.287
X249.32Y-126.03
X249.32Y-130.83
X249.64Y-36.19
X249.64Y-40.99
X251.017Y-126.733
X251.017Y-130.127
X251.337Y-36.893
X251.337Y-40.287
X251.72Y-128.43
X252.04Y-38.59
T3
X181.72Y-98.32
X181.72Y-99.82
X181.72Y-103.82
X181.72Y-105.32
X181.72Y-109.57
X181.72Y-111.07
X181.72Y-115.32
X181.72Y-116.82
T4
X187.792Y-89.28
X187.792Y-91.82
X187.792Y-94.36
X187.792Y-96.9
X187.792Y-99.44
X187.792Y-101.98
X187.792Y-104.52
X187.792Y-107.06
X187.792Y-109.6
X187.792Y-112.14
X187.792Y-114.68
X187.792Y-117.22
X187.792Y-119.76
X187.792Y-122.3
X187.792Y-124.84
X213.192Y-89.28
X213.192Y-91.82
X213.192Y-94.36
X213.192Y-96.9
X213.192Y-99.44
X213.192Y-101.98
X213.192Y-104.52
X213.192Y-107.06
X213.192Y-109.6
X213.192Y-112.14
X213.192Y-114.68
X213.192Y-117.22
X213.192Y-119.76
X213.192Y-122.3
X213.192Y-124.84
T5
X241.22Y-36.28
X241.22Y-38.82
X249.72Y-46.045
X249.72Y-48.585
T6
X187.707Y-49.806
X210.72Y-79.82
X216.72Y-81.32
X219.22Y-81.32
X221.22Y-47.32
X221.72Y-81.32
X226.72Y-47.82
X228.72Y-48.82
T7
X181.433Y-71.028
X183.972Y-71.028
X186.512Y-71.028
X187.792Y-89.28
X187.792Y-91.82
X187.792Y-94.36
X187.792Y-96.9
X187.792Y-99.44
X187.792Y-101.98
X187.792Y-104.52
X187.792Y-107.06
X187.792Y-109.6
X187.792Y-112.14
X187.792Y-114.68
X187.792Y-117.22
X187.792Y-119.76
X187.792Y-122.3
X187.792Y-124.84
X213.192Y-89.28
X213.192Y-91.82
X213.192Y-94.36
X213.192Y-96.9
X213.192Y-99.44
X213.192Y-101.98
X213.192Y-104.52
X213.192Y-107.06
X213.192Y-109.6
X213.192Y-112.14
X213.192Y-114.68
X213.192Y-117.22
X213.192Y-119.76
X213.192Y-122.3
X213.192Y-124.84
X224.6Y-81.9
X224.6Y-117.46
X227.14Y-81.9
X227.14Y-117.46
X229.68Y-81.9
X229.68Y-117.46
X232.22Y-81.9
X232.22Y-117.46
X234.76Y-81.9
X234.76Y-117.46
X237.3Y-81.9
X237.3Y-117.46
X239.84Y-81.9
X239.84Y-117.46
X242.38Y-81.9
X242.38Y-117.46
X244.92Y-81.9
X244.92Y-117.46
X247.46Y-81.9
X247.46Y-117.46
X250.0Y-81.9
X250.0Y-117.46
T8
X160.22Y-71.32
X160.22Y-77.82
T9
X189.72Y-39.82
X189.72Y-47.82
X191.72Y-43.82
X193.72Y-39.82
X193.72Y-47.82
X195.72Y-43.82
X197.72Y-39.82
X197.72Y-47.82
X199.72Y-43.82
X201.72Y-39.82
X201.72Y-47.82
X203.72Y-43.82
X205.72Y-39.82
X205.72Y-47.82
X207.72Y-43.82
X209.72Y-39.82
X209.72Y-47.82
X211.72Y-43.82
X213.72Y-39.82
X213.72Y-47.82
X215.72Y-43.82
X217.72Y-39.82
X217.72Y-47.82
T10
X159.8Y-128.43
X160.32Y-38.82
X249.32Y-128.43
X249.64Y-38.59
M30
