G04 #@! TF.GenerationSoftware,KiCad,Pcbnew,9.0.8*
G04 #@! TF.CreationDate,2026-03-20T01:35:43+00:00*
G04 #@! TF.ProjectId,E-throttle,452d7468-726f-4747-946c-652e6b696361,rev?*
G04 #@! TF.SameCoordinates,Original*
G04 #@! TF.FileFunction,Soldermask,Top*
G04 #@! TF.FilePolarity,Negative*
%FSLAX46Y46*%
G04 Gerber Fmt 4.6, Leading zero omitted, Abs format (unit mm)*
G04 Created by KiCad (PCBNEW 9.0.8) date 2026-03-20 01:35:43*
%MOMM*%
%LPD*%
G01*
G04 APERTURE LIST*
G04 Aperture macros list*
%AMRoundRect*
0 Rectangle with rounded corners*
0 $1 Rounding radius*
0 $2 $3 $4 $5 $6 $7 $8 $9 X,Y pos of 4 corners*
0 Add a 4 corners polygon primitive as box body*
4,1,4,$2,$3,$4,$5,$6,$7,$8,$9,$2,$3,0*
0 Add four circle primitives for the rounded corners*
1,1,$1+$1,$2,$3*
1,1,$1+$1,$4,$5*
1,1,$1+$1,$6,$7*
1,1,$1+$1,$8,$9*
0 Add four rect primitives between the rounded corners*
20,1,$1+$1,$2,$3,$4,$5,0*
20,1,$1+$1,$4,$5,$6,$7,0*
20,1,$1+$1,$6,$7,$8,$9,0*
20,1,$1+$1,$8,$9,$2,$3,0*%
G04 Aperture macros list end*
%ADD10RoundRect,0.250000X-0.350000X0.850000X-0.350000X-0.850000X0.350000X-0.850000X0.350000X0.850000X0*%
%ADD11RoundRect,0.249997X-2.650003X2.950003X-2.650003X-2.950003X2.650003X-2.950003X2.650003X2.950003X0*%
%ADD12C,2.829000*%
%ADD13RoundRect,0.102000X1.312500X1.312500X-1.312500X1.312500X-1.312500X-1.312500X1.312500X-1.312500X0*%
%ADD14C,2.850000*%
%ADD15RoundRect,0.250000X0.300000X-2.050000X0.300000X2.050000X-0.300000X2.050000X-0.300000X-2.050000X0*%
%ADD16RoundRect,0.250002X5.149998X-4.449998X5.149998X4.449998X-5.149998X4.449998X-5.149998X-4.449998X0*%
%ADD17RoundRect,0.250000X0.262500X0.450000X-0.262500X0.450000X-0.262500X-0.450000X0.262500X-0.450000X0*%
%ADD18RoundRect,0.150000X-0.825000X-0.150000X0.825000X-0.150000X0.825000X0.150000X-0.825000X0.150000X0*%
%ADD19O,1.500000X2.300000*%
%ADD20R,1.500000X2.300000*%
%ADD21R,1.700000X1.700000*%
%ADD22C,1.700000*%
%ADD23RoundRect,0.250000X-0.262500X-0.450000X0.262500X-0.450000X0.262500X0.450000X-0.262500X0.450000X0*%
%ADD24RoundRect,0.237500X-0.300000X-0.237500X0.300000X-0.237500X0.300000X0.237500X-0.300000X0.237500X0*%
%ADD25O,1.900000X1.524000*%
%ADD26RoundRect,0.250000X-0.450000X0.262500X-0.450000X-0.262500X0.450000X-0.262500X0.450000X0.262500X0*%
%ADD27RoundRect,0.250000X-0.475000X0.250000X-0.475000X-0.250000X0.475000X-0.250000X0.475000X0.250000X0*%
%ADD28RoundRect,0.250000X-0.250000X-0.475000X0.250000X-0.475000X0.250000X0.475000X-0.250000X0.475000X0*%
%ADD29RoundRect,0.250000X-0.325000X-0.450000X0.325000X-0.450000X0.325000X0.450000X-0.325000X0.450000X0*%
%ADD30R,1.800000X1.800000*%
%ADD31C,1.800000*%
%ADD32RoundRect,0.250000X-0.450000X0.325000X-0.450000X-0.325000X0.450000X-0.325000X0.450000X0.325000X0*%
%ADD33R,1.100000X4.600000*%
%ADD34R,10.800000X9.400000*%
%ADD35RoundRect,0.250000X0.250000X0.475000X-0.250000X0.475000X-0.250000X-0.475000X0.250000X-0.475000X0*%
%ADD36C,0.800000*%
%ADD37C,6.400000*%
%ADD38R,1.500000X0.800000*%
%ADD39R,2.000000X1.450000*%
%ADD40R,2.400000X1.500000*%
%ADD41RoundRect,0.375000X-0.375000X0.625000X-0.375000X-0.625000X0.375000X-0.625000X0.375000X0.625000X0*%
%ADD42RoundRect,0.500000X-1.400000X0.500000X-1.400000X-0.500000X1.400000X-0.500000X1.400000X0.500000X0*%
%ADD43C,1.200000*%
%ADD44RoundRect,0.250000X0.450000X-0.262500X0.450000X0.262500X-0.450000X0.262500X-0.450000X-0.262500X0*%
%ADD45RoundRect,0.204250X-0.802750X-0.612750X0.802750X-0.612750X0.802750X0.612750X-0.802750X0.612750X0*%
%ADD46R,2.250000X2.250000*%
%ADD47C,2.250000*%
G04 APERTURE END LIST*
D10*
G04 #@! TO.C,U3*
X213720000Y-67320000D03*
X211440000Y-67320000D03*
D11*
X211440000Y-73620000D03*
D10*
X209160000Y-67320000D03*
G04 #@! TD*
D12*
G04 #@! TO.C,J5*
X189720000Y-39820000D03*
X193720000Y-39820000D03*
X197720000Y-39820000D03*
X201720000Y-39820000D03*
X205720000Y-39820000D03*
X209720000Y-39820000D03*
X213720000Y-39820000D03*
X217720000Y-39820000D03*
X191720000Y-43820000D03*
X195720000Y-43820000D03*
X199720000Y-43820000D03*
X203720000Y-43820000D03*
X207720000Y-43820000D03*
X211720000Y-43820000D03*
X215720000Y-43820000D03*
X189720000Y-47820000D03*
X193720000Y-47820000D03*
X197720000Y-47820000D03*
X201720000Y-47820000D03*
X205720000Y-47820000D03*
X209720000Y-47820000D03*
X213720000Y-47820000D03*
D13*
X217720000Y-47820000D03*
D14*
X183220000Y-43320000D03*
X224220000Y-43320000D03*
G04 #@! TD*
D15*
G04 #@! TO.C,Q1*
X165720000Y-57820000D03*
D16*
X163180000Y-48670000D03*
D15*
X163180000Y-57820000D03*
X160640000Y-57820000D03*
G04 #@! TD*
D17*
G04 #@! TO.C,R11*
X221395000Y-71820000D03*
X223220000Y-71820000D03*
G04 #@! TD*
G04 #@! TO.C,R12*
X217395000Y-76320000D03*
X219220000Y-76320000D03*
G04 #@! TD*
D18*
G04 #@! TO.C,U1*
X238220000Y-64930000D03*
X238220000Y-66200000D03*
X238220000Y-67470000D03*
X238220000Y-68740000D03*
X238220000Y-70010000D03*
X238220000Y-71280000D03*
X238220000Y-72550000D03*
X238220000Y-73820000D03*
X233270000Y-73820000D03*
X233270000Y-72550000D03*
X233270000Y-71280000D03*
X233270000Y-70010000D03*
X233270000Y-68740000D03*
X233270000Y-67470000D03*
X233270000Y-66200000D03*
X233270000Y-64930000D03*
G04 #@! TD*
D19*
G04 #@! TO.C,U4*
X186512500Y-71027500D03*
X183972500Y-71027500D03*
D20*
X181432500Y-71027500D03*
G04 #@! TD*
D21*
G04 #@! TO.C,J4*
X250000000Y-117460000D03*
D22*
X247460000Y-117460000D03*
X244920000Y-117460000D03*
X242380000Y-117460000D03*
X239840000Y-117460000D03*
X237300000Y-117460000D03*
X234760000Y-117460000D03*
X232220000Y-117460000D03*
X229680000Y-117460000D03*
X227140000Y-117460000D03*
X224600000Y-117460000D03*
G04 #@! TD*
D23*
G04 #@! TO.C,R8*
X211307500Y-53320000D03*
X213132500Y-53320000D03*
G04 #@! TD*
D17*
G04 #@! TO.C,R18*
X171632500Y-123320000D03*
X169807500Y-123320000D03*
G04 #@! TD*
D24*
G04 #@! TO.C,C11*
X187287500Y-61570000D03*
X189012500Y-61570000D03*
G04 #@! TD*
D17*
G04 #@! TO.C,R16*
X176220000Y-123320000D03*
X174395000Y-123320000D03*
G04 #@! TD*
D25*
G04 #@! TO.C,U5*
X187792460Y-124839813D03*
X187792460Y-122299813D03*
X187792460Y-119759813D03*
X187792460Y-117219813D03*
X187792460Y-114679813D03*
X187792460Y-112139813D03*
X187792460Y-109599813D03*
X187792460Y-107059813D03*
X187792460Y-104519813D03*
X187792460Y-101979813D03*
X187792460Y-99439813D03*
X187792460Y-96899813D03*
X187792460Y-94359813D03*
X187792460Y-91819813D03*
X187792460Y-89279813D03*
X213192460Y-124839813D03*
X213192460Y-122299813D03*
X213192460Y-119759813D03*
X213192460Y-117219813D03*
X213192460Y-114679813D03*
X213192460Y-112139813D03*
X213192460Y-109599813D03*
X213192460Y-107059813D03*
X213192460Y-104519813D03*
X213192460Y-101979813D03*
X213192460Y-99439813D03*
X213192460Y-96899813D03*
X213192460Y-94359813D03*
X213192460Y-91819813D03*
X213192460Y-89279813D03*
G04 #@! TD*
D26*
G04 #@! TO.C,R2*
X165720000Y-70870000D03*
X165720000Y-72695000D03*
G04 #@! TD*
D27*
G04 #@! TO.C,C1*
X165720000Y-76870000D03*
X165720000Y-78770000D03*
G04 #@! TD*
D18*
G04 #@! TO.C,U8*
X226770000Y-125820000D03*
X226770000Y-127090000D03*
X226770000Y-128360000D03*
X226770000Y-129630000D03*
X231720000Y-129630000D03*
X231720000Y-128360000D03*
X231720000Y-127090000D03*
X231720000Y-125820000D03*
G04 #@! TD*
D23*
G04 #@! TO.C,R27*
X174632500Y-89320000D03*
X176457500Y-89320000D03*
G04 #@! TD*
D28*
G04 #@! TO.C,C7*
X226820000Y-67320000D03*
X228720000Y-67320000D03*
G04 #@! TD*
D29*
G04 #@! TO.C,D5*
X217170000Y-67900000D03*
X219220000Y-67900000D03*
G04 #@! TD*
D23*
G04 #@! TO.C,R10*
X174720000Y-101820000D03*
X176545000Y-101820000D03*
G04 #@! TD*
D28*
G04 #@! TO.C,C3*
X211820000Y-57820000D03*
X213720000Y-57820000D03*
G04 #@! TD*
D30*
G04 #@! TO.C,D1*
X241220000Y-36280000D03*
D31*
X241220000Y-38820000D03*
G04 #@! TD*
D32*
G04 #@! TO.C,D4*
X174987500Y-70907500D03*
X174987500Y-72957500D03*
G04 #@! TD*
D33*
G04 #@! TO.C,IC1*
X243420000Y-68820000D03*
X245120000Y-68820000D03*
D34*
X246820000Y-59670000D03*
D33*
X248520000Y-68820000D03*
X250220000Y-68820000D03*
G04 #@! TD*
D35*
G04 #@! TO.C,C4*
X223220000Y-67820000D03*
X221320000Y-67820000D03*
G04 #@! TD*
D36*
G04 #@! TO.C,H1*
X157920000Y-38820000D03*
X158622944Y-37122944D03*
X158622944Y-40517056D03*
X160320000Y-36420000D03*
D37*
X160320000Y-38820000D03*
D36*
X160320000Y-41220000D03*
X162017056Y-37122944D03*
X162017056Y-40517056D03*
X162720000Y-38820000D03*
G04 #@! TD*
D17*
G04 #@! TO.C,R6*
X170132500Y-112320000D03*
X168307500Y-112320000D03*
G04 #@! TD*
D38*
G04 #@! TO.C,J9*
X161845000Y-98895000D03*
X161845000Y-97795000D03*
X161845000Y-96695000D03*
X161845000Y-95595000D03*
X161845000Y-94495000D03*
X161845000Y-93395000D03*
X161845000Y-92295000D03*
X161845000Y-91195000D03*
D39*
X159245000Y-102570000D03*
X167545000Y-102570000D03*
X159245000Y-88820000D03*
X167545000Y-88820000D03*
G04 #@! TD*
D23*
G04 #@! TO.C,R20*
X227395000Y-71320000D03*
X229220000Y-71320000D03*
G04 #@! TD*
D36*
G04 #@! TO.C,H3*
X247240000Y-38590000D03*
X247942944Y-36892944D03*
X247942944Y-40287056D03*
X249640000Y-36190000D03*
D37*
X249640000Y-38590000D03*
D36*
X249640000Y-40990000D03*
X251337056Y-36892944D03*
X251337056Y-40287056D03*
X252040000Y-38590000D03*
G04 #@! TD*
D17*
G04 #@! TO.C,R15*
X176220000Y-127320000D03*
X174395000Y-127320000D03*
G04 #@! TD*
D28*
G04 #@! TO.C,C5*
X221320000Y-76320000D03*
X223220000Y-76320000D03*
G04 #@! TD*
D24*
G04 #@! TO.C,C10*
X187287500Y-56570000D03*
X189012500Y-56570000D03*
G04 #@! TD*
D17*
G04 #@! TO.C,R21*
X217720000Y-62320000D03*
X215895000Y-62320000D03*
G04 #@! TD*
D35*
G04 #@! TO.C,C8*
X161045000Y-85320000D03*
X159145000Y-85320000D03*
G04 #@! TD*
D40*
G04 #@! TO.C,L1*
X181512500Y-56570000D03*
X181512500Y-62070000D03*
G04 #@! TD*
D41*
G04 #@! TO.C,U2*
X209320000Y-56320000D03*
X207020000Y-56320000D03*
D42*
X207020000Y-62620000D03*
D41*
X204720000Y-56320000D03*
G04 #@! TD*
D21*
G04 #@! TO.C,J3*
X250000000Y-81900000D03*
D22*
X247460000Y-81900000D03*
X244920000Y-81900000D03*
X242380000Y-81900000D03*
X239840000Y-81900000D03*
X237300000Y-81900000D03*
X234760000Y-81900000D03*
X232220000Y-81900000D03*
X229680000Y-81900000D03*
X227140000Y-81900000D03*
X224600000Y-81900000D03*
G04 #@! TD*
D23*
G04 #@! TO.C,R19*
X232395000Y-62320000D03*
X234220000Y-62320000D03*
G04 #@! TD*
D36*
G04 #@! TO.C,H2*
X157400000Y-128430000D03*
X158102944Y-126732944D03*
X158102944Y-130127056D03*
X159800000Y-126030000D03*
D37*
X159800000Y-128430000D03*
D36*
X159800000Y-130830000D03*
X161497056Y-126732944D03*
X161497056Y-130127056D03*
X162200000Y-128430000D03*
G04 #@! TD*
D23*
G04 #@! TO.C,R17*
X169815000Y-127320000D03*
X171640000Y-127320000D03*
G04 #@! TD*
D26*
G04 #@! TO.C,R4*
X167720000Y-63820000D03*
X167720000Y-65645000D03*
G04 #@! TD*
D30*
G04 #@! TO.C,D2*
X249720000Y-46045000D03*
D31*
X249720000Y-48585000D03*
G04 #@! TD*
D17*
G04 #@! TO.C,R23*
X244220000Y-45820000D03*
X242395000Y-45820000D03*
G04 #@! TD*
D35*
G04 #@! TO.C,C9*
X166545000Y-85320000D03*
X164645000Y-85320000D03*
G04 #@! TD*
D36*
G04 #@! TO.C,H4*
X246920000Y-128430000D03*
X247622944Y-126732944D03*
X247622944Y-130127056D03*
X249320000Y-126030000D03*
D37*
X249320000Y-128430000D03*
D36*
X249320000Y-130830000D03*
X251017056Y-126732944D03*
X251017056Y-130127056D03*
X251720000Y-128430000D03*
G04 #@! TD*
D43*
G04 #@! TO.C,C14*
X181720000Y-109570000D03*
X181720000Y-111070000D03*
G04 #@! TD*
G04 #@! TO.C,C13*
X181720000Y-103820000D03*
X181720000Y-105320000D03*
G04 #@! TD*
D21*
G04 #@! TO.C,J2*
X187792460Y-124839813D03*
D22*
X187792460Y-122299813D03*
X187792460Y-119759813D03*
X187792460Y-117219813D03*
X187792460Y-114679813D03*
X187792460Y-112139813D03*
X187792460Y-109599813D03*
X187792460Y-107059813D03*
X187792460Y-104519813D03*
X187792460Y-101979813D03*
X187792460Y-99439813D03*
X187792460Y-96899813D03*
X187792460Y-94359813D03*
X187792460Y-91819813D03*
X187792460Y-89279813D03*
G04 #@! TD*
D29*
G04 #@! TO.C,D3*
X211695000Y-62320000D03*
X213745000Y-62320000D03*
G04 #@! TD*
D44*
G04 #@! TO.C,R29*
X175012500Y-67732500D03*
X175012500Y-65907500D03*
G04 #@! TD*
D17*
G04 #@! TO.C,R13*
X174632500Y-112320000D03*
X172807500Y-112320000D03*
G04 #@! TD*
D28*
G04 #@! TO.C,C6*
X236820000Y-62320000D03*
X238720000Y-62320000D03*
G04 #@! TD*
D23*
G04 #@! TO.C,R3*
X168307500Y-115820000D03*
X170132500Y-115820000D03*
G04 #@! TD*
D45*
G04 #@! TO.C,U6*
X173720000Y-48550000D03*
X173720000Y-51090000D03*
X182720000Y-51090000D03*
X182720000Y-48550000D03*
G04 #@! TD*
D43*
G04 #@! TO.C,C15*
X181720000Y-115320000D03*
X181720000Y-116820000D03*
G04 #@! TD*
D46*
G04 #@! TO.C,SW1*
X160220000Y-71320000D03*
D47*
X160220000Y-77820000D03*
G04 #@! TD*
D21*
G04 #@! TO.C,J1*
X213192460Y-124839813D03*
D22*
X213192460Y-122299813D03*
X213192460Y-119759813D03*
X213192460Y-117219813D03*
X213192460Y-114679813D03*
X213192460Y-112139813D03*
X213192460Y-109599813D03*
X213192460Y-107059813D03*
X213192460Y-104519813D03*
X213192460Y-101979813D03*
X213192460Y-99439813D03*
X213192460Y-96899813D03*
X213192460Y-94359813D03*
X213192460Y-91819813D03*
X213192460Y-89279813D03*
G04 #@! TD*
D23*
G04 #@! TO.C,R14*
X174720000Y-98320000D03*
X176545000Y-98320000D03*
G04 #@! TD*
G04 #@! TO.C,R7*
X172807500Y-115820000D03*
X174632500Y-115820000D03*
G04 #@! TD*
D26*
G04 #@! TO.C,R22*
X235220000Y-42495000D03*
X235220000Y-44320000D03*
G04 #@! TD*
D17*
G04 #@! TO.C,R28*
X219170000Y-71820000D03*
X217345000Y-71820000D03*
G04 #@! TD*
D44*
G04 #@! TO.C,R5*
X162720000Y-66145000D03*
X162720000Y-64320000D03*
G04 #@! TD*
D43*
G04 #@! TO.C,C12*
X181720000Y-98320000D03*
X181720000Y-99820000D03*
G04 #@! TD*
D28*
G04 #@! TO.C,C2*
X215182500Y-53320000D03*
X217082500Y-53320000D03*
G04 #@! TD*
D23*
G04 #@! TO.C,R24*
X174632500Y-93820000D03*
X176457500Y-93820000D03*
G04 #@! TD*
G04 #@! TO.C,R9*
X215895000Y-57820000D03*
X217720000Y-57820000D03*
G04 #@! TD*
M02*
