G04 #@! TF.GenerationSoftware,KiCad,Pcbnew,9.0.8*
G04 #@! TF.CreationDate,2026-03-20T01:35:43+00:00*
G04 #@! TF.ProjectId,E-throttle,452d7468-726f-4747-946c-652e6b696361,rev?*
G04 #@! TF.SameCoordinates,Original*
G04 #@! TF.FileFunction,Copper,L1,Top*
G04 #@! TF.FilePolarity,Positive*
%FSLAX46Y46*%
G04 Gerber Fmt 4.6, Leading zero omitted, Abs format (unit mm)*
G04 Created by KiCad (PCBNEW 9.0.8) date 2026-03-20 01:35:43*
%MOMM*%
%LPD*%
G01*
G04 APERTURE LIST*
G04 Aperture macros list*
%AMRoundRect*
0 Rectangle with rounded corners*
0 $1 Rounding radius*
0 $2 $3 $4 $5 $6 $7 $8 $9 X,Y pos of 4 corners*
0 Add a 4 corners polygon primitive as box body*
4,1,4,$2,$3,$4,$5,$6,$7,$8,$9,$2,$3,0*
0 Add four circle primitives for the rounded corners*
1,1,$1+$1,$2,$3*
1,1,$1+$1,$4,$5*
1,1,$1+$1,$6,$7*
1,1,$1+$1,$8,$9*
0 Add four rect primitives between the rounded corners*
20,1,$1+$1,$2,$3,$4,$5,0*
20,1,$1+$1,$4,$5,$6,$7,0*
20,1,$1+$1,$6,$7,$8,$9,0*
20,1,$1+$1,$8,$9,$2,$3,0*%
G04 Aperture macros list end*
G04 #@! TA.AperFunction,SMDPad,CuDef*
%ADD10RoundRect,0.250000X-0.350000X0.850000X-0.350000X-0.850000X0.350000X-0.850000X0.350000X0.850000X0*%
G04 #@! TD*
G04 #@! TA.AperFunction,SMDPad,CuDef*
%ADD11RoundRect,0.249997X-2.650003X2.950003X-2.650003X-2.950003X2.650003X-2.950003X2.650003X2.950003X0*%
G04 #@! TD*
G04 #@! TA.AperFunction,ComponentPad*
%ADD12C,2.625000*%
G04 #@! TD*
G04 #@! TA.AperFunction,ComponentPad*
%ADD13R,2.625000X2.625000*%
G04 #@! TD*
G04 #@! TA.AperFunction,SMDPad,CuDef*
%ADD14RoundRect,0.250000X0.300000X-2.050000X0.300000X2.050000X-0.300000X2.050000X-0.300000X-2.050000X0*%
G04 #@! TD*
G04 #@! TA.AperFunction,SMDPad,CuDef*
%ADD15RoundRect,0.250002X5.149998X-4.449998X5.149998X4.449998X-5.149998X4.449998X-5.149998X-4.449998X0*%
G04 #@! TD*
G04 #@! TA.AperFunction,SMDPad,CuDef*
%ADD16RoundRect,0.250000X0.262500X0.450000X-0.262500X0.450000X-0.262500X-0.450000X0.262500X-0.450000X0*%
G04 #@! TD*
G04 #@! TA.AperFunction,SMDPad,CuDef*
%ADD17RoundRect,0.150000X-0.825000X-0.150000X0.825000X-0.150000X0.825000X0.150000X-0.825000X0.150000X0*%
G04 #@! TD*
G04 #@! TA.AperFunction,ComponentPad*
%ADD18O,1.500000X2.300000*%
G04 #@! TD*
G04 #@! TA.AperFunction,ComponentPad*
%ADD19R,1.500000X2.300000*%
G04 #@! TD*
G04 #@! TA.AperFunction,ComponentPad*
%ADD20R,1.700000X1.700000*%
G04 #@! TD*
G04 #@! TA.AperFunction,ComponentPad*
%ADD21C,1.700000*%
G04 #@! TD*
G04 #@! TA.AperFunction,SMDPad,CuDef*
%ADD22RoundRect,0.250000X-0.262500X-0.450000X0.262500X-0.450000X0.262500X0.450000X-0.262500X0.450000X0*%
G04 #@! TD*
G04 #@! TA.AperFunction,SMDPad,CuDef*
%ADD23RoundRect,0.237500X-0.300000X-0.237500X0.300000X-0.237500X0.300000X0.237500X-0.300000X0.237500X0*%
G04 #@! TD*
G04 #@! TA.AperFunction,ComponentPad*
%ADD24O,1.900000X1.524000*%
G04 #@! TD*
G04 #@! TA.AperFunction,SMDPad,CuDef*
%ADD25RoundRect,0.250000X-0.450000X0.262500X-0.450000X-0.262500X0.450000X-0.262500X0.450000X0.262500X0*%
G04 #@! TD*
G04 #@! TA.AperFunction,SMDPad,CuDef*
%ADD26RoundRect,0.250000X-0.475000X0.250000X-0.475000X-0.250000X0.475000X-0.250000X0.475000X0.250000X0*%
G04 #@! TD*
G04 #@! TA.AperFunction,SMDPad,CuDef*
%ADD27RoundRect,0.250000X-0.250000X-0.475000X0.250000X-0.475000X0.250000X0.475000X-0.250000X0.475000X0*%
G04 #@! TD*
G04 #@! TA.AperFunction,SMDPad,CuDef*
%ADD28RoundRect,0.250000X-0.325000X-0.450000X0.325000X-0.450000X0.325000X0.450000X-0.325000X0.450000X0*%
G04 #@! TD*
G04 #@! TA.AperFunction,ComponentPad*
%ADD29R,1.800000X1.800000*%
G04 #@! TD*
G04 #@! TA.AperFunction,ComponentPad*
%ADD30C,1.800000*%
G04 #@! TD*
G04 #@! TA.AperFunction,SMDPad,CuDef*
%ADD31RoundRect,0.250000X-0.450000X0.325000X-0.450000X-0.325000X0.450000X-0.325000X0.450000X0.325000X0*%
G04 #@! TD*
G04 #@! TA.AperFunction,SMDPad,CuDef*
%ADD32R,1.100000X4.600000*%
G04 #@! TD*
G04 #@! TA.AperFunction,SMDPad,CuDef*
%ADD33R,10.800000X9.400000*%
G04 #@! TD*
G04 #@! TA.AperFunction,SMDPad,CuDef*
%ADD34RoundRect,0.250000X0.250000X0.475000X-0.250000X0.475000X-0.250000X-0.475000X0.250000X-0.475000X0*%
G04 #@! TD*
G04 #@! TA.AperFunction,ComponentPad*
%ADD35C,0.800000*%
G04 #@! TD*
G04 #@! TA.AperFunction,ComponentPad*
%ADD36C,6.400000*%
G04 #@! TD*
G04 #@! TA.AperFunction,SMDPad,CuDef*
%ADD37R,1.500000X0.800000*%
G04 #@! TD*
G04 #@! TA.AperFunction,SMDPad,CuDef*
%ADD38R,2.000000X1.450000*%
G04 #@! TD*
G04 #@! TA.AperFunction,SMDPad,CuDef*
%ADD39R,2.400000X1.500000*%
G04 #@! TD*
G04 #@! TA.AperFunction,SMDPad,CuDef*
%ADD40RoundRect,0.375000X-0.375000X0.625000X-0.375000X-0.625000X0.375000X-0.625000X0.375000X0.625000X0*%
G04 #@! TD*
G04 #@! TA.AperFunction,SMDPad,CuDef*
%ADD41RoundRect,0.500000X-1.400000X0.500000X-1.400000X-0.500000X1.400000X-0.500000X1.400000X0.500000X0*%
G04 #@! TD*
G04 #@! TA.AperFunction,ComponentPad*
%ADD42C,1.200000*%
G04 #@! TD*
G04 #@! TA.AperFunction,SMDPad,CuDef*
%ADD43RoundRect,0.250000X0.450000X-0.262500X0.450000X0.262500X-0.450000X0.262500X-0.450000X-0.262500X0*%
G04 #@! TD*
G04 #@! TA.AperFunction,SMDPad,CuDef*
%ADD44RoundRect,0.178750X-0.726250X-0.536250X0.726250X-0.536250X0.726250X0.536250X-0.726250X0.536250X0*%
G04 #@! TD*
G04 #@! TA.AperFunction,ComponentPad*
%ADD45R,2.250000X2.250000*%
G04 #@! TD*
G04 #@! TA.AperFunction,ComponentPad*
%ADD46C,2.250000*%
G04 #@! TD*
G04 #@! TA.AperFunction,ViaPad*
%ADD47C,0.600000*%
G04 #@! TD*
G04 #@! TA.AperFunction,ViaPad*
%ADD48C,1.400000*%
G04 #@! TD*
G04 #@! TA.AperFunction,Conductor*
%ADD49C,0.400000*%
G04 #@! TD*
G04 #@! TA.AperFunction,Conductor*
%ADD50C,0.250000*%
G04 #@! TD*
G04 #@! TA.AperFunction,Conductor*
%ADD51C,0.200000*%
G04 #@! TD*
G04 #@! TA.AperFunction,Conductor*
%ADD52C,0.500000*%
G04 #@! TD*
G04 #@! TA.AperFunction,Conductor*
%ADD53C,1.000000*%
G04 #@! TD*
G04 APERTURE END LIST*
D10*
G04 #@! TO.P,U3,1,GND*
G04 #@! TO.N,Net-(U3-GND)*
X213720000Y-67320000D03*
G04 #@! TO.P,U3,2,VO*
G04 #@! TO.N,+3V3*
X211440000Y-67320000D03*
D11*
X211440000Y-73620000D03*
D10*
G04 #@! TO.P,U3,3,VI*
G04 #@! TO.N,+5V*
X209160000Y-67320000D03*
G04 #@! TD*
D12*
G04 #@! TO.P,J5,23,Pin_23*
G04 #@! TO.N,GND*
X189720000Y-39820000D03*
G04 #@! TO.P,J5,22,Pin_22*
G04 #@! TO.N,/RELAY_2*
X193720000Y-39820000D03*
G04 #@! TO.P,J5,21,Pin_21*
G04 #@! TO.N,/RELAY_1*
X197720000Y-39820000D03*
G04 #@! TO.P,J5,20,Pin_20*
G04 #@! TO.N,/CAN-L*
X201720000Y-39820000D03*
G04 #@! TO.P,J5,19,Pin_19*
G04 #@! TO.N,/CAN-H*
X205720000Y-39820000D03*
G04 #@! TO.P,J5,18,Pin_18*
G04 #@! TO.N,/STEP-2-*
X209720000Y-39820000D03*
G04 #@! TO.P,J5,17,Pin_17*
G04 #@! TO.N,/STEP-2+*
X213720000Y-39820000D03*
G04 #@! TO.P,J5,16,Pin_16*
G04 #@! TO.N,/STEP-1-*
X217720000Y-39820000D03*
G04 #@! TO.P,J5,15,Pin_15*
G04 #@! TO.N,/STEP-1+*
X191720000Y-43820000D03*
G04 #@! TO.P,J5,14,Pin_14*
G04 #@! TO.N,/APPS-SIG2*
X195720000Y-43820000D03*
G04 #@! TO.P,J5,13,Pin_13*
G04 #@! TO.N,/APPS-SIG1*
X199720000Y-43820000D03*
G04 #@! TO.P,J5,12,Pin_12*
G04 #@! TO.N,GND*
X203720000Y-43820000D03*
G04 #@! TO.P,J5,11,Pin_11*
G04 #@! TO.N,+5V-SENSORS*
X207720000Y-43820000D03*
G04 #@! TO.P,J5,10,Pin_10*
G04 #@! TO.N,GND*
X211720000Y-43820000D03*
G04 #@! TO.P,J5,9,Pin_9*
G04 #@! TO.N,/TPS-SIG2*
X215720000Y-43820000D03*
G04 #@! TO.P,J5,8,Pin_8*
G04 #@! TO.N,+5V-SENSORS*
X189720000Y-47820000D03*
G04 #@! TO.P,J5,7,Pin_7*
G04 #@! TO.N,GND*
X193720000Y-47820000D03*
G04 #@! TO.P,J5,6,Pin_6*
G04 #@! TO.N,/TPS-SIG1*
X197720000Y-47820000D03*
G04 #@! TO.P,J5,5,Pin_5*
G04 #@! TO.N,+5V-SENSORS*
X201720000Y-47820000D03*
G04 #@! TO.P,J5,4,Pin_4*
G04 #@! TO.N,/BLIP-IN*
X205720000Y-47820000D03*
G04 #@! TO.P,J5,3,Pin_3*
G04 #@! TO.N,/IDLE*
X209720000Y-47820000D03*
G04 #@! TO.P,J5,2,Pin_2*
G04 #@! TO.N,+12VStep*
X213720000Y-47820000D03*
D13*
G04 #@! TO.P,J5,1,Pin_1*
G04 #@! TO.N,+12V*
X217720000Y-47820000D03*
G04 #@! TD*
D14*
G04 #@! TO.P,Q1,3,S*
G04 #@! TO.N,/BLIP-OUT*
X165720000Y-57820000D03*
D15*
G04 #@! TO.P,Q1,2,G*
G04 #@! TO.N,+3V3*
X163180000Y-48670000D03*
D14*
X163180000Y-57820000D03*
G04 #@! TO.P,Q1,1,D*
G04 #@! TO.N,/BLIP-IN*
X160640000Y-57820000D03*
G04 #@! TD*
D16*
G04 #@! TO.P,R11,2*
G04 #@! TO.N,GND*
X221395000Y-71820000D03*
G04 #@! TO.P,R11,1*
G04 #@! TO.N,Net-(U3-GND)*
X223220000Y-71820000D03*
G04 #@! TD*
G04 #@! TO.P,R12,2*
G04 #@! TO.N,Net-(U3-GND)*
X217395000Y-76320000D03*
G04 #@! TO.P,R12,1*
G04 #@! TO.N,+3V3*
X219220000Y-76320000D03*
G04 #@! TD*
D17*
G04 #@! TO.P,U1,16*
G04 #@! TO.N,N/C*
X238220000Y-64930000D03*
G04 #@! TO.P,U1,15,RCext*
G04 #@! TO.N,Net-(U1A-RCext)*
X238220000Y-66200000D03*
G04 #@! TO.P,U1,14,Cext*
G04 #@! TO.N,Net-(U1A-Cext)*
X238220000Y-67470000D03*
G04 #@! TO.P,U1,13,Q*
G04 #@! TO.N,/WD_ENABLE_STEP_PROFET*
X238220000Y-68740000D03*
G04 #@! TO.P,U1,12,~{Q}*
G04 #@! TO.N,Net-(D2-A)*
X238220000Y-70010000D03*
G04 #@! TO.P,U1,11,Clr*
G04 #@! TO.N,+3V3*
X238220000Y-71280000D03*
G04 #@! TO.P,U1,10,B*
G04 #@! TO.N,/ESP_HEARTBEAT_L2*
X238220000Y-72550000D03*
G04 #@! TO.P,U1,9,A*
G04 #@! TO.N,GND*
X238220000Y-73820000D03*
G04 #@! TO.P,U1,8*
G04 #@! TO.N,N/C*
X233270000Y-73820000D03*
G04 #@! TO.P,U1,7,RCext*
G04 #@! TO.N,Net-(U1B-RCext)*
X233270000Y-72550000D03*
G04 #@! TO.P,U1,6,Cext*
G04 #@! TO.N,Net-(U1B-Cext)*
X233270000Y-71280000D03*
G04 #@! TO.P,U1,5,Q*
G04 #@! TO.N,/WD_ENABLE_STEP_RELAY*
X233270000Y-70010000D03*
G04 #@! TO.P,U1,4,~{Q}*
G04 #@! TO.N,Net-(D1-A)*
X233270000Y-68740000D03*
G04 #@! TO.P,U1,3,Clr*
G04 #@! TO.N,+3V3*
X233270000Y-67470000D03*
G04 #@! TO.P,U1,2,B*
G04 #@! TO.N,/ESP_HEARTBEAT_L1*
X233270000Y-66200000D03*
G04 #@! TO.P,U1,1,A*
G04 #@! TO.N,GND*
X233270000Y-64930000D03*
G04 #@! TD*
D18*
G04 #@! TO.P,U4,3,OUT*
G04 #@! TO.N,+5V*
X186512500Y-71027500D03*
G04 #@! TO.P,U4,2,GND*
G04 #@! TO.N,GND*
X183972500Y-71027500D03*
D19*
G04 #@! TO.P,U4,1,IN*
G04 #@! TO.N,Net-(U4-IN)*
X181432500Y-71027500D03*
G04 #@! TD*
D20*
G04 #@! TO.P,J4,1,Pin_1*
G04 #@! TO.N,+12VStep-SAFE*
X250000000Y-117460000D03*
D21*
G04 #@! TO.P,J4,2,Pin_2*
G04 #@! TO.N,GND*
X247460000Y-117460000D03*
G04 #@! TO.P,J4,3,Pin_3*
G04 #@! TO.N,/STEP-2-*
X244920000Y-117460000D03*
G04 #@! TO.P,J4,4,Pin_4*
G04 #@! TO.N,/STEP-2+*
X242380000Y-117460000D03*
G04 #@! TO.P,J4,5,Pin_5*
G04 #@! TO.N,/STEP-1-*
X239840000Y-117460000D03*
G04 #@! TO.P,J4,6,Pin_6*
G04 #@! TO.N,/STEP-1+*
X237300000Y-117460000D03*
G04 #@! TO.P,J4,7,Pin_7*
G04 #@! TO.N,GND*
X234760000Y-117460000D03*
G04 #@! TO.P,J4,8,Pin_8*
G04 #@! TO.N,/DIAG0*
X232220000Y-117460000D03*
G04 #@! TO.P,J4,9,Pin_9*
G04 #@! TO.N,GND*
X229680000Y-117460000D03*
G04 #@! TO.P,J4,10,Pin_10*
X227140000Y-117460000D03*
G04 #@! TO.P,J4,11,Pin_11*
X224600000Y-117460000D03*
G04 #@! TD*
D22*
G04 #@! TO.P,R8,1*
G04 #@! TO.N,Net-(U2-ADJ)*
X211307500Y-53320000D03*
G04 #@! TO.P,R8,2*
G04 #@! TO.N,GND*
X213132500Y-53320000D03*
G04 #@! TD*
D16*
G04 #@! TO.P,R18,1*
G04 #@! TO.N,/TPS-SIG1-OUT*
X171632500Y-123320000D03*
G04 #@! TO.P,R18,2*
G04 #@! TO.N,GND*
X169807500Y-123320000D03*
G04 #@! TD*
D23*
G04 #@! TO.P,C11,1*
G04 #@! TO.N,Net-(U4-IN)*
X187287500Y-61570000D03*
G04 #@! TO.P,C11,2*
G04 #@! TO.N,GND*
X189012500Y-61570000D03*
G04 #@! TD*
D16*
G04 #@! TO.P,R16,1*
G04 #@! TO.N,/TPS-SIG2-OUT*
X176220000Y-123320000D03*
G04 #@! TO.P,R16,2*
G04 #@! TO.N,GND*
X174395000Y-123320000D03*
G04 #@! TD*
D24*
G04 #@! TO.P,U5,1,VIN*
G04 #@! TO.N,+5V*
X187792460Y-124839813D03*
G04 #@! TO.P,U5,2,GND*
G04 #@! TO.N,GND*
X187792460Y-122299813D03*
G04 #@! TO.P,U5,3,D13*
G04 #@! TO.N,/DIAG0*
X187792460Y-119759813D03*
G04 #@! TO.P,U5,4,D12*
G04 #@! TO.N,unconnected-(U5-D12-Pad4)*
X187792460Y-117219813D03*
G04 #@! TO.P,U5,5,D14*
G04 #@! TO.N,/ESP_HEARTBEAT_L1*
X187792460Y-114679813D03*
G04 #@! TO.P,U5,6,D27*
G04 #@! TO.N,/ESP_HEARTBEAT_L2*
X187792460Y-112139813D03*
G04 #@! TO.P,U5,7,D26*
G04 #@! TO.N,/BLIP-OUT*
X187792460Y-109599813D03*
G04 #@! TO.P,U5,8,D25*
G04 #@! TO.N,/TPS-SIG2-OUT*
X187792460Y-107059813D03*
G04 #@! TO.P,U5,9,D33*
G04 #@! TO.N,/TPS-SIG1-OUT*
X187792460Y-104519813D03*
G04 #@! TO.P,U5,10,D32*
G04 #@! TO.N,/APPS-SIG2-OUT*
X187792460Y-101979813D03*
G04 #@! TO.P,U5,11,D35*
G04 #@! TO.N,unconnected-(U5-D35-Pad11)*
X187792460Y-99439813D03*
G04 #@! TO.P,U5,12,D34*
G04 #@! TO.N,/APPS-SIG1-OUT*
X187792460Y-96899813D03*
G04 #@! TO.P,U5,13,VN*
G04 #@! TO.N,unconnected-(U5-VN-Pad13)*
X187792460Y-94359813D03*
G04 #@! TO.P,U5,14,VP*
G04 #@! TO.N,unconnected-(U5-VP-Pad14)*
X187792460Y-91819813D03*
G04 #@! TO.P,U5,15,EN*
G04 #@! TO.N,unconnected-(U5-EN-Pad15)*
X187792460Y-89279813D03*
G04 #@! TO.P,U5,16,3V3*
G04 #@! TO.N,unconnected-(U5-3V3-Pad16)*
X213192460Y-124839813D03*
G04 #@! TO.P,U5,17,GND*
G04 #@! TO.N,unconnected-(U5-GND-Pad17)*
X213192460Y-122299813D03*
G04 #@! TO.P,U5,18,D15*
G04 #@! TO.N,unconnected-(U5-D15-Pad18)*
X213192460Y-119759813D03*
G04 #@! TO.P,U5,19,D2*
G04 #@! TO.N,unconnected-(U5-D2-Pad19)*
X213192460Y-117219813D03*
G04 #@! TO.P,U5,20,D4*
G04 #@! TO.N,unconnected-(U5-D4-Pad20)*
X213192460Y-114679813D03*
G04 #@! TO.P,U5,21,RX2*
G04 #@! TO.N,/CAN-TX*
X213192460Y-112139813D03*
G04 #@! TO.P,U5,22,TX2*
G04 #@! TO.N,/CAN-RX*
X213192460Y-109599813D03*
G04 #@! TO.P,U5,23,D5*
G04 #@! TO.N,/MOTOR-CS*
X213192460Y-107059813D03*
G04 #@! TO.P,U5,24,D18*
G04 #@! TO.N,/SPI-SCK*
X213192460Y-104519813D03*
G04 #@! TO.P,U5,25,D19*
G04 #@! TO.N,/SPI-MISO*
X213192460Y-101979813D03*
G04 #@! TO.P,U5,26,D21/SDA*
G04 #@! TO.N,/CARD-CS*
X213192460Y-99439813D03*
G04 #@! TO.P,U5,27,RX0*
G04 #@! TO.N,unconnected-(U5-RX0-Pad27)*
X213192460Y-96899813D03*
G04 #@! TO.P,U5,28,TX0*
G04 #@! TO.N,unconnected-(U5-TX0-Pad28)*
X213192460Y-94359813D03*
G04 #@! TO.P,U5,29,D22/SCL*
G04 #@! TO.N,unconnected-(U5-D22{slash}SCL-Pad29)*
X213192460Y-91819813D03*
G04 #@! TO.P,U5,30,D23*
G04 #@! TO.N,/SPI-MOSI*
X213192460Y-89279813D03*
G04 #@! TD*
D25*
G04 #@! TO.P,R2,1*
G04 #@! TO.N,+3V3*
X165720000Y-70870000D03*
G04 #@! TO.P,R2,2*
G04 #@! TO.N,/ENABLE*
X165720000Y-72695000D03*
G04 #@! TD*
D26*
G04 #@! TO.P,C1,1*
G04 #@! TO.N,/ENABLE*
X165720000Y-76870000D03*
G04 #@! TO.P,C1,2*
G04 #@! TO.N,GND*
X165720000Y-78770000D03*
G04 #@! TD*
D17*
G04 #@! TO.P,U8,1,D*
G04 #@! TO.N,/CAN-TX*
X226770000Y-125820000D03*
G04 #@! TO.P,U8,2,GND*
G04 #@! TO.N,GND*
X226770000Y-127090000D03*
G04 #@! TO.P,U8,3,VCC*
G04 #@! TO.N,+3V3*
X226770000Y-128360000D03*
G04 #@! TO.P,U8,4,R*
G04 #@! TO.N,/CAN-RX*
X226770000Y-129630000D03*
G04 #@! TO.P,U8,5,Vref*
G04 #@! TO.N,GND*
X231720000Y-129630000D03*
G04 #@! TO.P,U8,6,CANL*
G04 #@! TO.N,/CAN-L*
X231720000Y-128360000D03*
G04 #@! TO.P,U8,7,CANH*
G04 #@! TO.N,/CAN-H*
X231720000Y-127090000D03*
G04 #@! TO.P,U8,8,Rs*
G04 #@! TO.N,GND*
X231720000Y-125820000D03*
G04 #@! TD*
D22*
G04 #@! TO.P,R27,1*
G04 #@! TO.N,+3V3*
X174632500Y-89320000D03*
G04 #@! TO.P,R27,2*
G04 #@! TO.N,/SPI-MISO*
X176457500Y-89320000D03*
G04 #@! TD*
D27*
G04 #@! TO.P,C7,1*
G04 #@! TO.N,Net-(U1B-RCext)*
X226820000Y-67320000D03*
G04 #@! TO.P,C7,2*
G04 #@! TO.N,Net-(U1B-Cext)*
X228720000Y-67320000D03*
G04 #@! TD*
D28*
G04 #@! TO.P,D5,1,K*
G04 #@! TO.N,Net-(D5-K)*
X217170000Y-67900000D03*
G04 #@! TO.P,D5,2,A*
G04 #@! TO.N,+3V3*
X219220000Y-67900000D03*
G04 #@! TD*
D22*
G04 #@! TO.P,R10,1*
G04 #@! TO.N,+3V3*
X174720000Y-101820000D03*
G04 #@! TO.P,R10,2*
G04 #@! TO.N,/CARD-CS*
X176545000Y-101820000D03*
G04 #@! TD*
D27*
G04 #@! TO.P,C3,1*
G04 #@! TO.N,+5V-SENSORS*
X211820000Y-57820000D03*
G04 #@! TO.P,C3,2*
G04 #@! TO.N,GND*
X213720000Y-57820000D03*
G04 #@! TD*
D29*
G04 #@! TO.P,D1,1,K*
G04 #@! TO.N,Net-(D1-K)*
X241220000Y-36280000D03*
D30*
G04 #@! TO.P,D1,2,A*
G04 #@! TO.N,Net-(D1-A)*
X241220000Y-38820000D03*
G04 #@! TD*
D31*
G04 #@! TO.P,D4,1,K*
G04 #@! TO.N,Net-(D4-K)*
X174987500Y-70907500D03*
G04 #@! TO.P,D4,2,A*
G04 #@! TO.N,+5V*
X174987500Y-72957500D03*
G04 #@! TD*
D32*
G04 #@! TO.P,IC1,1,GND*
G04 #@! TO.N,GND*
X243420000Y-68820000D03*
G04 #@! TO.P,IC1,2,IN*
G04 #@! TO.N,/WD_ENABLE_STEP_PROFET*
X245120000Y-68820000D03*
D33*
G04 #@! TO.P,IC1,3,VBB*
G04 #@! TO.N,+12VStep*
X246820000Y-59670000D03*
D32*
G04 #@! TO.P,IC1,4,N.C.*
G04 #@! TO.N,unconnected-(IC1-N.C.-Pad4)*
X248520000Y-68820000D03*
G04 #@! TO.P,IC1,5,OUT*
G04 #@! TO.N,+12VStep-SAFE*
X250220000Y-68820000D03*
G04 #@! TD*
D34*
G04 #@! TO.P,C4,1*
G04 #@! TO.N,+5V*
X223220000Y-67820000D03*
G04 #@! TO.P,C4,2*
G04 #@! TO.N,GND*
X221320000Y-67820000D03*
G04 #@! TD*
D35*
G04 #@! TO.P,H1,1,1*
G04 #@! TO.N,GND*
X157920000Y-38820000D03*
X158622944Y-37122944D03*
X158622944Y-40517056D03*
X160320000Y-36420000D03*
D36*
X160320000Y-38820000D03*
D35*
X160320000Y-41220000D03*
X162017056Y-37122944D03*
X162017056Y-40517056D03*
X162720000Y-38820000D03*
G04 #@! TD*
D16*
G04 #@! TO.P,R6,1*
G04 #@! TO.N,/APPS-SIG1-OUT*
X170132500Y-112320000D03*
G04 #@! TO.P,R6,2*
G04 #@! TO.N,GND*
X168307500Y-112320000D03*
G04 #@! TD*
D37*
G04 #@! TO.P,J9,1,DAT2*
G04 #@! TO.N,unconnected-(J9-DAT2-Pad1)*
X161845000Y-98895000D03*
G04 #@! TO.P,J9,2,DAT3/CD*
G04 #@! TO.N,/CARD-CS*
X161845000Y-97795000D03*
G04 #@! TO.P,J9,3,CMD*
G04 #@! TO.N,/SPI-MOSI*
X161845000Y-96695000D03*
G04 #@! TO.P,J9,4,VDD*
G04 #@! TO.N,+3V3*
X161845000Y-95595000D03*
G04 #@! TO.P,J9,5,CLK*
G04 #@! TO.N,/SPI-SCK*
X161845000Y-94495000D03*
G04 #@! TO.P,J9,6,VSS*
G04 #@! TO.N,GND*
X161845000Y-93395000D03*
G04 #@! TO.P,J9,7,DAT0*
G04 #@! TO.N,/SPI-MISO*
X161845000Y-92295000D03*
G04 #@! TO.P,J9,8,DAT1*
G04 #@! TO.N,unconnected-(J9-DAT1-Pad8)*
X161845000Y-91195000D03*
D38*
G04 #@! TO.P,J9,9,SHIELD*
G04 #@! TO.N,GND*
X159245000Y-102570000D03*
X167545000Y-102570000D03*
X159245000Y-88820000D03*
X167545000Y-88820000D03*
G04 #@! TD*
D22*
G04 #@! TO.P,R20,1*
G04 #@! TO.N,+3V3*
X227395000Y-71320000D03*
G04 #@! TO.P,R20,2*
G04 #@! TO.N,Net-(U1B-RCext)*
X229220000Y-71320000D03*
G04 #@! TD*
D35*
G04 #@! TO.P,H3,1,1*
G04 #@! TO.N,GND*
X247240000Y-38590000D03*
X247942944Y-36892944D03*
X247942944Y-40287056D03*
X249640000Y-36190000D03*
D36*
X249640000Y-38590000D03*
D35*
X249640000Y-40990000D03*
X251337056Y-36892944D03*
X251337056Y-40287056D03*
X252040000Y-38590000D03*
G04 #@! TD*
D16*
G04 #@! TO.P,R15,1*
G04 #@! TO.N,/TPS-SIG2*
X176220000Y-127320000D03*
G04 #@! TO.P,R15,2*
G04 #@! TO.N,/TPS-SIG2-OUT*
X174395000Y-127320000D03*
G04 #@! TD*
D27*
G04 #@! TO.P,C5,1*
G04 #@! TO.N,+3V3*
X221320000Y-76320000D03*
G04 #@! TO.P,C5,2*
G04 #@! TO.N,GND*
X223220000Y-76320000D03*
G04 #@! TD*
D23*
G04 #@! TO.P,C10,1*
G04 #@! TO.N,+12V*
X187287500Y-56570000D03*
G04 #@! TO.P,C10,2*
G04 #@! TO.N,GND*
X189012500Y-56570000D03*
G04 #@! TD*
D16*
G04 #@! TO.P,R21,1*
G04 #@! TO.N,Net-(D3-K)*
X217720000Y-62320000D03*
G04 #@! TO.P,R21,2*
G04 #@! TO.N,GND*
X215895000Y-62320000D03*
G04 #@! TD*
D34*
G04 #@! TO.P,C8,1*
G04 #@! TO.N,+3V3*
X161045000Y-85320000D03*
G04 #@! TO.P,C8,2*
G04 #@! TO.N,GND*
X159145000Y-85320000D03*
G04 #@! TD*
D39*
G04 #@! TO.P,L1,1,1*
G04 #@! TO.N,+12V*
X181512500Y-56570000D03*
G04 #@! TO.P,L1,2,2*
G04 #@! TO.N,Net-(U4-IN)*
X181512500Y-62070000D03*
G04 #@! TD*
D40*
G04 #@! TO.P,U2,1,ADJ*
G04 #@! TO.N,Net-(U2-ADJ)*
X209320000Y-56320000D03*
G04 #@! TO.P,U2,2,VO*
G04 #@! TO.N,+5V-SENSORS*
X207020000Y-56320000D03*
D41*
X207020000Y-62620000D03*
D40*
G04 #@! TO.P,U2,3,VI*
G04 #@! TO.N,+12V*
X204720000Y-56320000D03*
G04 #@! TD*
D20*
G04 #@! TO.P,J3,1,Pin_1*
G04 #@! TO.N,+3V3*
X250000000Y-81900000D03*
D21*
G04 #@! TO.P,J3,2,Pin_2*
G04 #@! TO.N,GND*
X247460000Y-81900000D03*
G04 #@! TO.P,J3,3,Pin_3*
G04 #@! TO.N,/MOTOR-CS*
X244920000Y-81900000D03*
G04 #@! TO.P,J3,4,Pin_4*
G04 #@! TO.N,/SPI-SCK*
X242380000Y-81900000D03*
G04 #@! TO.P,J3,5,Pin_5*
G04 #@! TO.N,/SPI-MOSI*
X239840000Y-81900000D03*
G04 #@! TO.P,J3,6,Pin_6*
G04 #@! TO.N,/SPI-MISO*
X237300000Y-81900000D03*
G04 #@! TO.P,J3,7,Pin_7*
G04 #@! TO.N,GND*
X234760000Y-81900000D03*
G04 #@! TO.P,J3,8,Pin_8*
X232220000Y-81900000D03*
G04 #@! TO.P,J3,9,Pin_9*
X229680000Y-81900000D03*
G04 #@! TO.P,J3,10,Pin_10*
X227140000Y-81900000D03*
G04 #@! TO.P,J3,11,Pin_11*
X224600000Y-81900000D03*
G04 #@! TD*
D22*
G04 #@! TO.P,R19,1*
G04 #@! TO.N,+3V3*
X232395000Y-62320000D03*
G04 #@! TO.P,R19,2*
G04 #@! TO.N,Net-(U1A-RCext)*
X234220000Y-62320000D03*
G04 #@! TD*
D35*
G04 #@! TO.P,H2,1,1*
G04 #@! TO.N,GND*
X157400000Y-128430000D03*
X158102944Y-126732944D03*
X158102944Y-130127056D03*
X159800000Y-126030000D03*
D36*
X159800000Y-128430000D03*
D35*
X159800000Y-130830000D03*
X161497056Y-126732944D03*
X161497056Y-130127056D03*
X162200000Y-128430000D03*
G04 #@! TD*
D22*
G04 #@! TO.P,R17,1*
G04 #@! TO.N,/TPS-SIG1*
X169815000Y-127320000D03*
G04 #@! TO.P,R17,2*
G04 #@! TO.N,/TPS-SIG1-OUT*
X171640000Y-127320000D03*
G04 #@! TD*
D25*
G04 #@! TO.P,R4,1*
G04 #@! TO.N,+3V3*
X167720000Y-63820000D03*
G04 #@! TO.P,R4,2*
G04 #@! TO.N,/BLIP-OUT*
X167720000Y-65645000D03*
G04 #@! TD*
D29*
G04 #@! TO.P,D2,1,K*
G04 #@! TO.N,Net-(D2-K)*
X249720000Y-46045000D03*
D30*
G04 #@! TO.P,D2,2,A*
G04 #@! TO.N,Net-(D2-A)*
X249720000Y-48585000D03*
G04 #@! TD*
D16*
G04 #@! TO.P,R23,1*
G04 #@! TO.N,Net-(D2-K)*
X244220000Y-45820000D03*
G04 #@! TO.P,R23,2*
G04 #@! TO.N,GND*
X242395000Y-45820000D03*
G04 #@! TD*
D34*
G04 #@! TO.P,C9,1*
G04 #@! TO.N,+3V3*
X166545000Y-85320000D03*
G04 #@! TO.P,C9,2*
G04 #@! TO.N,GND*
X164645000Y-85320000D03*
G04 #@! TD*
D35*
G04 #@! TO.P,H4,1,1*
G04 #@! TO.N,GND*
X246920000Y-128430000D03*
X247622944Y-126732944D03*
X247622944Y-130127056D03*
X249320000Y-126030000D03*
D36*
X249320000Y-128430000D03*
D35*
X249320000Y-130830000D03*
X251017056Y-126732944D03*
X251017056Y-130127056D03*
X251720000Y-128430000D03*
G04 #@! TD*
D42*
G04 #@! TO.P,C14,1*
G04 #@! TO.N,/TPS-SIG1-OUT*
X181720000Y-109570000D03*
G04 #@! TO.P,C14,2*
G04 #@! TO.N,GND*
X181720000Y-111070000D03*
G04 #@! TD*
G04 #@! TO.P,C13,1*
G04 #@! TO.N,/APPS-SIG2-OUT*
X181720000Y-103820000D03*
G04 #@! TO.P,C13,2*
G04 #@! TO.N,GND*
X181720000Y-105320000D03*
G04 #@! TD*
D20*
G04 #@! TO.P,J2,1,Pin_1*
G04 #@! TO.N,+5V*
X187792460Y-124839813D03*
D21*
G04 #@! TO.P,J2,2,Pin_2*
G04 #@! TO.N,GND*
X187792460Y-122299813D03*
G04 #@! TO.P,J2,3,Pin_3*
G04 #@! TO.N,/DIAG0*
X187792460Y-119759813D03*
G04 #@! TO.P,J2,4,Pin_4*
G04 #@! TO.N,unconnected-(J2-Pin_4-Pad4)*
X187792460Y-117219813D03*
G04 #@! TO.P,J2,5,Pin_5*
G04 #@! TO.N,/ESP_HEARTBEAT_L1*
X187792460Y-114679813D03*
G04 #@! TO.P,J2,6,Pin_6*
G04 #@! TO.N,/ESP_HEARTBEAT_L2*
X187792460Y-112139813D03*
G04 #@! TO.P,J2,7,Pin_7*
G04 #@! TO.N,/BLIP-OUT*
X187792460Y-109599813D03*
G04 #@! TO.P,J2,8,Pin_8*
G04 #@! TO.N,/TPS-SIG2-OUT*
X187792460Y-107059813D03*
G04 #@! TO.P,J2,9,Pin_9*
G04 #@! TO.N,/TPS-SIG1-OUT*
X187792460Y-104519813D03*
G04 #@! TO.P,J2,10,Pin_10*
G04 #@! TO.N,/APPS-SIG2-OUT*
X187792460Y-101979813D03*
G04 #@! TO.P,J2,11,Pin_11*
G04 #@! TO.N,unconnected-(J2-Pin_11-Pad11)*
X187792460Y-99439813D03*
G04 #@! TO.P,J2,12,Pin_12*
G04 #@! TO.N,/APPS-SIG1-OUT*
X187792460Y-96899813D03*
G04 #@! TO.P,J2,13,Pin_13*
G04 #@! TO.N,unconnected-(J2-Pin_13-Pad13)*
X187792460Y-94359813D03*
G04 #@! TO.P,J2,14,Pin_14*
G04 #@! TO.N,unconnected-(J2-Pin_14-Pad14)*
X187792460Y-91819813D03*
G04 #@! TO.P,J2,15,Pin_15*
G04 #@! TO.N,unconnected-(J2-Pin_15-Pad15)*
X187792460Y-89279813D03*
G04 #@! TD*
D28*
G04 #@! TO.P,D3,1,K*
G04 #@! TO.N,Net-(D3-K)*
X211695000Y-62320000D03*
G04 #@! TO.P,D3,2,A*
G04 #@! TO.N,+5V-SENSORS*
X213745000Y-62320000D03*
G04 #@! TD*
D43*
G04 #@! TO.P,R29,1*
G04 #@! TO.N,Net-(D4-K)*
X175012500Y-67732500D03*
G04 #@! TO.P,R29,2*
G04 #@! TO.N,GND*
X175012500Y-65907500D03*
G04 #@! TD*
D16*
G04 #@! TO.P,R13,1*
G04 #@! TO.N,/APPS-SIG2-OUT*
X174632500Y-112320000D03*
G04 #@! TO.P,R13,2*
G04 #@! TO.N,GND*
X172807500Y-112320000D03*
G04 #@! TD*
D27*
G04 #@! TO.P,C6,1*
G04 #@! TO.N,Net-(U1A-RCext)*
X236820000Y-62320000D03*
G04 #@! TO.P,C6,2*
G04 #@! TO.N,Net-(U1A-Cext)*
X238720000Y-62320000D03*
G04 #@! TD*
D22*
G04 #@! TO.P,R3,1*
G04 #@! TO.N,/APPS-SIG1*
X168307500Y-115820000D03*
G04 #@! TO.P,R3,2*
G04 #@! TO.N,/APPS-SIG1-OUT*
X170132500Y-115820000D03*
G04 #@! TD*
D44*
G04 #@! TO.P,U6,1*
G04 #@! TO.N,/WD_ENABLE_STEP_RELAY*
X173720000Y-48550000D03*
G04 #@! TO.P,U6,2*
G04 #@! TO.N,GND*
X173720000Y-51090000D03*
G04 #@! TO.P,U6,3*
G04 #@! TO.N,/RELAY_2*
X182720000Y-51090000D03*
G04 #@! TO.P,U6,4*
G04 #@! TO.N,/RELAY_1*
X182720000Y-48550000D03*
G04 #@! TD*
D42*
G04 #@! TO.P,C15,1*
G04 #@! TO.N,/TPS-SIG2-OUT*
X181720000Y-115320000D03*
G04 #@! TO.P,C15,2*
G04 #@! TO.N,GND*
X181720000Y-116820000D03*
G04 #@! TD*
D45*
G04 #@! TO.P,SW1,1,1*
G04 #@! TO.N,/ENABLE*
X160220000Y-71320000D03*
D46*
G04 #@! TO.P,SW1,2,2*
G04 #@! TO.N,GND*
X160220000Y-77820000D03*
G04 #@! TD*
D20*
G04 #@! TO.P,J1,1,Pin_1*
G04 #@! TO.N,unconnected-(J1-Pin_1-Pad1)*
X213192460Y-124839813D03*
D21*
G04 #@! TO.P,J1,2,Pin_2*
G04 #@! TO.N,unconnected-(J1-Pin_2-Pad2)*
X213192460Y-122299813D03*
G04 #@! TO.P,J1,3,Pin_3*
G04 #@! TO.N,unconnected-(J1-Pin_3-Pad3)*
X213192460Y-119759813D03*
G04 #@! TO.P,J1,4,Pin_4*
G04 #@! TO.N,unconnected-(J1-Pin_4-Pad4)*
X213192460Y-117219813D03*
G04 #@! TO.P,J1,5,Pin_5*
G04 #@! TO.N,unconnected-(J1-Pin_5-Pad5)*
X213192460Y-114679813D03*
G04 #@! TO.P,J1,6,Pin_6*
G04 #@! TO.N,/CAN-TX*
X213192460Y-112139813D03*
G04 #@! TO.P,J1,7,Pin_7*
G04 #@! TO.N,/CAN-RX*
X213192460Y-109599813D03*
G04 #@! TO.P,J1,8,Pin_8*
G04 #@! TO.N,/MOTOR-CS*
X213192460Y-107059813D03*
G04 #@! TO.P,J1,9,Pin_9*
G04 #@! TO.N,/SPI-SCK*
X213192460Y-104519813D03*
G04 #@! TO.P,J1,10,Pin_10*
G04 #@! TO.N,/SPI-MISO*
X213192460Y-101979813D03*
G04 #@! TO.P,J1,11,Pin_11*
G04 #@! TO.N,/CARD-CS*
X213192460Y-99439813D03*
G04 #@! TO.P,J1,12,Pin_12*
G04 #@! TO.N,unconnected-(J1-Pin_12-Pad12)*
X213192460Y-96899813D03*
G04 #@! TO.P,J1,13,Pin_13*
G04 #@! TO.N,unconnected-(J1-Pin_13-Pad13)*
X213192460Y-94359813D03*
G04 #@! TO.P,J1,14,Pin_14*
G04 #@! TO.N,unconnected-(J1-Pin_14-Pad14)*
X213192460Y-91819813D03*
G04 #@! TO.P,J1,15,Pin_15*
G04 #@! TO.N,/SPI-MOSI*
X213192460Y-89279813D03*
G04 #@! TD*
D22*
G04 #@! TO.P,R14,1*
G04 #@! TO.N,+3V3*
X174720000Y-98320000D03*
G04 #@! TO.P,R14,2*
G04 #@! TO.N,/SPI-MOSI*
X176545000Y-98320000D03*
G04 #@! TD*
G04 #@! TO.P,R7,1*
G04 #@! TO.N,/APPS-SIG2*
X172807500Y-115820000D03*
G04 #@! TO.P,R7,2*
G04 #@! TO.N,/APPS-SIG2-OUT*
X174632500Y-115820000D03*
G04 #@! TD*
D25*
G04 #@! TO.P,R22,1*
G04 #@! TO.N,Net-(D1-K)*
X235220000Y-42495000D03*
G04 #@! TO.P,R22,2*
G04 #@! TO.N,GND*
X235220000Y-44320000D03*
G04 #@! TD*
D16*
G04 #@! TO.P,R28,1*
G04 #@! TO.N,Net-(D5-K)*
X219170000Y-71820000D03*
G04 #@! TO.P,R28,2*
G04 #@! TO.N,GND*
X217345000Y-71820000D03*
G04 #@! TD*
D43*
G04 #@! TO.P,R5,1*
G04 #@! TO.N,+12V*
X162720000Y-66145000D03*
G04 #@! TO.P,R5,2*
G04 #@! TO.N,/BLIP-IN*
X162720000Y-64320000D03*
G04 #@! TD*
D42*
G04 #@! TO.P,C12,1*
G04 #@! TO.N,/APPS-SIG1-OUT*
X181720000Y-98320000D03*
G04 #@! TO.P,C12,2*
G04 #@! TO.N,GND*
X181720000Y-99820000D03*
G04 #@! TD*
D27*
G04 #@! TO.P,C2,1*
G04 #@! TO.N,+12V*
X215182500Y-53320000D03*
G04 #@! TO.P,C2,2*
G04 #@! TO.N,GND*
X217082500Y-53320000D03*
G04 #@! TD*
D22*
G04 #@! TO.P,R24,1*
G04 #@! TO.N,+3V3*
X174632500Y-93820000D03*
G04 #@! TO.P,R24,2*
G04 #@! TO.N,/SPI-SCK*
X176457500Y-93820000D03*
G04 #@! TD*
G04 #@! TO.P,R9,1*
G04 #@! TO.N,+5V-SENSORS*
X215895000Y-57820000D03*
G04 #@! TO.P,R9,2*
G04 #@! TO.N,Net-(U2-ADJ)*
X217720000Y-57820000D03*
G04 #@! TD*
D47*
G04 #@! TO.N,/ESP_HEARTBEAT_L2*
X204220000Y-97820000D03*
X205529813Y-88129813D03*
X231885552Y-76820000D03*
G04 #@! TO.N,Net-(U3-GND)*
X215720000Y-76320000D03*
X221220000Y-73820000D03*
X215220000Y-66820000D03*
G04 #@! TO.N,GND*
X174720000Y-121820000D03*
X227220000Y-79320000D03*
X185720000Y-123320000D03*
X231720000Y-114820000D03*
X163720000Y-93320000D03*
X220320000Y-66820000D03*
X215220000Y-55820000D03*
X168220000Y-103820000D03*
X190220000Y-57320000D03*
X229220000Y-76320000D03*
X159720000Y-103820000D03*
X234220000Y-46320000D03*
X173220000Y-113820000D03*
X169220000Y-121820000D03*
X171720000Y-50820000D03*
X167170000Y-78770000D03*
X213220000Y-56320000D03*
X159720000Y-79820000D03*
X167720000Y-113820000D03*
X194220000Y-45820000D03*
X220220000Y-71820000D03*
X216220000Y-72320000D03*
X240720000Y-45820000D03*
X240220000Y-73820000D03*
X214720000Y-63320000D03*
X163720000Y-85320000D03*
X224767831Y-126272169D03*
X175220000Y-64820000D03*
X233720000Y-130320000D03*
X167720000Y-87320000D03*
X218220000Y-53320000D03*
X232720000Y-63820000D03*
X220220000Y-54320000D03*
X158220000Y-87320000D03*
X157720000Y-85320000D03*
X241720000Y-68820000D03*
X190720000Y-61320000D03*
X212720000Y-52320000D03*
X232220000Y-124820000D03*
G04 #@! TO.N,/ENABLE*
X165720000Y-74820000D03*
G04 #@! TO.N,+3V3*
X179720000Y-84820000D03*
X205220000Y-79820000D03*
G04 #@! TO.N,Net-(D1-A)*
X235220000Y-63320000D03*
G04 #@! TO.N,Net-(D2-A)*
X236220000Y-68820000D03*
G04 #@! TO.N,/SPI-SCK*
X225720000Y-103820000D03*
X175720000Y-95820000D03*
X183720000Y-90820000D03*
X202720000Y-104519813D03*
X183720000Y-90820000D03*
X234220000Y-95320000D03*
X172720000Y-94320000D03*
G04 #@! TO.N,/SPI-MISO*
X222220000Y-99320000D03*
X202720000Y-101979813D03*
X191720000Y-87820000D03*
X230220000Y-91320000D03*
X173220000Y-92295000D03*
X176220000Y-91320000D03*
G04 #@! TO.N,/SPI-MOSI*
X235220000Y-88820000D03*
X193720000Y-93271813D03*
G04 #@! TO.N,Net-(U2-ADJ)*
X210220000Y-53320000D03*
X207220000Y-58320000D03*
X218720000Y-56320000D03*
D48*
G04 #@! TO.N,/STEP-2+*
X219220000Y-81320000D03*
X226720000Y-47820000D03*
G04 #@! TO.N,/STEP-2-*
X221720000Y-81320000D03*
X228720000Y-48820000D03*
D47*
G04 #@! TO.N,/DIAG0*
X217220000Y-131820000D03*
X184720000Y-124820000D03*
D48*
G04 #@! TO.N,/STEP-1+*
X210720000Y-79820000D03*
X187706500Y-49806500D03*
G04 #@! TO.N,/STEP-1-*
X221220000Y-47320000D03*
X216720000Y-81320000D03*
D47*
G04 #@! TO.N,/CARD-CS*
X202720000Y-99439813D03*
X193711813Y-95811813D03*
G04 #@! TO.N,/MOTOR-CS*
X227220000Y-105320000D03*
X236220000Y-96320000D03*
G04 #@! TO.N,/CAN-H*
X233720000Y-126820000D03*
G04 #@! TO.N,/CAN-L*
X238450000Y-121320000D03*
X233720000Y-128320000D03*
X236720000Y-125320000D03*
G04 #@! TO.N,/BLIP-IN*
X170720000Y-57320000D03*
X160720000Y-60820000D03*
X162720000Y-62820000D03*
G04 #@! TO.N,/TPS-SIG1*
X197720000Y-55320000D03*
X191720000Y-69320000D03*
X171720000Y-108320000D03*
G04 #@! TO.N,/APPS-SIG2*
X171220000Y-113320000D03*
X191220000Y-68320000D03*
X195720000Y-55320000D03*
G04 #@! TO.N,/TPS-SIG2*
X200720000Y-60320000D03*
X200720000Y-71320000D03*
X200720000Y-80320000D03*
G04 #@! TO.N,/APPS-SIG1*
X191720000Y-70820000D03*
X199720000Y-55320000D03*
X172220000Y-105820000D03*
G04 #@! TO.N,/BLIP-OUT*
X181720000Y-86320000D03*
X169720000Y-63320000D03*
X169720000Y-60820000D03*
G04 #@! TO.N,/ESP_HEARTBEAT_L1*
X194720000Y-84320000D03*
X194720000Y-79728636D03*
G04 #@! TO.N,/WD_ENABLE_STEP_RELAY*
X230220000Y-66820000D03*
X180919000Y-41519000D03*
G04 #@! TO.N,+5V-SENSORS*
X201720000Y-53820000D03*
G04 #@! TO.N,Net-(D5-K)*
X215720000Y-67820000D03*
X219220000Y-70320000D03*
G04 #@! TD*
D49*
G04 #@! TO.N,+3V3*
X211440000Y-67320000D02*
X211440000Y-73620000D01*
G04 #@! TO.N,+5V*
X220720000Y-65320000D02*
X210220000Y-65320000D01*
X210220000Y-65320000D02*
X210220000Y-66260000D01*
X223220000Y-67820000D02*
X220720000Y-65320000D01*
X210220000Y-66260000D02*
X209160000Y-67320000D01*
D50*
G04 #@! TO.N,/ESP_HEARTBEAT_L1*
X233270000Y-66200000D02*
X233652322Y-66200000D01*
X233652322Y-66200000D02*
X234571000Y-65281322D01*
X234571000Y-65281322D02*
X234571000Y-64171000D01*
X234571000Y-64171000D02*
X234220000Y-63820000D01*
X234220000Y-63820000D02*
X234185986Y-63820000D01*
X234185986Y-63820000D02*
X233381500Y-63015514D01*
X233381500Y-63015514D02*
X233381500Y-59481500D01*
X210128636Y-64320000D02*
X194720000Y-79728636D01*
X233381500Y-59481500D02*
X232220000Y-58320000D01*
X232220000Y-58320000D02*
X224720000Y-58320000D01*
X224720000Y-58320000D02*
X218720000Y-64320000D01*
X218720000Y-64320000D02*
X210128636Y-64320000D01*
D51*
G04 #@! TO.N,/ESP_HEARTBEAT_L2*
X204220000Y-89439626D02*
X204220000Y-97820000D01*
X205529813Y-88129813D02*
X204220000Y-89439626D01*
X236155552Y-72550000D02*
X231885552Y-76820000D01*
X238220000Y-72550000D02*
X236155552Y-72550000D01*
X231720000Y-76820000D02*
X231885552Y-76820000D01*
D50*
G04 #@! TO.N,Net-(U3-GND)*
X214720000Y-67320000D02*
X215220000Y-66820000D01*
X213720000Y-67320000D02*
X214720000Y-67320000D01*
X223220000Y-71820000D02*
X221220000Y-73820000D01*
X217395000Y-76320000D02*
X215720000Y-76320000D01*
D49*
G04 #@! TO.N,GND*
X171990000Y-51090000D02*
X171720000Y-50820000D01*
X220220000Y-66820000D02*
X220320000Y-66820000D01*
X231720000Y-125820000D02*
X231720000Y-125320000D01*
X160220000Y-77820000D02*
X160220000Y-79320000D01*
X247460000Y-81900000D02*
X244880000Y-79320000D01*
X225585662Y-127090000D02*
X224767831Y-126272169D01*
X229720000Y-79320000D02*
X229680000Y-79360000D01*
X163645000Y-93395000D02*
X163720000Y-93320000D01*
X215895000Y-62320000D02*
X215720000Y-62320000D01*
X224600000Y-81900000D02*
X227100000Y-79400000D01*
X231720000Y-129630000D02*
X233030000Y-129630000D01*
X234220000Y-46320000D02*
X235220000Y-45320000D01*
D50*
X173220000Y-112732500D02*
X172807500Y-112320000D01*
D49*
X160220000Y-79320000D02*
X159720000Y-79820000D01*
X189012500Y-56570000D02*
X189470000Y-56570000D01*
X227140000Y-81900000D02*
X227140000Y-79400000D01*
X223220000Y-76320000D02*
X229220000Y-76320000D01*
X233030000Y-129630000D02*
X233720000Y-130320000D01*
X234720000Y-79320000D02*
X234760000Y-79360000D01*
X175012500Y-65907500D02*
X175012500Y-65027500D01*
X213132500Y-53320000D02*
X213132500Y-52732500D01*
X231720000Y-125320000D02*
X232220000Y-124820000D01*
X232220000Y-81900000D02*
X232220000Y-79320000D01*
X227220000Y-79320000D02*
X229640000Y-79320000D01*
X213720000Y-56820000D02*
X213220000Y-56320000D01*
X216720000Y-71820000D02*
X216220000Y-72320000D01*
X189012500Y-61570000D02*
X190470000Y-61570000D01*
X190470000Y-61570000D02*
X190720000Y-61320000D01*
D50*
X174395000Y-122145000D02*
X174720000Y-121820000D01*
X174395000Y-123320000D02*
X174395000Y-122145000D01*
D49*
X233270000Y-64930000D02*
X232720000Y-64380000D01*
X238220000Y-73820000D02*
X240220000Y-73820000D01*
X213132500Y-52732500D02*
X212720000Y-52320000D01*
X173720000Y-51090000D02*
X171990000Y-51090000D01*
X243420000Y-68820000D02*
X241720000Y-68820000D01*
X221320000Y-67820000D02*
X220320000Y-66820000D01*
X175012500Y-65027500D02*
X175220000Y-64820000D01*
D50*
X167720000Y-113820000D02*
X167720000Y-112907500D01*
D49*
X186740187Y-122299813D02*
X185720000Y-123320000D01*
X213132500Y-53320000D02*
X213220000Y-53320000D01*
X232220000Y-79320000D02*
X234720000Y-79320000D01*
X227140000Y-79400000D02*
X227220000Y-79320000D01*
D50*
X169807500Y-122407500D02*
X169220000Y-121820000D01*
D49*
X159245000Y-88345000D02*
X158220000Y-87320000D01*
X217082500Y-53320000D02*
X218220000Y-53320000D01*
X244880000Y-79320000D02*
X234800000Y-79320000D01*
X159245000Y-88820000D02*
X159245000Y-88345000D01*
X159245000Y-102570000D02*
X159245000Y-103345000D01*
X215720000Y-62320000D02*
X214720000Y-63320000D01*
X159245000Y-103345000D02*
X159720000Y-103820000D01*
D50*
X169807500Y-123320000D02*
X169807500Y-122407500D01*
D49*
X167545000Y-88820000D02*
X167545000Y-87495000D01*
X187792460Y-122299813D02*
X186740187Y-122299813D01*
X217345000Y-71820000D02*
X216720000Y-71820000D01*
X234800000Y-79320000D02*
X234760000Y-79360000D01*
D50*
X234760000Y-117460000D02*
X232120000Y-114820000D01*
D49*
X229680000Y-81900000D02*
X229680000Y-79360000D01*
X215220000Y-55820000D02*
X216720000Y-54320000D01*
X194220000Y-47320000D02*
X194220000Y-45820000D01*
X216720000Y-54320000D02*
X220220000Y-54320000D01*
X167545000Y-87495000D02*
X167720000Y-87320000D01*
X227100000Y-79400000D02*
X227140000Y-79400000D01*
X193720000Y-47820000D02*
X194220000Y-47320000D01*
X242395000Y-45820000D02*
X240720000Y-45820000D01*
X213720000Y-57820000D02*
X213720000Y-56820000D01*
X229640000Y-79320000D02*
X229680000Y-79360000D01*
X168220000Y-103245000D02*
X168220000Y-103820000D01*
X167545000Y-102570000D02*
X168220000Y-103245000D01*
X232220000Y-79320000D02*
X229720000Y-79320000D01*
X235220000Y-44320000D02*
X235220000Y-45320000D01*
D50*
X167720000Y-112907500D02*
X168307500Y-112320000D01*
D49*
X161845000Y-93395000D02*
X163645000Y-93395000D01*
X164645000Y-85320000D02*
X163720000Y-85320000D01*
X234760000Y-79360000D02*
X234760000Y-81900000D01*
X226770000Y-127090000D02*
X225585662Y-127090000D01*
D50*
X173220000Y-113820000D02*
X173220000Y-112732500D01*
D49*
X159145000Y-85320000D02*
X157720000Y-85320000D01*
X165720000Y-78770000D02*
X167170000Y-78770000D01*
X189470000Y-56570000D02*
X190220000Y-57320000D01*
D50*
X232120000Y-114820000D02*
X231720000Y-114820000D01*
D49*
X221395000Y-71820000D02*
X220220000Y-71820000D01*
X232720000Y-64380000D02*
X232720000Y-63820000D01*
D50*
G04 #@! TO.N,/ENABLE*
X165720000Y-74820000D02*
X165720000Y-72695000D01*
X165720000Y-76870000D02*
X165720000Y-74820000D01*
D52*
G04 #@! TO.N,+12V*
X162720000Y-66145000D02*
X163395000Y-66145000D01*
X187287500Y-56570000D02*
X181512500Y-56570000D01*
X217720000Y-47820000D02*
X215720000Y-45820000D01*
X208970000Y-52070000D02*
X204720000Y-56320000D01*
X181512500Y-56570000D02*
X176262500Y-61820000D01*
X208970000Y-52070000D02*
X210470000Y-50570000D01*
X210470000Y-50570000D02*
X211720000Y-49320000D01*
X212432500Y-50570000D02*
X210470000Y-50570000D01*
X212723017Y-45820000D02*
X211720000Y-46823017D01*
X208970000Y-52070000D02*
X191787500Y-52070000D01*
X215182500Y-53320000D02*
X212432500Y-50570000D01*
X191787500Y-52070000D02*
X187287500Y-56570000D01*
X215720000Y-45820000D02*
X212723017Y-45820000D01*
X211720000Y-46823017D02*
X211720000Y-49320000D01*
X163395000Y-66145000D02*
X167720000Y-61820000D01*
X167720000Y-61820000D02*
X176262500Y-61820000D01*
G04 #@! TO.N,+5V*
X186512500Y-71027500D02*
X186512500Y-73612500D01*
X187792460Y-124839813D02*
X195720000Y-116912273D01*
X184582500Y-72957500D02*
X186512500Y-71027500D01*
X186512500Y-73612500D02*
X195720000Y-82820000D01*
X195720000Y-116912273D02*
X195720000Y-82820000D01*
X195720000Y-80820000D02*
X209120000Y-67420000D01*
X174987500Y-72957500D02*
X184582500Y-72957500D01*
X195720000Y-82820000D02*
X195720000Y-80820000D01*
X209120000Y-67420000D02*
X209120000Y-67320000D01*
G04 #@! TO.N,+3V3*
X250000000Y-81900000D02*
X250000000Y-81100000D01*
X209831000Y-127709000D02*
X225144001Y-127709000D01*
X172857500Y-95595000D02*
X161845000Y-95595000D01*
X222820000Y-77820000D02*
X221320000Y-76320000D01*
D49*
X239680000Y-71280000D02*
X246220000Y-77820000D01*
D52*
X233270000Y-67470000D02*
X232295001Y-67470000D01*
X174632500Y-93820000D02*
X172857500Y-95595000D01*
X230720000Y-62320000D02*
X232395000Y-62320000D01*
X162720000Y-81495000D02*
X165369000Y-84144000D01*
X230720000Y-65894999D02*
X230720000Y-62320000D01*
X179720000Y-84820000D02*
X179132500Y-84820000D01*
X221140000Y-69820000D02*
X224720000Y-69820000D01*
X166982500Y-63820000D02*
X167720000Y-63820000D01*
X165720000Y-70870000D02*
X165720000Y-65082500D01*
X225795001Y-128360000D02*
X226770000Y-128360000D01*
X246220000Y-77820000D02*
X241720000Y-77820000D01*
X201970000Y-83070000D02*
X211420000Y-73620000D01*
X217300000Y-69820000D02*
X219220000Y-67900000D01*
X219220000Y-67900000D02*
X221140000Y-69820000D01*
X163180000Y-57820000D02*
X163180000Y-48670000D01*
D49*
X238220000Y-71280000D02*
X239680000Y-71280000D01*
D52*
X163180000Y-60360000D02*
X163180000Y-57820000D01*
X225895000Y-69820000D02*
X227395000Y-71320000D01*
X224720000Y-69820000D02*
X224720000Y-67320000D01*
X229720000Y-62320000D02*
X230720000Y-62320000D01*
X162720000Y-73870000D02*
X162720000Y-81495000D01*
X174632500Y-88732500D02*
X171220000Y-85320000D01*
X225144001Y-127709000D02*
X225795001Y-128360000D01*
X179132500Y-84820000D02*
X174632500Y-89320000D01*
X174632500Y-89320000D02*
X174632500Y-93820000D01*
X213920000Y-69820000D02*
X217300000Y-69820000D01*
X174632500Y-93820000D02*
X174632500Y-98232500D01*
X250000000Y-81100000D02*
X246720000Y-77820000D01*
X174632500Y-89320000D02*
X174632500Y-88732500D01*
X241720000Y-77820000D02*
X222820000Y-77820000D01*
X174720000Y-98320000D02*
X174720000Y-101820000D01*
X232295001Y-67470000D02*
X230720000Y-65894999D01*
X216520000Y-73620000D02*
X219220000Y-76320000D01*
X201970000Y-120070000D02*
X209720000Y-127820000D01*
X160720000Y-62820000D02*
X163180000Y-60360000D01*
X174632500Y-98232500D02*
X174720000Y-98320000D01*
X165720000Y-70870000D02*
X164770000Y-70870000D01*
X246720000Y-77820000D02*
X246220000Y-77820000D01*
X209720000Y-127820000D02*
X209831000Y-127709000D01*
X162720000Y-73870000D02*
X165720000Y-70870000D01*
X211420000Y-73620000D02*
X216520000Y-73620000D01*
X162221000Y-84144000D02*
X161045000Y-85320000D01*
X211420000Y-73620000D02*
X205220000Y-79820000D01*
X224720000Y-69820000D02*
X225895000Y-69820000D01*
X164770000Y-70870000D02*
X160720000Y-66820000D01*
X165720000Y-65082500D02*
X166982500Y-63820000D01*
X218620000Y-73620000D02*
X221320000Y-76320000D01*
X166545000Y-85320000D02*
X165369000Y-84144000D01*
X201970000Y-103320000D02*
X201970000Y-120070000D01*
X211420000Y-67320000D02*
X213920000Y-69820000D01*
X201970000Y-103320000D02*
X201970000Y-83070000D01*
X218620000Y-73620000D02*
X216520000Y-73620000D01*
X160720000Y-66820000D02*
X160720000Y-62820000D01*
X224720000Y-67320000D02*
X229720000Y-62320000D01*
X171220000Y-85320000D02*
X166545000Y-85320000D01*
X165369000Y-84144000D02*
X162221000Y-84144000D01*
D50*
G04 #@! TO.N,Net-(U1A-Cext)*
X239194999Y-67470000D02*
X238220000Y-67470000D01*
X239521000Y-67143999D02*
X239194999Y-67470000D01*
X239521000Y-63121000D02*
X239521000Y-67143999D01*
X238720000Y-62320000D02*
X239521000Y-63121000D01*
G04 #@! TO.N,Net-(U1A-RCext)*
X236820000Y-65774999D02*
X236820000Y-62320000D01*
X238220000Y-66200000D02*
X237245001Y-66200000D01*
X237245001Y-66200000D02*
X236820000Y-65774999D01*
X234220000Y-62320000D02*
X236820000Y-62320000D01*
G04 #@! TO.N,Net-(U1B-RCext)*
X229220000Y-71320000D02*
X230450000Y-72550000D01*
X226820000Y-67320000D02*
X226820000Y-68920000D01*
X226820000Y-68920000D02*
X229220000Y-71320000D01*
X230450000Y-72550000D02*
X233270000Y-72550000D01*
G04 #@! TO.N,Net-(U1B-Cext)*
X233270000Y-71280000D02*
X231180000Y-71280000D01*
X228720000Y-68820000D02*
X228720000Y-67320000D01*
X231180000Y-71280000D02*
X228720000Y-68820000D01*
G04 #@! TO.N,Net-(D1-K)*
X235220000Y-37820000D02*
X235220000Y-42495000D01*
X236760000Y-36280000D02*
X235220000Y-37820000D01*
X241220000Y-36280000D02*
X236760000Y-36280000D01*
G04 #@! TO.N,Net-(D1-A)*
X234244999Y-68740000D02*
X235220000Y-67764999D01*
X235220000Y-67764999D02*
X235220000Y-63320000D01*
X233270000Y-68740000D02*
X234244999Y-68740000D01*
G04 #@! TO.N,Net-(D2-A)*
X238220000Y-70010000D02*
X237410000Y-70010000D01*
X237410000Y-70010000D02*
X236220000Y-68820000D01*
G04 #@! TO.N,Net-(D2-K)*
X249720000Y-46045000D02*
X244445000Y-46045000D01*
X244445000Y-46045000D02*
X244220000Y-45820000D01*
D53*
G04 #@! TO.N,+12VStep-SAFE*
X252220000Y-115240000D02*
X250000000Y-117460000D01*
X250220000Y-68820000D02*
X252220000Y-70820000D01*
X252220000Y-70820000D02*
X252220000Y-115240000D01*
D50*
G04 #@! TO.N,/SPI-SCK*
X161845000Y-94495000D02*
X167545000Y-94495000D01*
X242380000Y-87320000D02*
X242380000Y-81900000D01*
X213192460Y-104519813D02*
X225020187Y-104519813D01*
X176457500Y-93820000D02*
X176457500Y-95082500D01*
X234220000Y-95320000D02*
X242220000Y-87320000D01*
X167545000Y-94495000D02*
X167720000Y-94320000D01*
X176457500Y-95082500D02*
X175720000Y-95820000D01*
X176457500Y-93082500D02*
X176457500Y-93820000D01*
X202720000Y-104519813D02*
X213192460Y-104519813D01*
X225020187Y-104519813D02*
X225720000Y-103820000D01*
X178720000Y-90820000D02*
X183720000Y-90820000D01*
X242220000Y-87320000D02*
X242380000Y-87320000D01*
X178220000Y-91320000D02*
X176457500Y-93082500D01*
X178720000Y-90820000D02*
X178220000Y-91320000D01*
X167720000Y-94320000D02*
X172720000Y-94320000D01*
G04 #@! TO.N,/SPI-MISO*
X202720000Y-101979813D02*
X213192460Y-101979813D01*
X237220000Y-81980000D02*
X237300000Y-81900000D01*
X191720000Y-87820000D02*
X177957500Y-87820000D01*
X237220000Y-84320000D02*
X237220000Y-81980000D01*
X176457500Y-89320000D02*
X176457500Y-91082500D01*
X230220000Y-91320000D02*
X237220000Y-84320000D01*
X222220000Y-99320000D02*
X219560187Y-101979813D01*
X176457500Y-91082500D02*
X176220000Y-91320000D01*
X219560187Y-101979813D02*
X213192460Y-101979813D01*
X177957500Y-87820000D02*
X176457500Y-89320000D01*
X161845000Y-92295000D02*
X173220000Y-92295000D01*
G04 #@! TO.N,/SPI-MOSI*
X176545000Y-98320000D02*
X176545000Y-97995000D01*
X175558500Y-99306500D02*
X175558500Y-102515514D01*
X188279576Y-93183813D02*
X188367576Y-93271813D01*
X176545000Y-98320000D02*
X175558500Y-99306500D01*
X175228014Y-102846000D02*
X170198000Y-102846000D01*
X170198000Y-102846000D02*
X164047000Y-96695000D01*
X175558500Y-102515514D02*
X175228014Y-102846000D01*
X187305344Y-93183813D02*
X188279576Y-93183813D01*
X164047000Y-96695000D02*
X161845000Y-96695000D01*
X176545000Y-97995000D02*
X181268187Y-93271813D01*
X188367576Y-93271813D02*
X193720000Y-93271813D01*
X239840000Y-84200000D02*
X239840000Y-81900000D01*
X187217344Y-93271813D02*
X187305344Y-93183813D01*
X181268187Y-93271813D02*
X187217344Y-93271813D01*
X235220000Y-88820000D02*
X239840000Y-84200000D01*
G04 #@! TO.N,Net-(U2-ADJ)*
X218720000Y-56820000D02*
X218720000Y-56320000D01*
X217720000Y-57820000D02*
X217720000Y-57320000D01*
X211307500Y-53320000D02*
X210220000Y-53320000D01*
X216220000Y-59320000D02*
X211320000Y-59320000D01*
X209320000Y-57320000D02*
X209320000Y-56320000D01*
X217720000Y-57820000D02*
X216220000Y-59320000D01*
X211320000Y-59320000D02*
X209320000Y-57320000D01*
X217720000Y-57820000D02*
X218720000Y-56820000D01*
X208220000Y-59320000D02*
X207220000Y-58320000D01*
X211320000Y-59320000D02*
X208220000Y-59320000D01*
D53*
G04 #@! TO.N,/STEP-2+*
X242380000Y-110480000D02*
X219220000Y-87320000D01*
X213720000Y-39820000D02*
X215733500Y-37806500D01*
X215733500Y-37806500D02*
X221783829Y-37806500D01*
X226720000Y-42742671D02*
X226720000Y-47820000D01*
X221783829Y-37806500D02*
X226720000Y-42742671D01*
X242380000Y-110480000D02*
X242380000Y-117460000D01*
X219220000Y-87320000D02*
X219220000Y-81320000D01*
D50*
G04 #@! TO.N,/WD_ENABLE_STEP_PROFET*
X243720000Y-72320000D02*
X245120000Y-70920000D01*
X242220000Y-72320000D02*
X243720000Y-72320000D01*
X245120000Y-70920000D02*
X245120000Y-68820000D01*
X238220000Y-68740000D02*
X238640000Y-68740000D01*
X238640000Y-68740000D02*
X242220000Y-72320000D01*
D53*
G04 #@! TO.N,+12VStep*
X216720000Y-50820000D02*
X238220000Y-50820000D01*
X213720000Y-47820000D02*
X216720000Y-50820000D01*
X246820000Y-59420000D02*
X238220000Y-50820000D01*
X246820000Y-59670000D02*
X246820000Y-59420000D01*
G04 #@! TO.N,/STEP-2-*
X221720000Y-81320000D02*
X221720000Y-86820000D01*
X221720000Y-86820000D02*
X244920000Y-110020000D01*
X228720000Y-41820000D02*
X228720000Y-48820000D01*
X213720000Y-35820000D02*
X222720000Y-35820000D01*
X209720000Y-39820000D02*
X213720000Y-35820000D01*
X244920000Y-110020000D02*
X244920000Y-117460000D01*
X222720000Y-35820000D02*
X228720000Y-41820000D01*
D50*
G04 #@! TO.N,/DIAG0*
X233720000Y-131820000D02*
X234720000Y-130820000D01*
X187792460Y-119759813D02*
X184720000Y-122832273D01*
X234720000Y-130820000D02*
X234720000Y-119960000D01*
X234720000Y-119960000D02*
X232220000Y-117460000D01*
X217220000Y-131820000D02*
X233720000Y-131820000D01*
X184720000Y-122832273D02*
X184720000Y-124820000D01*
D53*
G04 #@! TO.N,/STEP-1+*
X215519000Y-89619000D02*
X237300000Y-111400000D01*
X190872480Y-43820000D02*
X187706500Y-46985980D01*
X211546949Y-79820000D02*
X215519000Y-83792051D01*
X237300000Y-111400000D02*
X237300000Y-117460000D01*
X215519000Y-83792051D02*
X215519000Y-89619000D01*
X210720000Y-79820000D02*
X211546949Y-79820000D01*
X187706500Y-46985980D02*
X187706500Y-49806500D01*
X187720000Y-49820000D02*
X187706500Y-49806500D01*
X191720000Y-43820000D02*
X190872480Y-43820000D01*
G04 #@! TO.N,/STEP-1-*
X217720000Y-39820000D02*
X221220000Y-43320000D01*
X221220000Y-43320000D02*
X221220000Y-47320000D01*
X239840000Y-111940000D02*
X216720000Y-88820000D01*
X239840000Y-111940000D02*
X239840000Y-117460000D01*
X216720000Y-88820000D02*
X216720000Y-81320000D01*
D50*
G04 #@! TO.N,/CARD-CS*
X182553187Y-95811813D02*
X187217344Y-95811813D01*
X176545000Y-101820000D02*
X176545000Y-102995000D01*
X188367576Y-95811813D02*
X193711813Y-95811813D01*
X164295000Y-99245000D02*
X162845000Y-97795000D01*
X166720000Y-104820000D02*
X164295000Y-102395000D01*
X187217344Y-95811813D02*
X187305344Y-95723813D01*
X176545000Y-101820000D02*
X182553187Y-95811813D01*
X188279576Y-95723813D02*
X188367576Y-95811813D01*
X162845000Y-97795000D02*
X161845000Y-97795000D01*
X164295000Y-102395000D02*
X164295000Y-99245000D01*
X202720000Y-99439813D02*
X213192460Y-99439813D01*
X174720000Y-104820000D02*
X166720000Y-104820000D01*
X176545000Y-102995000D02*
X174720000Y-104820000D01*
X187305344Y-95723813D02*
X188279576Y-95723813D01*
G04 #@! TO.N,/MOTOR-CS*
X236220000Y-96320000D02*
X244920000Y-87620000D01*
X213192460Y-107059813D02*
X225480187Y-107059813D01*
X225480187Y-107059813D02*
X227220000Y-105320000D01*
X244920000Y-87620000D02*
X244920000Y-81900000D01*
D53*
G04 #@! TO.N,/RELAY_2*
X192872480Y-39820000D02*
X185720000Y-46972480D01*
X185720000Y-49320000D02*
X183950000Y-51090000D01*
X185720000Y-46972480D02*
X185720000Y-49320000D01*
X193720000Y-39820000D02*
X192872480Y-39820000D01*
X183950000Y-51090000D02*
X182720000Y-51090000D01*
G04 #@! TO.N,/RELAY_1*
X185396000Y-41296480D02*
X185396000Y-45159000D01*
X197720000Y-39820000D02*
X195706500Y-37806500D01*
X195706500Y-37806500D02*
X188885980Y-37806500D01*
X182720000Y-47835000D02*
X182720000Y-48550000D01*
X185396000Y-45159000D02*
X182720000Y-47835000D01*
X188885980Y-37806500D02*
X185396000Y-41296480D01*
D51*
G04 #@! TO.N,unconnected-(U5-GND-Pad17)*
X213192460Y-122299813D02*
X213699813Y-122299813D01*
X213699813Y-122299813D02*
X213720000Y-122320000D01*
G04 #@! TO.N,/CAN-H*
X231720000Y-127090000D02*
X233450000Y-127090000D01*
X233450000Y-127090000D02*
X233720000Y-126820000D01*
G04 #@! TO.N,/CAN-L*
X231720000Y-128360000D02*
X233680000Y-128360000D01*
X238450000Y-123590000D02*
X236720000Y-125320000D01*
X238450000Y-121320000D02*
X238450000Y-123590000D01*
X233680000Y-128360000D02*
X233720000Y-128320000D01*
D50*
G04 #@! TO.N,/BLIP-IN*
X187214140Y-55494000D02*
X172546000Y-55494000D01*
X202144000Y-51396000D02*
X191312140Y-51396000D01*
X205720000Y-47820000D02*
X202144000Y-51396000D01*
X160640000Y-60740000D02*
X160640000Y-57820000D01*
X162720000Y-64320000D02*
X162720000Y-62820000D01*
X191312140Y-51396000D02*
X187214140Y-55494000D01*
X172546000Y-55494000D02*
X170720000Y-57320000D01*
X160720000Y-60820000D02*
X160640000Y-60740000D01*
G04 #@! TO.N,/TPS-SIG1*
X197720000Y-55320000D02*
X197720000Y-63320000D01*
X169294000Y-110746000D02*
X169294000Y-118746000D01*
X171720000Y-108320000D02*
X169294000Y-110746000D01*
X169294000Y-118746000D02*
X168220000Y-119820000D01*
X168220000Y-125725000D02*
X169815000Y-127320000D01*
X168220000Y-119820000D02*
X168220000Y-125725000D01*
X197720000Y-63320000D02*
X191720000Y-69320000D01*
G04 #@! TO.N,/APPS-SIG2*
X171220000Y-114232500D02*
X171220000Y-113320000D01*
X172807500Y-115820000D02*
X171220000Y-114232500D01*
X195720000Y-55320000D02*
X195720000Y-63820000D01*
X195720000Y-63820000D02*
X191220000Y-68320000D01*
G04 #@! TO.N,/TPS-SIG2*
X200720000Y-120320000D02*
X200720000Y-80320000D01*
X193720000Y-127320000D02*
X176220000Y-127320000D01*
D51*
X200720000Y-71320000D02*
X200720000Y-60320000D01*
D50*
X193720000Y-127320000D02*
X200720000Y-120320000D01*
G04 #@! TO.N,/APPS-SIG1*
X199720000Y-55320000D02*
X199720000Y-62820000D01*
X168307500Y-115820000D02*
X166720000Y-114232500D01*
X166720000Y-114232500D02*
X166720000Y-111320000D01*
X166720000Y-111320000D02*
X172220000Y-105820000D01*
X199720000Y-62820000D02*
X191720000Y-70820000D01*
D51*
G04 #@! TO.N,/TPS-SIG1-OUT*
X181720000Y-109570000D02*
X186770187Y-104519813D01*
D50*
X171632500Y-127312500D02*
X171640000Y-127320000D01*
X177720000Y-117232500D02*
X177720000Y-113570000D01*
X177720000Y-113570000D02*
X181720000Y-109570000D01*
X171632500Y-123320000D02*
X177720000Y-117232500D01*
X171632500Y-123320000D02*
X171632500Y-127312500D01*
D51*
X186770187Y-104519813D02*
X187792460Y-104519813D01*
D50*
G04 #@! TO.N,/BLIP-OUT*
X181720000Y-81820000D02*
X167720000Y-67820000D01*
X167720000Y-65645000D02*
X167720000Y-67820000D01*
X169720000Y-64320000D02*
X169720000Y-63320000D01*
X165720000Y-57820000D02*
X167220000Y-57820000D01*
X181720000Y-86320000D02*
X181720000Y-81820000D01*
X167220000Y-57820000D02*
X169720000Y-60320000D01*
X167720000Y-65645000D02*
X168395000Y-65645000D01*
X168395000Y-65645000D02*
X169720000Y-64320000D01*
X169720000Y-60320000D02*
X169720000Y-60820000D01*
D51*
G04 #@! TO.N,/APPS-SIG1-OUT*
X187792460Y-96899813D02*
X183140187Y-96899813D01*
D50*
X170132500Y-112320000D02*
X179220000Y-103232500D01*
X179220000Y-103232500D02*
X179220000Y-100820000D01*
D51*
X183140187Y-96899813D02*
X181720000Y-98320000D01*
D50*
X179220000Y-100820000D02*
X181720000Y-98320000D01*
X170132500Y-115820000D02*
X170132500Y-112320000D01*
G04 #@! TO.N,/APPS-SIG2-OUT*
X174632500Y-115820000D02*
X174632500Y-112320000D01*
X174632500Y-112320000D02*
X174632500Y-110907500D01*
X174632500Y-110907500D02*
X181720000Y-103820000D01*
D51*
X183560187Y-101979813D02*
X187792460Y-101979813D01*
X181720000Y-103820000D02*
X183560187Y-101979813D01*
D50*
X187632647Y-101820000D02*
X187792460Y-101979813D01*
D51*
G04 #@! TO.N,/TPS-SIG2-OUT*
X181720000Y-115320000D02*
X181720000Y-113132273D01*
D50*
X174395000Y-127320000D02*
X174395000Y-125145000D01*
D51*
X176220000Y-123320000D02*
X176220000Y-120820000D01*
X181720000Y-113132273D02*
X187792460Y-107059813D01*
D50*
X174395000Y-125145000D02*
X176220000Y-123320000D01*
D51*
X176220000Y-120820000D02*
X181720000Y-115320000D01*
D50*
X187792460Y-107059813D02*
X187730187Y-107059813D01*
G04 #@! TO.N,/ESP_HEARTBEAT_L1*
X194720000Y-84320000D02*
X194720000Y-107752273D01*
X194720000Y-107752273D02*
X187792460Y-114679813D01*
G04 #@! TO.N,/WD_ENABLE_STEP_RELAY*
X230220000Y-67935000D02*
X230220000Y-66820000D01*
X233270000Y-70010000D02*
X232295001Y-70010000D01*
X230220000Y-67935000D02*
X232295001Y-70010000D01*
X180919000Y-41519000D02*
X180751000Y-41519000D01*
X180751000Y-41519000D02*
X173720000Y-48550000D01*
D51*
G04 #@! TO.N,/CAN-RX*
X228045000Y-125145000D02*
X228045000Y-129329999D01*
X213192460Y-109599813D02*
X213192460Y-110292460D01*
X213192460Y-110292460D02*
X228045000Y-125145000D01*
X228045000Y-129329999D02*
X227744999Y-129630000D01*
X227744999Y-129630000D02*
X226770000Y-129630000D01*
G04 #@! TO.N,/CAN-TX*
X213192460Y-112139813D02*
X213192460Y-112242460D01*
X213192460Y-112242460D02*
X226770000Y-125820000D01*
D52*
G04 #@! TO.N,+5V-SENSORS*
X201720000Y-57320000D02*
X201720000Y-53820000D01*
X198720000Y-50820000D02*
X192720000Y-50820000D01*
X210220000Y-54869000D02*
X212944000Y-54869000D01*
X207020000Y-62620000D02*
X207871000Y-63471000D01*
X205720000Y-45820000D02*
X207720000Y-43820000D01*
X212944000Y-54869000D02*
X215895000Y-57820000D01*
X207020000Y-56320000D02*
X208471000Y-54869000D01*
X201720000Y-47820000D02*
X203720000Y-45820000D01*
X212594000Y-63471000D02*
X213745000Y-62320000D01*
X206469000Y-62069000D02*
X206469000Y-56871000D01*
X211820000Y-57820000D02*
X211820000Y-56469000D01*
X207871000Y-63471000D02*
X212594000Y-63471000D01*
X203720000Y-45820000D02*
X205720000Y-45820000D01*
X201720000Y-47820000D02*
X198720000Y-50820000D01*
X206469000Y-56871000D02*
X207020000Y-56320000D01*
X207020000Y-62620000D02*
X206469000Y-62069000D01*
X207020000Y-62620000D02*
X201720000Y-57320000D01*
X211820000Y-56469000D02*
X210220000Y-54869000D01*
X208471000Y-54869000D02*
X210220000Y-54869000D01*
X192720000Y-50820000D02*
X189720000Y-47820000D01*
G04 #@! TO.N,Net-(U4-IN)*
X181432500Y-71027500D02*
X181512500Y-70947500D01*
X181512500Y-62070000D02*
X186787500Y-62070000D01*
X186787500Y-62070000D02*
X187287500Y-61570000D01*
X181512500Y-70947500D02*
X181512500Y-62070000D01*
D50*
G04 #@! TO.N,Net-(D3-K)*
X213195000Y-60820000D02*
X211695000Y-62320000D01*
X217720000Y-62320000D02*
X216220000Y-60820000D01*
X216220000Y-60820000D02*
X213195000Y-60820000D01*
G04 #@! TO.N,Net-(D4-K)*
X174987500Y-67757500D02*
X175012500Y-67732500D01*
X174987500Y-70907500D02*
X174987500Y-67757500D01*
G04 #@! TO.N,Net-(D5-K)*
X219170000Y-71820000D02*
X219170000Y-70370000D01*
X219170000Y-70370000D02*
X219220000Y-70320000D01*
X217170000Y-67900000D02*
X215800000Y-67900000D01*
X215800000Y-67900000D02*
X215720000Y-67820000D01*
G04 #@! TD*
M02*
